<?xml version="1.0" encoding="utf-8"?>
<!DOCTYPE svg PUBLIC "-//W3C//DTD SVG 1.1//EN" "http://www.w3.org/Graphics/SVG/1.1/DTD/svg11.dtd">
<svg version="1.1" xmlns="http://www.w3.org/2000/svg" xmlns:xlink="http://www.w3.org/1999/xlink" x="0px" y="0px"
	 width="24px" height="24px" viewBox="0 0 24 24" enable-background="new 0 0 24 24" xml:space="preserve">
<path d="M20.45,6.23h-0.03L16.07,5.3l-0.35-1.67C15.5,2.57,14.45,1.88,13.38,2.09L13.35,2.1L3.58,4.17C2.5,4.4,1.81,5.46,2.05,6.54
	l1.66,7.81c0.51,2.431,2.23,4.301,4.4,5.101c0.97,1.159,2.31,2.01,3.89,2.34c3.779,0.81,7.5-1.61,8.3-5.38l1.66-7.82
	C22.18,7.53,21.5,6.47,20.45,6.23z M8.28,5.69L7.5,9.5c-0.1,0-0.17,0-0.25,0C6.56,9.66,6.06,10.2,6,10.81
	c0.21,0.36,0.6,0.61,1.05,0.69l-0.43,2c-0.17,0.8-0.19,1.6-0.09,2.37c-0.41-0.55-0.71-1.19-0.86-1.9l-0.01-0.03L4,6.13l4.47-0.96
	C8.38,5.33,8.32,5.5,8.28,5.69z M13.77,4.05l0.16,0.8L11.97,4.43L13.77,4.05z M11.369,9.771c0.808,0.168,1.446,0.819,1.542,1.555
	c-0.398,0.627-1.205,0.976-2.037,0.82c-0.832-0.205-1.435-0.844-1.531-1.58C9.73,9.928,10.537,9.59,11.369,9.771z M12.574,18.645
	c-1.531-0.326-2.628-1.592-2.809-3.075l6.63,1.398C15.637,18.258,14.117,18.97,12.574,18.645z M16.757,13.352
	c-0.833-0.157-1.435-0.796-1.531-1.531c0.386-0.639,1.205-0.977,2.039-0.796c0.83,0.169,1.434,0.808,1.542,1.555
	C18.409,13.206,17.601,13.545,16.757,13.352z"/>
</svg>
