<svg xmlns="http://www.w3.org/2000/svg" viewBox="0 0 960 540" class="a"><style>.a{fill:none;}.b{fill:#fed47d;}.c{fill:#bf8ac9;}</style><path fill="#000000" d="m0 0l960.0 0l0 540.0l-960.0 0z" fill-rule="evenodd"/><clipPath><path d="m0 0l960 0 0 540 -960 0 0-540z"/></clipPath><g clip-path="url(#g18d14ebf02_0_31.0)"><path d="m0 0l960 0 0 540 -960 0z"/><path d="m68.92 152.94l0 0 0 205.69 -52.92 0 0-224.5 0 0 0-1.31 0.17-1.31 0.25-1.31 0.42-1.37 0.42-1.19 0.5-1.25 0.67-1.19 0.83-1.25 0.83-1.12 0.92-1.12 1-1.12 1.08-1 1.25-1 1.17-1.06 1.42-0.94 1.33-0.87 1.5-0.81 1.5-0.81 1.58-0.81 1.67-0.75 1.67-0.69 1.75-0.62 1.92-0.62 1.75-0.5 1.92-0.44 2-0.37 2.08-0.44 2-0.25 2.08-0.25 2-0.06 2.17-0.12 2.17-0.12 189.83 0 0 16.44 -140.83 0 0 0 -1.92 0 -2 0.13 -1.92 0.19 -1.75 0.19 -1.92 0.31 -1.75 0.44 -1.83 0.5 -1.75 0.5 -1.58 0.5 -1.67 0.63 -1.67 0.75 -1.42 0.69 -1.5 0.81 -1.5 0.94 -1.42 0.81 -1.33 1 -1.25 0.94 -1.17 1 -1.08 1.13 -1.17 1.13 -0.92 1.13 -0.92 1.25 -0.83 1.19 -0.83 1.31 -0.67 1.25 -0.58 1.31 -0.5 1.44 -0.42 1.31 -0.42 1.44 -0.17 1.44 -0.08 1.44 -0.17 1.44 0 0z" class="b"/><path d="m16 365.5l52.35 0 0 174.49 -52.35 0z" class="c"/><path d="m253.33 108l255.34 0 0 16.38 -255.34 0z" class="c"/><path d="m515.67 108l206.33 0 0 16.38 -206.33 0z" fill="#e3bc6d"/><path d="m729 108l230.99 0 0 16.38 -230.99 0z" fill="#a14141"/><path d="m104.73 135.61l822.24 0 0 392.79 -822.24 0z" class="a"/><path d="m177.13 193.85q0-2.31-1.19-3.5 -1.19-1.19-4.31-2.45 -5.7-2.17-8.2-5.06 -2.5-2.91-2.5-6.86 0-4.8 3.39-7.7 3.41-2.91 8.64-2.91 3.5 0 6.23 1.48 2.73 1.47 4.2 4.16 1.47 2.67 1.47 6.08l-7.62 0q0-2.66-1.14-4.05 -1.12-1.39-3.27-1.39 -2 0-3.12 1.19 -1.12 1.19-1.12 3.19 0 1.56 1.25 2.83 1.25 1.25 4.44 2.61 5.55 2 8.05 4.92 2.52 2.92 2.52 7.42 0 4.95-3.16 7.73 -3.14 2.78-8.56 2.78 -3.67 0-6.69-1.5 -3.02-1.52-4.73-4.33 -1.7-2.81-1.7-6.64l7.69 0q0 3.28 1.27 4.77 1.28 1.48 4.17 1.48 4.02 0 4.02-4.25zm23.8 10.47q-5.67 0-8.86-3.37 -3.17-3.39-3.17-9.69l0-2.25q0-6.66 2.91-10.27 2.92-3.62 8.38-3.62 5.31 0 7.98 3.39 2.69 3.39 2.73 10.06l0 3.63 -14.66 0q0.16 3.13 1.38 4.58 1.23 1.44 3.78 1.44 3.7 0 6.17-2.53l2.89 4.45q-1.36 1.88-3.94 3.03 -2.58 1.16-5.59 1.16zm-4.64-17.28l7.38 0 0-0.69q-0.05-2.52-0.83-3.81 -0.78-1.31-2.72-1.31 -1.92 0-2.8 1.39 -0.87 1.38-1.03 4.42zm25.52-11.41l0.22 2.78q2.5-3.3 6.53-3.3 7.27 0 7.47 10.17l0 18.52 -7.39 0 0-17.97q0-2.39-0.72-3.47 -0.72-1.09-2.52-1.09 -2 0-3.12 2.06l0 20.47 -7.39 0 0-28.17 6.92 0zm32.89 28.17q-0.31-0.66-0.62-2.19 -1.97 2.7-5.36 2.7 -3.55 0-5.87-2.34 -2.33-2.34-2.33-6.06 0-4.42 2.83-6.84 2.83-2.42 8.14-2.48l2.23 0 0-2.27q0-1.89-0.66-2.67 -0.64-0.78-1.89-0.78 -2.77 0-2.77 3.22l-7.37 0q0-3.91 2.92-6.44 2.94-2.53 7.42-2.53 4.64 0 7.17 2.41 2.55 2.41 2.55 6.88l0 13.27q0.05 3.64 1.03 5.7l0 0.44 -7.42 0zm-4.34-5.27q1.22 0 2.08-0.48 0.86-0.5 1.28-1.17l0-5.86 -1.77 0q-1.87 0-2.97 1.2 -1.08 1.19-1.08 3.19 0 3.13 2.45 3.13zm24.63-29.83l0 6.92 3.78 0 0 5.55 -3.78 0 0 13.98q0 1.66 0.45 2.28 0.45 0.63 1.77 0.63 1.06 0 1.73-0.17l-0.05 5.72q-1.87 0.7-4.06 0.7 -7.14 0-7.22-8.17l0-14.97 -3.25 0 0-5.55 3.25 0 0-6.92 7.38 0zm6.18 20.09q0-6.41 3.02-10.05 3.02-3.64 8.36-3.64 5.39 0 8.41 3.64 3.03 3.64 3.03 10.09l0 1.8q0 6.44-3 10.06 -3 3.61-8.39 3.61 -5.41 0-8.42-3.62 -3-3.64-3-10.09l0-1.8zm7.39 1.84q0 7.56 4.03 7.56 3.73 0 4.02-6.31l0.03-3.09q0-3.86-1.08-5.72 -1.06-1.86-3.02-1.86 -1.87 0-2.94 1.86 -1.05 1.86-1.05 5.72l0 1.84zm33.91-7.91l-2.45-0.22q-3.02 0-4.09 2.66l0 18.63 -7.39 0 0-28.17 6.95 0 0.2 3.05q1.75-3.56 4.83-3.56 1.25 0 2.03 0.33l-0.08 7.3zm28.89-16.84l7.66 0 0 26.23q0 5.53-3.08 8.86 -3.06 3.33-7.91 3.33 -5.2 0-8.09-3.09 -2.89-3.09-2.89-8.62l7.67 0q0 5.38 3.31 5.38 3.33 0 3.33-6.2l0-25.87zm26.69 37.91q-0.31-0.66-0.62-2.19 -1.97 2.7-5.36 2.7 -3.55 0-5.87-2.34 -2.33-2.34-2.33-6.06 0-4.42 2.83-6.84 2.83-2.42 8.14-2.48l2.23 0 0-2.27q0-1.89-0.66-2.67 -0.64-0.78-1.89-0.78 -2.77 0-2.77 3.22l-7.37 0q0-3.91 2.92-6.44 2.94-2.53 7.42-2.53 4.64 0 7.17 2.41 2.55 2.41 2.55 6.88l0 13.27q0.05 3.64 1.03 5.7l0 0.44 -7.42 0zm-4.34-5.27q1.22 0 2.08-0.48 0.86-0.5 1.28-1.17l0-5.86 -1.77 0q-1.87 0-2.97 1.2 -1.08 1.19-1.08 3.19 0 3.13 2.45 3.13zm29.98-15.8l-2.45-0.22q-3.02 0-4.09 2.66l0 18.63 -7.39 0 0-28.17 6.95 0 0.2 3.05q1.75-3.56 4.83-3.56 1.25 0 2.03 0.33l-0.08 7.3zm17.02 7.89l-12.73 0 0-6.16 12.73 0 0 6.16zm26.06-3.23l-11.92 0 0 10.05 14.11 0 0 6.36 -21.77 0 0-37.91 21.72 0 0 6.38 -14.06 0 0 8.95 11.92 0 0 6.17zm13.97 16.41l-7.41 0 0-40 7.41 0 0 40zm38.51-12.37l2.53-15.8 7.05 0 -5.83 28.17 -6.12 0 -3.98-16.3 -3.98 16.3 -6.14 0 -5.83-28.17 7.08 0 2.5 15.83 3.75-15.83 5.23 0 3.75 15.8zm20.97 12.38l-7.41 0 0-28.17 7.41 0 0 28.17zm-7.73-35.47q0-1.72 1.09-2.81 1.09-1.09 2.91-1.09 1.83 0 2.92 1.09 1.09 1.09 1.09 2.81 0 1.7-1.08 2.83 -1.08 1.11-2.94 1.11 -1.84 0-2.92-1.11 -1.08-1.12-1.08-2.83zm21.17 35.47l-7.41 0 0-40 7.41 0 0 40zm13.44 0l-7.41 0 0-40 7.41 0 0 40zm39.96-13.17q0 6.84-2.19 10.27 -2.19 3.42-6.87 3.42 -3.67 0-5.87-3.3l-0.23 2.78 -6.8 0 0-40 7.36 0 0 14.11q2.09-2.8 5.5-2.8 4.69 0 6.88 3.39 2.19 3.39 2.23 9.95l0 2.17zm-7.36-1.86q0-4.45-0.86-5.97 -0.86-1.53-3-1.53 -2.31 0-3.39 2.11l0 12.84q1 1.98 3.44 1.98 2.11 0 2.92-1.37 0.83-1.39 0.89-5.37l0-2.69zm23.17 15.55q-5.67 0-8.86-3.37 -3.17-3.39-3.17-9.69l0-2.25q0-6.66 2.91-10.27 2.92-3.62 8.38-3.62 5.31 0 7.98 3.39 2.69 3.39 2.73 10.06l0 3.63 -14.66 0q0.16 3.13 1.38 4.58 1.23 1.44 3.78 1.44 3.7 0 6.17-2.53l2.89 4.45q-1.36 1.88-3.94 3.03 -2.58 1.16-5.59 1.16zm-4.64-17.28l7.38 0 0-0.69q-0.05-2.52-0.83-3.81 -0.78-1.31-2.72-1.31 -1.92 0-2.8 1.39 -0.87 1.38-1.03 4.42zm43.54 9.22q0-0.94-0.91-1.73 -0.89-0.8-3.98-2.16 -4.56-1.84-6.27-3.81 -1.7-1.98-1.7-4.94 0-3.69 2.66-6.09 2.67-2.41 7.08-2.41 4.64 0 7.42 2.39 2.78 2.39 2.78 6.42l-7.36 0q0-3.44-2.87-3.44 -1.17 0-1.92 0.73 -0.75 0.73-0.75 2.03 0 0.94 0.83 1.66 0.83 0.72 3.94 2.05 4.5 1.66 6.36 3.7 1.86 2.05 1.86 5.3 0 3.78-2.84 6.08 -2.83 2.28-7.44 2.28 -3.09 0-5.47-1.2 -2.37-1.22-3.72-3.37 -1.33-2.16-1.33-4.66l7 0q0.05 1.92 0.89 2.89 0.86 0.95 2.78 0.95 2.97 0 2.97-2.67zm33.7-5.66q0 6.64-2.28 10.19 -2.28 3.53-6.78 3.53 -3.44 0-5.53-2.78l0 13.09 -7.36 0 0-39 6.81 0 0.27 2.58q2.11-3.09 5.75-3.09 4.52 0 6.78 3.28 2.28 3.27 2.34 10.05l0 2.16zm-7.34-1.84q0-4.09-0.91-5.78 -0.89-1.7-3.03-1.7 -2.27 0-3.31 1.91l0 13.2q1 1.83 3.36 1.83 2.19 0 3.03-1.84 0.86-1.86 0.86-5.77l0-1.84zm23.17 15.56q-5.67 0-8.86-3.37 -3.17-3.39-3.17-9.69l0-2.25q0-6.66 2.91-10.27 2.92-3.62 8.38-3.62 5.31 0 7.98 3.39 2.69 3.39 2.73 10.06l0 3.63 -14.66 0q0.16 3.13 1.38 4.58 1.23 1.44 3.78 1.44 3.7 0 6.17-2.53l2.89 4.45q-1.36 1.88-3.94 3.03 -2.58 1.16-5.59 1.16zm-4.64-17.28l7.38 0 0-0.69q-0.05-2.52-0.83-3.81 -0.78-1.31-2.72-1.31 -1.92 0-2.8 1.39 -0.87 1.38-1.03 4.42zm32.16 16.77q-0.31-0.66-0.62-2.19 -1.97 2.7-5.36 2.7 -3.55 0-5.87-2.34 -2.33-2.34-2.33-6.06 0-4.42 2.83-6.84 2.83-2.42 8.14-2.48l2.23 0 0-2.27q0-1.89-0.66-2.67 -0.64-0.78-1.89-0.78 -2.77 0-2.77 3.22l-7.37 0q0-3.91 2.92-6.44 2.94-2.53 7.42-2.53 4.64 0 7.17 2.41 2.55 2.41 2.55 6.88l0 13.27q0.05 3.64 1.03 5.7l0 0.44 -7.42 0zm-4.34-5.27q1.22 0 2.08-0.48 0.86-0.5 1.28-1.17l0-5.86 -1.77 0q-1.87 0-2.97 1.2 -1.08 1.19-1.08 3.19 0 3.13 2.45 3.13zm25.41-5.59l-1.98 2.22 0 8.64 -7.36 0 0-40 7.36 0 0 21.61 0.92-1.34 5.09-8.44 8.78 0 -8.17 11.61 8.95 16.56 -8.44 0 -5.16-10.86zm23.91 10.86l-7.41 0 0-28.17 7.41 0 0 28.17zm-7.73-35.47q0-1.72 1.09-2.81 1.09-1.09 2.91-1.09 1.83 0 2.92 1.09 1.09 1.09 1.09 2.81 0 1.7-1.08 2.83 -1.08 1.11-2.94 1.11 -1.84 0-2.92-1.11 -1.08-1.12-1.08-2.83zm20.17 7.3l0.22 2.78q2.5-3.3 6.53-3.3 7.27 0 7.47 10.17l0 18.52 -7.39 0 0-17.97q0-2.39-0.72-3.47 -0.72-1.09-2.52-1.09 -2 0-3.12 2.06l0 20.47 -7.39 0 0-28.17 6.92 0zm18.62 13.22q0-6.92 2.5-10.33 2.5-3.41 7-3.41 3.83 0 5.92 3.02l0.28-2.5 6.64 0 0 28.17q0 5.39-3.03 8.23 -3.02 2.86-8.66 2.86 -2.33 0-4.87-0.92 -2.55-0.92-3.8-2.36l2.47-5.11q1.05 1.09 2.7 1.78 1.67 0.7 3.16 0.7 2.47 0 3.55-1.19 1.09-1.19 1.11-3.81l0-2.42q-2.11 2.75-5.48 2.75 -4.52 0-6.98-3.5 -2.45-3.5-2.5-9.87l0-2.09zm7.38 1.86q0 3.91 1.02 5.69 1.02 1.78 3.22 1.78 2.27 0 3.36-1.64l0-13.47q-1.14-1.8-3.3-1.8 -2.19 0-3.25 1.8 -1.05 1.8-1.05 5.78l0 1.86zm46 13.09q-0.31-0.66-0.62-2.19 -1.97 2.7-5.36 2.7 -3.55 0-5.87-2.34 -2.33-2.34-2.33-6.06 0-4.42 2.83-6.84 2.83-2.42 8.14-2.48l2.23 0 0-2.27q0-1.89-0.66-2.67 -0.64-0.78-1.89-0.78 -2.77 0-2.77 3.22l-7.37 0q0-3.91 2.92-6.44 2.94-2.53 7.42-2.53 4.64 0 7.17 2.41 2.55 2.41 2.55 6.88l0 13.27q0.05 3.64 1.03 5.7l0 0.44 -7.42 0zm-4.34-5.27q1.22 0 2.08-0.48 0.86-0.5 1.28-1.17l0-5.86 -1.77 0q-1.87 0-2.97 1.2 -1.08 1.19-1.08 3.19 0 3.13 2.45 3.13zm24.63-29.83l0 6.92 3.78 0 0 5.55 -3.78 0 0 13.98q0 1.66 0.45 2.28 0.45 0.63 1.77 0.63 1.06 0 1.73-0.17l-0.05 5.72q-1.87 0.7-4.06 0.7 -7.14 0-7.22-8.17l0-14.97 -3.25 0 0-5.55 3.25 0 0-6.92 7.38 0z" class="b"/><path d="m145.85 263.51q-2.22 2.39-5.44 3.61 -3.2 1.2-7.03 1.2 -6.55 0-10.17-4.05 -3.61-4.05-3.72-11.78l0-6.83q0-7.83 3.42-12.06 3.44-4.23 10-4.23 6.17 0 9.3 3.05 3.14 3.05 3.64 9.56l-7.45 0q-0.31-3.62-1.52-4.94 -1.19-1.31-3.73-1.31 -3.11 0-4.52 2.27 -1.41 2.27-1.45 7.2l0 6.88q0 5.19 1.55 7.55 1.55 2.36 5.09 2.36 2.27 0 3.67-0.92l0.67-0.47 0-6.95 -5.36 0 0-5.78 13.05 0 0 15.66zm31.99 4.3l-7.62 0 0-16.22 -11.3 0 0 16.22 -7.66 0 0-37.91 7.66 0 0 15.33 11.3 0 0-15.33 7.63 0 0 37.91zm19.04-13.17l-12.73 0 0-6.16 12.73 0 0 6.16zm27.94-2.5q0 7.86-2.86 12.03 -2.84 4.16-8.12 4.16 -5.23 0-8.09-4.05 -2.84-4.05-2.95-11.59l0-7.17q0-7.83 2.84-11.98 2.84-4.16 8.16-4.16 5.31 0 8.14 4.13 2.84 4.11 2.89 11.73l0 6.91zm-7.39-7.69q0-4.47-0.89-6.7 -0.87-2.25-2.75-2.25 -3.52 0-3.66 8.2l0 9.45q0 4.58 0.89 6.83 0.91 2.23 2.81 2.23 1.8 0 2.67-2.09 0.88-2.11 0.92-6.42l0-9.25zm13.1 4.72l1.88-19.27 18.36 0 0 6.3 -12.33 0 -0.67 8.13q2.14-1.44 4.41-1.44 4.69 0 7.22 3.34 2.55 3.33 2.55 9.42 0 5.7-3.03 9.19 -3.02 3.48-8.06 3.48 -3 0-5.56-1.41 -2.55-1.42-4.02-3.95 -1.47-2.53-1.5-5.73l7.3 0q0.19 2.38 1.17 3.69 0.98 1.3 2.55 1.3 1.83 0 2.81-1.75 1-1.77 1-5.27 0-3.28-1.19-4.94 -1.19-1.67-3.33-1.67 -2.08 0-3.22 1.44l-0.47 0.64 -5.86-1.5zm48.46-15.03l-11.98 33.67 -7.78 0 12.03-31.8 -15.22 0 0-6.11 22.95 0 0 4.23zm16.38 18.67q0-6.41 3.02-10.05 3.02-3.64 8.36-3.64 5.39 0 8.41 3.64 3.03 3.64 3.03 10.09l0 1.8q0 6.44-3 10.06 -3 3.61-8.39 3.61 -5.41 0-8.42-3.62 -3-3.64-3-10.09l0-1.8zm7.39 1.84q0 7.56 4.03 7.56 3.73 0 4.02-6.31l0.03-3.09q0-3.86-1.08-5.72 -1.06-1.86-3.02-1.86 -1.87 0-2.94 1.86 -1.05 1.86-1.05 5.72l0 1.84zm26.74-15.02l0.22 2.78q2.5-3.3 6.53-3.3 7.27 0 7.47 10.17l0 18.52 -7.39 0 0-17.97q0-2.39-0.72-3.47 -0.72-1.09-2.52-1.09 -2 0-3.12 2.06l0 20.47 -7.39 0 0-28.17 6.92 0zm44.27 20.62q0-0.94-0.91-1.73 -0.89-0.8-3.98-2.16 -4.56-1.84-6.27-3.81 -1.7-1.98-1.7-4.94 0-3.69 2.66-6.09 2.67-2.41 7.08-2.41 4.64 0 7.42 2.39 2.78 2.39 2.78 6.42l-7.36 0q0-3.44-2.87-3.44 -1.17 0-1.92 0.73 -0.75 0.73-0.75 2.03 0 0.94 0.83 1.66 0.83 0.72 3.94 2.05 4.5 1.66 6.36 3.7 1.86 2.05 1.86 5.3 0 3.78-2.84 6.08 -2.83 2.28-7.44 2.28 -3.09 0-5.47-1.2 -2.37-1.22-3.72-3.37 -1.33-2.16-1.33-4.66l7 0q0.05 1.92 0.89 2.89 0.86 0.95 2.78 0.95 2.97 0 2.97-2.67zm20.31-27.55l0 6.92 3.78 0 0 5.55 -3.78 0 0 13.98q0 1.66 0.45 2.28 0.45 0.63 1.77 0.63 1.06 0 1.73-0.17l-0.05 5.72q-1.87 0.7-4.06 0.7 -7.14 0-7.22-8.17l0-14.97 -3.25 0 0-5.55 3.25 0 0-6.92 7.38 0zm21.19 35.09q-0.31-0.66-0.62-2.19 -1.97 2.7-5.36 2.7 -3.55 0-5.87-2.34 -2.33-2.34-2.33-6.06 0-4.42 2.83-6.84 2.83-2.42 8.14-2.48l2.23 0 0-2.27q0-1.89-0.66-2.67 -0.64-0.78-1.89-0.78 -2.77 0-2.77 3.22l-7.37 0q0-3.91 2.92-6.44 2.94-2.53 7.42-2.53 4.64 0 7.17 2.41 2.55 2.41 2.55 6.88l0 13.27q0.05 3.64 1.03 5.7l0 0.44 -7.42 0zm-4.34-5.27q1.22 0 2.08-0.48 0.86-0.5 1.28-1.17l0-5.86 -1.77 0q-1.87 0-2.97 1.2 -1.08 1.19-1.08 3.19 0 3.13 2.45 3.13zm29.98-15.8l-2.45-0.22q-3.02 0-4.09 2.66l0 18.62 -7.39 0 0-28.17 6.95 0 0.2 3.05q1.75-3.56 4.83-3.56 1.25 0 2.03 0.33l-0.08 7.3zm2.28 6.11q0-6.92 2.34-10.33 2.34-3.41 6.83-3.41 3.25 0 5.42 2.8l0-14.11 7.42 0 0 40 -6.7 0 -0.33-2.86q-2.27 3.38-5.84 3.38 -4.42 0-6.75-3.37 -2.33-3.39-2.39-9.95l0-2.14zm7.41 1.86q0 4.16 0.88 5.81 0.89 1.66 3 1.66 2.19 0 3.31-1.95l0-12.86q-1.09-2.09-3.28-2.09 -2.03 0-2.97 1.64 -0.94 1.64-0.94 5.84l0 1.95zm33.4 13.09q-0.31-0.66-0.62-2.19 -1.97 2.7-5.36 2.7 -3.55 0-5.87-2.34 -2.33-2.34-2.33-6.06 0-4.42 2.83-6.84 2.83-2.42 8.14-2.48l2.23 0 0-2.27q0-1.89-0.66-2.67 -0.64-0.78-1.89-0.78 -2.77 0-2.77 3.22l-7.37 0q0-3.91 2.92-6.44 2.94-2.53 7.42-2.53 4.64 0 7.17 2.41 2.55 2.41 2.55 6.88l0 13.27q0.05 3.64 1.03 5.7l0 0.44 -7.42 0zm-4.34-5.27q1.22 0 2.08-0.48 0.86-0.5 1.28-1.17l0-5.86 -1.77 0q-1.87 0-2.97 1.2 -1.08 1.19-1.08 3.19 0 3.13 2.45 3.13zm24.63-29.83l0 6.92 3.78 0 0 5.55 -3.78 0 0 13.98q0 1.66 0.45 2.28 0.45 0.63 1.77 0.63 1.06 0 1.73-0.17l-0.05 5.72q-1.87 0.7-4.06 0.7 -7.14 0-7.22-8.17l0-14.97 -3.25 0 0-5.55 3.25 0 0-6.92 7.38 0zm19.19 35.61q-5.67 0-8.86-3.37 -3.17-3.39-3.17-9.69l0-2.25q0-6.66 2.91-10.27 2.92-3.62 8.38-3.62 5.31 0 7.98 3.39 2.69 3.39 2.73 10.06l0 3.62 -14.66 0q0.16 3.13 1.38 4.58 1.23 1.44 3.78 1.44 3.7 0 6.17-2.53l2.89 4.45q-1.36 1.88-3.94 3.03 -2.58 1.16-5.59 1.16zm-4.64-17.28l7.38 0 0-0.69q-0.05-2.52-0.83-3.81 -0.78-1.31-2.72-1.31 -1.92 0-2.8 1.39 -0.87 1.38-1.03 4.42zm53.2 16.77l-22.34 0 0-5.2 10.27-13.05q1.95-2.72 2.88-4.75 0.92-2.05 0.92-3.92 0-2.53-0.87-3.95 -0.86-1.44-2.5-1.44 -1.8 0-2.86 1.67 -1.05 1.66-1.05 4.67l-7.41 0q0-3.48 1.44-6.37 1.45-2.89 4.06-4.48 2.63-1.61 5.94-1.61 5.08 0 7.88 2.81 2.8 2.8 2.8 7.95 0 3.19-1.55 6.48 -1.55 3.3-5.61 8.11l-4.87 6.95 12.89 0 0 6.13zm24.07-14.33l3.22 0 0 6.12 -3.22 0 0 8.2 -7.37 0 0-8.2 -12.55 0 -0.34-4.77 12.86-24.94 7.41 0 0 23.58zm-13.11 0l5.73 0 0-12.67 -0.16 0.28 -5.58 12.39zm38.23-23.97l0 6.25 -0.41 0q-4.14 0.02-6.58 2.48 -2.44 2.45-2.95 6.88 2.36-2.7 5.94-2.7 4.11 0 6.56 3.52 2.47 3.52 2.47 9.38 0 3.72-1.41 6.72 -1.41 3-3.95 4.66 -2.53 1.64-5.73 1.64 -5.16 0-8.27-4.14 -3.11-4.14-3.11-11.14l0-2.73q0-6.28 1.95-10.98 1.97-4.72 5.67-7.25 3.72-2.55 8.67-2.56l1.14 0zm-6.33 19q-1.41 0-2.36 0.89 -0.94 0.88-1.41 2.19l0 2.66q0 4 1.06 5.98 1.06 1.98 2.81 1.98 1.77 0 2.83-1.91 1.08-1.92 1.08-4.92 0-3.05-1.11-4.95 -1.11-1.92-2.91-1.92zm33.3-19l0 6.25 -0.41 0q-4.14 0.02-6.58 2.48 -2.44 2.45-2.95 6.88 2.36-2.7 5.94-2.7 4.11 0 6.56 3.52 2.47 3.52 2.47 9.38 0 3.72-1.41 6.72 -1.41 3-3.95 4.66 -2.53 1.64-5.73 1.64 -5.16 0-8.27-4.14 -3.11-4.14-3.11-11.14l0-2.73q0-6.28 1.95-10.98 1.97-4.72 5.67-7.25 3.72-2.55 8.67-2.56l1.14 0zm-6.33 19q-1.41 0-2.36 0.89 -0.94 0.88-1.41 2.19l0 2.66q0 4 1.06 5.98 1.06 1.98 2.81 1.98 1.77 0 2.83-1.91 1.08-1.92 1.08-4.92 0-3.05-1.11-4.95 -1.11-1.92-2.91-1.92zm16.54 15.55q0-1.77 1.19-2.91 1.19-1.16 3.08-1.16 1.86 0 3.08 1.14 1.22 1.13 1.22 2.92 0 1.83-1.23 2.94 -1.23 1.09-3.06 1.09 -1.84 0-3.06-1.11 -1.2-1.12-1.2-2.92zm37.05 3.75l-22.34 0 0-5.2 10.27-13.05q1.95-2.72 2.88-4.75 0.92-2.05 0.92-3.92 0-2.53-0.87-3.95 -0.86-1.44-2.5-1.44 -1.8 0-2.86 1.67 -1.05 1.66-1.05 4.67l-7.41 0q0-3.48 1.44-6.37 1.45-2.89 4.06-4.48 2.63-1.61 5.94-1.61 5.08 0 7.88 2.81 2.8 2.8 2.8 7.95 0 3.19-1.55 6.48 -1.55 3.3-5.61 8.11l-4.87 6.95 12.89 0 0 6.13zm30.52 0q-0.31-0.66-0.62-2.19 -1.97 2.7-5.36 2.7 -3.55 0-5.87-2.34 -2.33-2.34-2.33-6.06 0-4.42 2.83-6.84 2.83-2.42 8.14-2.48l2.23 0 0-2.27q0-1.89-0.66-2.67 -0.64-0.78-1.89-0.78 -2.77 0-2.77 3.22l-7.37 0q0-3.91 2.92-6.44 2.94-2.53 7.42-2.53 4.64 0 7.17 2.41 2.55 2.41 2.55 6.88l0 13.27q0.05 3.64 1.03 5.7l0 0.44 -7.42 0zm-4.34-5.27q1.22 0 2.08-0.48 0.86-0.5 1.28-1.17l0-5.86 -1.77 0q-1.87 0-2.97 1.2 -1.08 1.19-1.08 3.19 0 3.13 2.45 3.13zm28.54-2.28q0-0.94-0.91-1.73 -0.89-0.8-3.98-2.16 -4.56-1.84-6.27-3.81 -1.7-1.98-1.7-4.94 0-3.69 2.66-6.09 2.67-2.41 7.08-2.41 4.64 0 7.42 2.39 2.78 2.39 2.78 6.42l-7.36 0q0-3.44-2.87-3.44 -1.17 0-1.92 0.73 -0.75 0.73-0.75 2.03 0 0.94 0.83 1.66 0.83 0.72 3.94 2.05 4.5 1.66 6.36 3.7 1.86 2.05 1.86 5.3 0 3.78-2.84 6.08 -2.83 2.28-7.44 2.28 -3.09 0-5.47-1.2 -2.37-1.22-3.72-3.37 -1.33-2.16-1.33-4.66l7 0q0.05 1.92 0.89 2.89 0.86 0.95 2.78 0.95 2.97 0 2.97-2.67zm45.99-5.66q0 6.64-2.28 10.19 -2.28 3.53-6.78 3.53 -3.44 0-5.53-2.78l0 13.09 -7.36 0 0-39 6.81 0 0.27 2.58q2.11-3.09 5.75-3.09 4.52 0 6.78 3.28 2.28 3.27 2.34 10.05l0 2.16zm-7.34-1.84q0-4.09-0.91-5.78 -0.89-1.7-3.03-1.7 -2.27 0-3.31 1.91l0 13.2q1 1.83 3.36 1.83 2.19 0 3.03-1.84 0.86-1.86 0.86-5.77l0-1.84zm25.17 15.05q-0.31-0.66-0.62-2.19 -1.97 2.7-5.36 2.7 -3.55 0-5.87-2.34 -2.33-2.34-2.33-6.06 0-4.42 2.83-6.84 2.83-2.42 8.14-2.48l2.23 0 0-2.27q0-1.89-0.66-2.67 -0.64-0.78-1.89-0.78 -2.77 0-2.77 3.22l-7.37 0q0-3.91 2.92-6.44 2.94-2.53 7.42-2.53 4.64 0 7.17 2.41 2.55 2.41 2.55 6.88l0 13.27q0.05 3.64 1.03 5.7l0 0.44 -7.42 0zm-4.34-5.27q1.22 0 2.08-0.48 0.86-0.5 1.28-1.17l0-5.86 -1.77 0q-1.87 0-2.97 1.2 -1.08 1.19-1.08 3.19 0 3.13 2.45 3.13zm29.98-15.8l-2.45-0.22q-3.02 0-4.09 2.66l0 18.62 -7.39 0 0-28.17 6.95 0 0.2 3.05q1.75-3.56 4.83-3.56 1.25 0 2.03 0.33l-0.08 7.3zm13.64-14.03l0 6.92 3.78 0 0 5.55 -3.78 0 0 13.98q0 1.66 0.45 2.28 0.45 0.63 1.77 0.63 1.06 0 1.73-0.17l-0.05 5.72q-1.87 0.7-4.06 0.7 -7.14 0-7.22-8.17l0-14.97 -3.25 0 0-5.55 3.25 0 0-6.92 7.38 0zm19.25 20.09q0-6.41 3.02-10.05 3.02-3.64 8.36-3.64 5.39 0 8.41 3.64 3.03 3.64 3.03 10.09l0 1.8q0 6.44-3 10.06 -3 3.61-8.39 3.61 -5.41 0-8.42-3.62 -3-3.64-3-10.09l0-1.8zm7.39 1.84q0 7.56 4.03 7.56 3.73 0 4.02-6.31l0.03-3.09q0-3.86-1.08-5.72 -1.06-1.86-3.02-1.86 -1.87 0-2.94 1.86 -1.05 1.86-1.05 5.72l0 1.84zm21.69 13.16l0-22.62 -3.41 0 0-5.55 3.41 0 0-2.53q0.03-4.66 2.45-7.25 2.44-2.59 6.73-2.59 1.31 0 3.34 0.53l-0.06 5.88q-0.75-0.23-1.8-0.23 -3.28 0-3.28 3.91l0 2.3 4.41 0 0 5.55 -4.41 0 0 22.62 -7.39 0z" class="b"/><path d="m253.29 306.1q2.39-2.98 5.88-2.98 3.86 0 5.86 2.7 2.02 2.7 2.03 8.06l0 17.92 -7.39 0 0-17.84q0-2.47-0.77-3.58 -0.77-1.11-2.48-1.11 -2.02 0-3.13 1.86l0 20.67 -7.37 0 0-40 7.38 0 0 14.3zm26.79 25.7l-7.41 0 0-28.17 7.41 0 0 28.17zm-7.73-35.47q0-1.72 1.09-2.81 1.09-1.09 2.91-1.09 1.83 0 2.92 1.09 1.09 1.09 1.09 2.81 0 1.7-1.08 2.83 -1.08 1.11-2.94 1.11 -1.84 0-2.92-1.11 -1.08-1.12-1.08-2.83zm25.9 27.92q0-0.94-0.91-1.73 -0.89-0.8-3.98-2.16 -4.56-1.84-6.27-3.81 -1.7-1.98-1.7-4.94 0-3.69 2.66-6.09 2.67-2.41 7.08-2.41 4.64 0 7.42 2.39 2.78 2.39 2.78 6.42l-7.36 0q0-3.44-2.87-3.44 -1.17 0-1.92 0.73 -0.75 0.73-0.75 2.03 0 0.94 0.83 1.66 0.83 0.72 3.94 2.05 4.5 1.66 6.36 3.7 1.86 2.05 1.86 5.3 0 3.78-2.84 6.08 -2.83 2.28-7.44 2.28 -3.09 0-5.47-1.2 -2.37-1.22-3.72-3.37 -1.33-2.16-1.33-4.66l7 0q0.05 1.92 0.89 2.89 0.86 0.95 2.78 0.95 2.97 0 2.97-2.67zm37.94-13.52l-2.45-0.22q-3.02 0-4.09 2.66l0 18.63 -7.39 0 0-28.17 6.95 0 0.2 3.05q1.75-3.56 4.83-3.56 1.25 0 2.03 0.33l-0.08 7.3zm14.65 21.58q-5.67 0-8.86-3.37 -3.17-3.39-3.17-9.69l0-2.25q0-6.66 2.91-10.27 2.92-3.62 8.38-3.62 5.31 0 7.98 3.39 2.69 3.39 2.73 10.06l0 3.63 -14.66 0q0.16 3.13 1.38 4.58 1.23 1.44 3.78 1.44 3.7 0 6.17-2.53l2.89 4.45q-1.36 1.88-3.94 3.03 -2.58 1.16-5.59 1.16zm-4.64-17.28l7.38 0 0-0.69q-0.05-2.52-0.83-3.81 -0.78-1.31-2.72-1.31 -1.92 0-2.8 1.39 -0.87 1.38-1.03 4.42zm32.03 3.59l-12.73 0 0-6.16 12.73 0 0 6.16zm17.5 13.69q-5.67 0-8.86-3.37 -3.17-3.39-3.17-9.69l0-2.25q0-6.66 2.91-10.27 2.92-3.62 8.38-3.62 5.31 0 7.98 3.39 2.69 3.39 2.73 10.06l0 3.63 -14.66 0q0.16 3.13 1.38 4.58 1.23 1.44 3.78 1.44 3.7 0 6.17-2.53l2.89 4.45q-1.36 1.88-3.94 3.03 -2.58 1.16-5.59 1.16zm-4.64-17.28l7.38 0 0-0.69q-0.05-2.52-0.83-3.81 -0.78-1.31-2.72-1.31 -1.92 0-2.8 1.39 -0.87 1.38-1.03 4.42zm26.52 16.77l-7.41 0 0-40 7.41 0 0 40zm17.08 0.52q-5.67 0-8.86-3.37 -3.17-3.39-3.17-9.69l0-2.25q0-6.66 2.91-10.27 2.92-3.62 8.38-3.62 5.31 0 7.98 3.39 2.69 3.39 2.73 10.06l0 3.63 -14.66 0q0.16 3.13 1.38 4.58 1.23 1.44 3.78 1.44 3.7 0 6.17-2.53l2.89 4.45q-1.36 1.88-3.94 3.03 -2.58 1.16-5.59 1.16zm-4.64-17.28l7.38 0 0-0.69q-0.05-2.52-0.83-3.81 -0.78-1.31-2.72-1.31 -1.92 0-2.8 1.39 -0.87 1.38-1.03 4.42zm28.96 11.17q3.2 0 3.27-4.17l6.92 0q-0.05 4.61-2.84 7.45 -2.78 2.83-7.19 2.83 -5.44 0-8.31-3.37 -2.86-3.39-2.91-9.98l0-2.23q0-6.64 2.83-10.12 2.83-3.48 8.34-3.48 4.66 0 7.34 2.88 2.69 2.88 2.73 8.16l-6.92 0q-0.03-2.37-0.8-3.64 -0.75-1.28-2.48-1.28 -1.94 0-2.77 1.38 -0.83 1.36-0.89 5.3l0 2.86q0 3.44 0.34 4.81 0.34 1.36 1.13 2 0.78 0.64 2.2 0.64zm22.92-29.5l0 6.92 3.78 0 0 5.55 -3.78 0 0 13.98q0 1.66 0.45 2.28 0.45 0.63 1.77 0.63 1.06 0 1.73-0.17l-0.05 5.72q-1.87 0.7-4.06 0.7 -7.14 0-7.22-8.17l0-14.97 -3.25 0 0-5.55 3.25 0 0-6.92 7.38 0zm15.55 35.09l-7.41 0 0-28.17 7.41 0 0 28.17zm-7.73-35.47q0-1.72 1.09-2.81 1.09-1.09 2.91-1.09 1.83 0 2.92 1.09 1.09 1.09 1.09 2.81 0 1.7-1.08 2.83 -1.08 1.11-2.94 1.11 -1.84 0-2.92-1.11 -1.08-1.12-1.08-2.83zm12.58 20.47q0-6.41 3.02-10.05 3.02-3.64 8.36-3.64 5.39 0 8.41 3.64 3.03 3.64 3.03 10.09l0 1.8q0 6.44-3 10.06 -3 3.61-8.39 3.61 -5.41 0-8.42-3.62 -3-3.64-3-10.09l0-1.8zm7.39 1.84q0 7.56 4.03 7.56 3.73 0 4.02-6.31l0.03-3.09q0-3.86-1.08-5.72 -1.06-1.86-3.02-1.86 -1.87 0-2.94 1.86 -1.05 1.86-1.05 5.72l0 1.84zm26.74-15.02l0.22 2.78q2.5-3.3 6.53-3.3 7.27 0 7.47 10.17l0 18.52 -7.39 0 0-17.97q0-2.39-0.72-3.47 -0.72-1.09-2.52-1.09 -2 0-3.12 2.06l0 20.47 -7.39 0 0-28.17 6.92 0zm41.98 22.58q3.2 0 3.27-4.17l6.92 0q-0.05 4.61-2.84 7.45 -2.78 2.83-7.19 2.83 -5.44 0-8.31-3.37 -2.86-3.39-2.91-9.98l0-2.23q0-6.64 2.83-10.12 2.83-3.48 8.34-3.48 4.66 0 7.34 2.88 2.69 2.88 2.73 8.16l-6.92 0q-0.03-2.37-0.8-3.64 -0.75-1.28-2.48-1.28 -1.94 0-2.77 1.38 -0.83 1.36-0.89 5.3l0 2.86q0 3.44 0.34 4.81 0.34 1.36 1.13 2 0.78 0.64 2.2 0.64zm27.73 5.59q-0.31-0.66-0.62-2.19 -1.97 2.7-5.36 2.7 -3.55 0-5.87-2.34 -2.33-2.34-2.33-6.06 0-4.42 2.83-6.84 2.83-2.42 8.14-2.48l2.23 0 0-2.27q0-1.89-0.66-2.67 -0.64-0.78-1.89-0.78 -2.77 0-2.77 3.22l-7.37 0q0-3.91 2.92-6.44 2.94-2.53 7.42-2.53 4.64 0 7.17 2.41 2.55 2.41 2.55 6.88l0 13.27q0.05 3.64 1.03 5.7l0 0.44 -7.42 0zm-4.34-5.27q1.22 0 2.08-0.48 0.86-0.5 1.28-1.17l0-5.86 -1.77 0q-1.87 0-2.97 1.2 -1.08 1.19-1.08 3.19 0 3.13 2.45 3.13zm22.99-22.91l0.2 2.59q2.48-3.11 6.55-3.11 4.22 0 5.95 3.8 2.42-3.8 6.91-3.8 7.39 0 7.58 10.22l0 18.47 -7.37 0 0-18q0-2.44-0.69-3.48 -0.67-1.05-2.28-1.05 -2.05 0-3.06 2.53l0.05 0.89 0 19.11 -7.37 0 0-17.94q0-2.42-0.66-3.5 -0.64-1.09-2.31-1.09 -1.89 0-3.02 2.06l0 20.47 -7.37 0 0-28.17 6.91 0zm54.58 14.97q0 6.64-2.28 10.19 -2.28 3.53-6.78 3.53 -3.44 0-5.53-2.78l0 13.09 -7.36 0 0-39 6.81 0 0.27 2.58q2.11-3.09 5.75-3.09 4.52 0 6.78 3.28 2.28 3.27 2.34 10.05l0 2.16zm-7.34-1.84q0-4.09-0.91-5.78 -0.89-1.7-3.03-1.7 -2.27 0-3.31 1.91l0 13.2q1 1.83 3.36 1.83 2.19 0 3.03-1.84 0.86-1.86 0.86-5.77l0-1.84zm25.17 15.05q-0.31-0.66-0.62-2.19 -1.97 2.7-5.36 2.7 -3.55 0-5.87-2.34 -2.33-2.34-2.33-6.06 0-4.42 2.83-6.84 2.83-2.42 8.14-2.48l2.23 0 0-2.27q0-1.89-0.66-2.67 -0.64-0.78-1.89-0.78 -2.77 0-2.77 3.22l-7.37 0q0-3.91 2.92-6.44 2.94-2.53 7.42-2.53 4.64 0 7.17 2.41 2.55 2.41 2.55 6.88l0 13.27q0.05 3.64 1.03 5.7l0 0.44 -7.42 0zm-4.34-5.27q1.22 0 2.08-0.48 0.86-0.5 1.28-1.17l0-5.86 -1.77 0q-1.87 0-2.97 1.2 -1.08 1.19-1.08 3.19 0 3.13 2.45 3.13zm23.8 5.27l-7.41 0 0-28.17 7.41 0 0 28.17zm-7.73-35.47q0-1.72 1.09-2.81 1.09-1.09 2.91-1.09 1.83 0 2.92 1.09 1.09 1.09 1.09 2.81 0 1.7-1.08 2.83 -1.08 1.11-2.94 1.11 -1.84 0-2.92-1.11 -1.08-1.12-1.08-2.83zm12.55 20.52q0-6.92 2.5-10.33 2.5-3.41 7-3.41 3.83 0 5.92 3.02l0.28-2.5 6.64 0 0 28.17q0 5.39-3.03 8.23 -3.02 2.86-8.66 2.86 -2.33 0-4.87-0.92 -2.55-0.92-3.8-2.36l2.47-5.11q1.05 1.09 2.7 1.78 1.67 0.7 3.16 0.7 2.47 0 3.55-1.19 1.09-1.19 1.11-3.81l0-2.42q-2.11 2.75-5.48 2.75 -4.52 0-6.98-3.5 -2.45-3.5-2.5-9.87l0-2.09zm7.38 1.86q0 3.91 1.02 5.69 1.02 1.78 3.22 1.78 2.27 0 3.36-1.64l0-13.47q-1.14-1.8-3.3-1.8 -2.19 0-3.25 1.8 -1.05 1.8-1.05 5.78l0 1.86zm27.07-15.08l0.22 2.78q2.5-3.3 6.53-3.3 7.27 0 7.47 10.17l0 18.52 -7.39 0 0-17.97q0-2.39-0.72-3.47 -0.72-1.09-2.52-1.09 -2 0-3.12 2.06l0 20.47 -7.39 0 0-28.17 6.92 0zm20.11 24.42q0-1.77 1.19-2.91 1.19-1.16 3.08-1.16 1.86 0 3.08 1.14 1.22 1.13 1.22 2.92 0 1.83-1.23 2.94 -1.23 1.09-3.06 1.09 -1.84 0-3.06-1.11 -1.2-1.12-1.2-2.92z" class="b"/><path d="m135.2 440.96l0 6.69 -2.14 0 0-17.06 5.44 0q2.38 0 3.73 1.42 1.36 1.42 1.36 3.8 0 2.45-1.3 3.78 -1.3 1.33-3.64 1.38l-3.45 0zm0-1.83l3.3 0q1.42 0 2.19-0.86 0.77-0.86 0.77-2.45 0-1.53-0.8-2.45 -0.78-0.94-2.14-0.94l-3.31 0 0 6.7zm13.1 8.52l-2.06 0 0-18 2.06 0 0 18zm7.79 0.23q-2.36 0-3.62-1.41 -1.27-1.42-1.3-4.16l0-1.53q0-2.83 1.23-4.44 1.25-1.62 3.45-1.62 2.23 0 3.33 1.42 1.11 1.42 1.13 4.42l0 1.36 -7.08 0 0 0.3q0 2.03 0.77 2.97 0.78 0.92 2.22 0.92 0.91 0 1.61-0.34 0.7-0.36 1.31-1.11l1.08 1.31q-1.36 1.91-4.12 1.91zm-0.23-11.37q-1.28 0-1.91 0.89 -0.62 0.89-0.7 2.75l5 0 0-0.28q-0.09-1.81-0.66-2.58 -0.56-0.78-1.73-0.78zm13.47 11.14q-0.19-0.41-0.27-1.39 -1.11 1.63-2.81 1.63 -1.73 0-2.7-0.97 -0.95-0.97-0.95-2.72 0-1.94 1.31-3.08 1.31-1.14 3.59-1.16l1.52 0 0-1.34q0-1.14-0.5-1.62 -0.5-0.48-1.53-0.48 -0.94 0-1.53 0.56 -0.58 0.56-0.58 1.41l-2.08 0q0-0.97 0.58-1.84 0.58-0.89 1.55-1.39 0.97-0.52 2.17-0.52 1.94 0 2.95 0.97 1.02 0.97 1.03 2.83l0 6.39q0.02 1.47 0.41 2.55l0 0.19 -2.16 0zm-2.77-1.66q0.77 0 1.45-0.42 0.69-0.42 1-1.05l0-3.03 -1.17 0q-1.47 0.03-2.33 0.67 -0.86 0.63-0.86 1.78 0 1.08 0.44 1.56 0.44 0.48 1.47 0.48zm13.9-1.59q0-0.67-0.52-1.14 -0.5-0.48-1.94-1.12 -1.67-0.7-2.36-1.19 -0.69-0.5-1.03-1.12 -0.34-0.62-0.34-1.48 0-1.55 1.13-2.58 1.14-1.03 2.91-1.03 1.84 0 2.97 1.08 1.13 1.08 1.13 2.77l-2.06 0q0-0.84-0.58-1.45 -0.56-0.61-1.45-0.61 -0.92 0-1.45 0.48 -0.52 0.47-0.52 1.27 0 0.64 0.38 1.03 0.39 0.38 1.84 1.02 2.31 0.89 3.14 1.77 0.83 0.86 0.83 2.17 0 1.66-1.14 2.66 -1.12 0.98-3.03 0.98 -1.98 0-3.22-1.14 -1.23-1.14-1.23-2.87l2.09 0q0.03 1.05 0.64 1.66 0.61 0.59 1.72 0.59 1.03 0 1.56-0.47 0.55-0.47 0.55-1.25zm9.29 3.48q-2.36 0-3.62-1.41 -1.27-1.42-1.3-4.16l0-1.53q0-2.83 1.23-4.44 1.25-1.62 3.45-1.62 2.23 0 3.33 1.42 1.11 1.42 1.13 4.42l0 1.36 -7.08 0 0 0.3q0 2.03 0.77 2.97 0.78 0.92 2.22 0.92 0.91 0 1.61-0.34 0.7-0.36 1.31-1.11l1.08 1.31q-1.36 1.91-4.12 1.91zm-0.23-11.37q-1.28 0-1.91 0.89 -0.62 0.89-0.7 2.75l5 0 0-0.28q-0.09-1.81-0.66-2.58 -0.56-0.78-1.73-0.78zm12 4.22q0-2.77 1.34-4.37 1.34-1.62 3.55-1.62 2.2 0 3.55 1.58 1.34 1.56 1.38 4.28l0 1.33q0 2.75-1.34 4.36 -1.33 1.61-3.55 1.61 -2.2 0-3.55-1.56 -1.33-1.56-1.37-4.22l0-1.37zm2.08 1.19q0 1.95 0.77 3.08 0.77 1.13 2.08 1.13 2.73 0 2.81-3.97l0-1.42q0-1.95-0.78-3.08 -0.77-1.14-2.06-1.14 -1.28 0-2.05 1.14 -0.77 1.13-0.77 3.06l0 1.2zm19.59 0q0 2.97-1.06 4.47 -1.06 1.5-3.09 1.5 -2.02 0-3.03-1.73l-0.09 1.5 -1.89 0 0-18 2.06 0 0 6.72q1.02-1.64 2.92-1.64 2.09 0 3.13 1.48 1.05 1.47 1.06 4.45l0 1.25zm-2.06-1.19q0-2.25-0.62-3.2 -0.62-0.95-2.03-0.95 -1.61 0-2.39 1.73l0 6.03q0.77 1.72 2.41 1.72 1.41 0 2.02-0.98 0.61-0.98 0.63-3.06l0-1.28zm10.88 3.67q0-0.67-0.52-1.14 -0.5-0.48-1.94-1.12 -1.67-0.7-2.36-1.19 -0.69-0.5-1.03-1.12 -0.34-0.62-0.34-1.48 0-1.55 1.13-2.58 1.14-1.03 2.91-1.03 1.84 0 2.97 1.08 1.13 1.08 1.13 2.77l-2.06 0q0-0.84-0.58-1.45 -0.56-0.61-1.45-0.61 -0.92 0-1.45 0.48 -0.52 0.47-0.52 1.27 0 0.64 0.38 1.03 0.39 0.38 1.84 1.02 2.31 0.89 3.14 1.77 0.83 0.86 0.83 2.17 0 1.66-1.14 2.66 -1.12 0.98-3.03 0.98 -1.98 0-3.22-1.14 -1.23-1.14-1.23-2.87l2.09 0q0.03 1.05 0.64 1.66 0.61 0.59 1.72 0.59 1.03 0 1.56-0.47 0.55-0.47 0.55-1.25zm9.29 3.48q-2.36 0-3.62-1.41 -1.27-1.42-1.3-4.16l0-1.53q0-2.83 1.23-4.44 1.25-1.62 3.45-1.62 2.23 0 3.33 1.42 1.11 1.42 1.13 4.42l0 1.36 -7.08 0 0 0.3q0 2.03 0.77 2.97 0.78 0.92 2.22 0.92 0.91 0 1.61-0.34 0.7-0.36 1.31-1.11l1.08 1.31q-1.36 1.91-4.12 1.91zm-0.23-11.37q-1.28 0-1.91 0.89 -0.62 0.89-0.7 2.75l5 0 0-0.28q-0.09-1.81-0.66-2.58 -0.56-0.78-1.73-0.78zm12.18 0.41q-0.42-0.08-0.94-0.08 -1.59 0-2.22 1.73l0 9.08 -2.08 0 0-12.69 2.02 0 0.03 1.3q0.84-1.53 2.36-1.53 0.5 0 0.83 0.17l0 2.02zm5.87 7.58l2.41-9.53 2.11 0 -3.77 12.69 -1.55 0 -3.8-12.69 2.11 0 2.48 9.53zm11.05 3.39q-2.36 0-3.62-1.41 -1.27-1.42-1.3-4.16l0-1.53q0-2.83 1.23-4.44 1.25-1.62 3.45-1.62 2.23 0 3.33 1.42 1.11 1.42 1.13 4.42l0 1.36 -7.08 0 0 0.3q0 2.03 0.77 2.97 0.78 0.92 2.22 0.92 0.91 0 1.61-0.34 0.7-0.36 1.31-1.11l1.08 1.31q-1.36 1.91-4.12 1.91zm-0.23-11.37q-1.28 0-1.91 0.89 -0.62 0.89-0.7 2.75l5 0 0-0.28q-0.09-1.81-0.66-2.58 -0.56-0.78-1.73-0.78zm15.91 7.69l2.31-9.23 2.2 0 -4.16 14.48q-0.47 1.63-1.33 2.47 -0.84 0.86-1.94 0.86 -0.42 0-1.08-0.19l0-1.77 0.45 0.05q0.91 0 1.41-0.42 0.52-0.42 0.84-1.48l0.41-1.42 -3.73-12.58 2.27 0 2.34 9.23zm5.91-3.47q0-2.77 1.34-4.37 1.34-1.62 3.55-1.62 2.2 0 3.55 1.58 1.34 1.56 1.38 4.28l0 1.33q0 2.75-1.34 4.36 -1.33 1.61-3.55 1.61 -2.2 0-3.55-1.56 -1.33-1.56-1.37-4.22l0-1.37zm2.08 1.19q0 1.95 0.77 3.08 0.77 1.13 2.08 1.13 2.73 0 2.81-3.97l0-1.42q0-1.95-0.78-3.08 -0.77-1.14-2.06-1.14 -1.28 0-2.05 1.14 -0.77 1.13-0.77 3.06l0 1.2zm16.88 4.63q-1.03 1.34-3.02 1.34 -1.72 0-2.59-1.19 -0.87-1.19-0.89-3.47l0-8.27 2.06 0 0 8.11q0 2.97 1.78 2.97 1.89 0 2.59-1.69l0-9.39 2.08 0 0 12.69 -1.97 0 -0.05-1.11zm10.37-9.62q-0.42-0.08-0.94-0.08 -1.59 0-2.22 1.73l0 9.08 -2.08 0 0-12.69 2.02 0 0.03 1.3q0.84-1.53 2.36-1.53 0.5 0 0.83 0.17l0 2.02zm11.97 9.2q1.03 0 1.66-0.64 0.63-0.64 0.67-1.83l1.97 0q-0.08 1.83-1.31 3.03 -1.22 1.2-2.98 1.2 -2.36 0-3.59-1.48 -1.23-1.48-1.23-4.41l0-1.41q0-2.86 1.23-4.36 1.23-1.5 3.58-1.5 1.95 0 3.09 1.23 1.14 1.23 1.22 3.36l-1.97 0q-0.06-1.41-0.67-2.11 -0.59-0.7-1.67-0.7 -1.37 0-2.05 0.92 -0.67 0.91-0.69 2.97l0 1.63q0 2.23 0.66 3.17 0.67 0.92 2.09 0.92zm8.91 1.53l-2.06 0 0-12.69 2.06 0 0 12.69zm0.17-16.05q0 0.53-0.3 0.89 -0.3 0.34-0.89 0.34 -0.58 0-0.87-0.34 -0.3-0.36-0.3-0.89 0-0.53 0.3-0.89 0.3-0.36 0.88-0.36 0.59 0 0.89 0.38 0.3 0.36 0.3 0.88zm6.68 12.89l2.41-9.53 2.11 0 -3.77 12.69 -1.55 0 -3.8-12.69 2.11 0 2.48 9.53zm8.91 3.16l-2.06 0 0-12.69 2.06 0 0 12.69zm0.17-16.05q0 0.53-0.3 0.89 -0.3 0.34-0.89 0.34 -0.58 0-0.87-0.34 -0.3-0.36-0.3-0.89 0-0.53 0.3-0.89 0.3-0.36 0.88-0.36 0.59 0 0.89 0.38 0.3 0.36 0.3 0.88zm7.5 14.52q1.03 0 1.66-0.64 0.63-0.64 0.67-1.83l1.97 0q-0.08 1.83-1.31 3.03 -1.22 1.2-2.98 1.2 -2.36 0-3.59-1.48 -1.23-1.48-1.23-4.41l0-1.41q0-2.86 1.23-4.36 1.23-1.5 3.58-1.5 1.95 0 3.09 1.23 1.14 1.23 1.22 3.36l-1.97 0q-0.06-1.41-0.67-2.11 -0.59-0.7-1.67-0.7 -1.37 0-2.05 0.92 -0.67 0.91-0.69 2.97l0 1.63q0 2.23 0.66 3.17 0.67 0.92 2.09 0.92zm11.74-5.39q0-2.92 1.09-4.45 1.11-1.55 3.16-1.55 1.81 0 2.83 1.48l0-6.56 2.08 0 0 18 -1.89 0 -0.11-1.36q-1.02 1.59-2.92 1.59 -1.97 0-3.09-1.53 -1.11-1.53-1.14-4.31l0-1.31zm2.08 1.19q0 2.14 0.63 3.14 0.64 1 2.08 1 1.55 0 2.3-1.56l0-6.39q-0.8-1.53-2.3-1.53 -1.42 0-2.06 1 -0.62 1-0.64 3.08l0 1.27zm16.73 4.63q-1.03 1.34-3.02 1.34 -1.72 0-2.59-1.19 -0.87-1.19-0.89-3.47l0-8.27 2.06 0 0 8.11q0 2.97 1.78 2.97 1.89 0 2.59-1.69l0-9.39 2.08 0 0 12.69 -1.97 0 -0.05-1.11zm7.85-14.64l0 3.06 1.91 0 0 1.69 -1.91 0 0 7.86q0 0.75 0.25 1.14 0.25 0.38 0.84 0.38 0.41 0 0.83-0.14l-0.02 1.77q-0.7 0.23-1.45 0.23 -1.22 0-1.87-0.87 -0.64-0.89-0.64-2.48l0-7.87 -1.94 0 0-1.69 1.94 0 0-3.06 2.06 0zm7.84 12.3l2.31-9.23 2.2 0 -4.16 14.48q-0.47 1.63-1.33 2.47 -0.84 0.86-1.94 0.86 -0.42 0-1.08-0.19l0-1.77 0.45 0.05q0.91 0 1.41-0.42 0.52-0.42 0.84-1.48l0.41-1.42 -3.73-12.58 2.27 0 2.34 9.23zm18.55 3.45q-0.19-0.41-0.27-1.39 -1.11 1.63-2.81 1.63 -1.73 0-2.7-0.97 -0.95-0.97-0.95-2.72 0-1.94 1.31-3.08 1.31-1.14 3.59-1.16l1.52 0 0-1.34q0-1.14-0.5-1.62 -0.5-0.48-1.53-0.48 -0.94 0-1.53 0.56 -0.58 0.56-0.58 1.41l-2.08 0q0-0.97 0.58-1.84 0.58-0.89 1.55-1.39 0.97-0.52 2.17-0.52 1.94 0 2.95 0.97 1.02 0.97 1.03 2.83l0 6.39q0.02 1.47 0.41 2.55l0 0.19 -2.16 0zm-2.77-1.66q0.77 0 1.45-0.42 0.69-0.42 1-1.05l0-3.03 -1.17 0q-1.47 0.03-2.33 0.67 -0.86 0.63-0.86 1.78 0 1.08 0.44 1.56 0.44 0.48 1.47 0.48zm9.68-11.03l0.06 1.38q1.2-1.61 3.08-1.61 3.38 0 3.42 4.5l0 8.42 -2.06 0 0-8.33q0-1.5-0.5-2.12 -0.5-0.62-1.5-0.62 -0.77 0-1.39 0.52 -0.61 0.52-0.98 1.34l0 9.22 -2.08 0 0-12.69 1.95 0zm9.22 5.77q0-2.92 1.09-4.45 1.11-1.55 3.16-1.55 1.81 0 2.83 1.48l0-6.56 2.08 0 0 18 -1.89 0 -0.11-1.36q-1.02 1.59-2.92 1.59 -1.97 0-3.09-1.53 -1.11-1.53-1.14-4.31l0-1.31zm2.08 1.19q0 2.14 0.63 3.14 0.64 1 2.08 1 1.55 0 2.3-1.56l0-6.39q-0.8-1.53-2.3-1.53 -1.42 0-2.06 1 -0.62 1-0.64 3.08l0 1.27zm21.93 2.48q0-0.67-0.52-1.14 -0.5-0.48-1.94-1.12 -1.67-0.7-2.36-1.19 -0.69-0.5-1.03-1.12 -0.34-0.62-0.34-1.48 0-1.55 1.13-2.58 1.14-1.03 2.91-1.03 1.84 0 2.97 1.08 1.13 1.08 1.13 2.77l-2.06 0q0-0.84-0.58-1.45 -0.56-0.61-1.45-0.61 -0.92 0-1.45 0.48 -0.52 0.47-0.52 1.27 0 0.64 0.38 1.03 0.39 0.38 1.84 1.02 2.31 0.89 3.14 1.77 0.83 0.86 0.83 2.17 0 1.66-1.14 2.66 -1.12 0.98-3.03 0.98 -1.98 0-3.22-1.14 -1.23-1.14-1.23-2.87l2.09 0q0.03 1.05 0.64 1.66 0.61 0.59 1.72 0.59 1.03 0 1.56-0.47 0.55-0.47 0.55-1.25zm11.23 2.14q-1.03 1.34-3.02 1.34 -1.72 0-2.59-1.19 -0.87-1.19-0.89-3.47l0-8.27 2.06 0 0 8.11q0 2.97 1.78 2.97 1.89 0 2.59-1.69l0-9.39 2.08 0 0 12.69 -1.97 0 -0.05-1.11zm14.32-4.62q0 2.97-1.06 4.47 -1.06 1.5-3.09 1.5 -2.02 0-3.03-1.73l-0.09 1.5 -1.89 0 0-18 2.06 0 0 6.72q1.02-1.64 2.92-1.64 2.09 0 3.13 1.48 1.05 1.47 1.06 4.45l0 1.25zm-2.06-1.19q0-2.25-0.62-3.2 -0.62-0.95-2.03-0.95 -1.61 0-2.39 1.73l0 6.03q0.77 1.72 2.41 1.72 1.41 0 2.02-0.98 0.61-0.98 0.63-3.06l0-1.28zm6.66-5.77l0.05 1.17q1.17-1.41 3.06-1.41 2.13 0 2.97 1.84 1.19-1.84 3.33-1.84 3.5 0 3.58 4.38l0 8.55 -2.06 0 0-8.34q0-1.39-0.5-2.06 -0.48-0.67-1.66-0.67 -0.94 0-1.53 0.73 -0.58 0.72-0.67 1.84l0 8.5 -2.08 0 0-8.44q-0.03-2.64-2.14-2.64 -1.58 0-2.22 1.58l0 9.5 -2.06 0 0-12.69 1.94 0zm18.34 12.69l-2.06 0 0-12.69 2.06 0 0 12.69zm0.17-16.05q0 0.53-0.3 0.89 -0.3 0.34-0.89 0.34 -0.58 0-0.87-0.34 -0.3-0.36-0.3-0.89 0-0.53 0.3-0.89 0.3-0.36 0.88-0.36 0.59 0 0.89 0.38 0.3 0.36 0.3 0.88zm5.81 0.3l0 3.06 1.91 0 0 1.69 -1.91 0 0 7.86q0 0.75 0.25 1.14 0.25 0.38 0.84 0.38 0.41 0 0.83-0.14l-0.02 1.77q-0.7 0.23-1.45 0.23 -1.22 0-1.87-0.87 -0.64-0.89-0.64-2.48l0-7.87 -1.94 0 0-1.69 1.94 0 0-3.06 2.06 0zm13.34 12.3l2.31-9.23 2.2 0 -4.16 14.48q-0.47 1.63-1.33 2.47 -0.84 0.86-1.94 0.86 -0.42 0-1.08-0.19l0-1.77 0.45 0.05q0.91 0 1.41-0.42 0.52-0.42 0.84-1.48l0.41-1.42 -3.73-12.58 2.27 0 2.34 9.23zm5.91-3.47q0-2.77 1.34-4.37 1.34-1.62 3.55-1.62 2.2 0 3.55 1.58 1.34 1.56 1.38 4.28l0 1.33q0 2.75-1.34 4.36 -1.33 1.61-3.55 1.61 -2.2 0-3.55-1.56 -1.33-1.56-1.37-4.22l0-1.37zm2.08 1.19q0 1.95 0.77 3.08 0.77 1.13 2.08 1.13 2.73 0 2.81-3.97l0-1.42q0-1.95-0.78-3.08 -0.77-1.14-2.06-1.14 -1.28 0-2.05 1.14 -0.77 1.13-0.77 3.06l0 1.2zm16.88 4.63q-1.03 1.34-3.02 1.34 -1.72 0-2.59-1.19 -0.87-1.19-0.89-3.47l0-8.27 2.06 0 0 8.11q0 2.97 1.78 2.97 1.89 0 2.59-1.69l0-9.39 2.08 0 0 12.69 -1.97 0 -0.05-1.11zm10.37-9.62q-0.42-0.08-0.94-0.08 -1.59 0-2.22 1.73l0 9.08 -2.08 0 0-12.69 2.02 0 0.03 1.3q0.84-1.53 2.36-1.53 0.5 0 0.83 0.17l0 2.02zm16.75 5q0 2.97-1.06 4.47 -1.06 1.5-3.09 1.5 -2.02 0-3.03-1.73l-0.09 1.5 -1.89 0 0-18 2.06 0 0 6.72q1.02-1.64 2.92-1.64 2.09 0 3.13 1.48 1.05 1.47 1.06 4.45l0 1.25zm-2.06-1.19q0-2.25-0.62-3.2 -0.62-0.95-2.03-0.95 -1.61 0-2.39 1.73l0 6.03q0.77 1.72 2.41 1.72 1.41 0 2.02-0.98 0.61-0.98 0.63-3.06l0-1.28zm11.24 6.92q-0.19-0.41-0.27-1.39 -1.11 1.63-2.81 1.63 -1.73 0-2.7-0.97 -0.95-0.97-0.95-2.72 0-1.94 1.31-3.08 1.31-1.14 3.59-1.16l1.52 0 0-1.34q0-1.14-0.5-1.62 -0.5-0.48-1.53-0.48 -0.94 0-1.53 0.56 -0.58 0.56-0.58 1.41l-2.08 0q0-0.97 0.58-1.84 0.58-0.89 1.55-1.39 0.97-0.52 2.17-0.52 1.94 0 2.95 0.97 1.02 0.97 1.03 2.83l0 6.39q0.02 1.47 0.41 2.55l0 0.19 -2.16 0zm-2.77-1.66q0.77 0 1.45-0.42 0.69-0.42 1-1.05l0-3.03 -1.17 0q-1.47 0.03-2.33 0.67 -0.86 0.63-0.86 1.78 0 1.08 0.44 1.56 0.44 0.48 1.47 0.48zm9.96 1.66l-2.06 0 0-18 2.06 0 0 18zm5.5 0l-2.06 0 0-18 2.06 0 0 18zm2.82-6.92q0-2.77 1.34-4.37 1.34-1.62 3.55-1.62 2.2 0 3.55 1.58 1.34 1.56 1.38 4.28l0 1.33q0 2.75-1.34 4.36 -1.33 1.61-3.55 1.61 -2.2 0-3.55-1.56 -1.33-1.56-1.37-4.22l0-1.37zm2.08 1.19q0 1.95 0.77 3.08 0.77 1.13 2.08 1.13 2.73 0 2.81-3.97l0-1.42q0-1.95-0.78-3.08 -0.77-1.14-2.06-1.14 -1.28 0-2.05 1.14 -0.77 1.13-0.77 3.06l0 1.2zm13.13-10.02l0 3.06 1.91 0 0 1.69 -1.91 0 0 7.86q0 0.75 0.25 1.14 0.25 0.38 0.84 0.38 0.41 0 0.83-0.14l-0.02 1.77q-0.7 0.23-1.45 0.23 -1.22 0-1.87-0.87 -0.64-0.89-0.64-2.48l0-7.87 -1.94 0 0-1.69 1.94 0 0-3.06 2.06 0zm10.79 15.75l0-11 -1.66 0 0-1.69 1.66 0 0-1.45q0.03-1.94 0.97-3.02 0.95-1.09 2.67-1.09 0.63 0 1.25 0.2l-0.11 1.75q-0.44-0.09-0.94-0.09 -1.78 0-1.78 2.52l0 1.19 2.17 0 0 1.69 -2.17 0 0 11 -2.06 0zm6.23-6.92q0-2.77 1.34-4.37 1.34-1.62 3.55-1.62 2.2 0 3.55 1.58 1.34 1.56 1.38 4.28l0 1.33q0 2.75-1.34 4.36 -1.33 1.61-3.55 1.61 -2.2 0-3.55-1.56 -1.33-1.56-1.37-4.22l0-1.37zm2.08 1.19q0 1.95 0.77 3.08 0.77 1.13 2.08 1.13 2.73 0 2.81-3.97l0-1.42q0-1.95-0.78-3.08 -0.77-1.14-2.06-1.14 -1.28 0-2.05 1.14 -0.77 1.13-0.77 3.06l0 1.2zm15.64-5q-0.42-0.08-0.94-0.08 -1.59 0-2.22 1.73l0 9.08 -2.08 0 0-12.69 2.02 0 0.03 1.3q0.84-1.53 2.36-1.53 0.5 0 0.83 0.17l0 2.02zm18.53 8.61l-0.37 0.47q-1.61 1.89-4.73 1.89 -2.77 0-4.34-1.83 -1.58-1.84-1.61-5.19l0-3.36q0-3.58 1.44-5.36 1.44-1.8 4.3-1.8 2.44 0 3.81 1.36 1.38 1.36 1.52 3.88l-2.14 0q-0.12-1.59-0.89-2.48 -0.75-0.91-2.28-0.91 -1.84 0-2.7 1.2 -0.86 1.2-0.89 3.84l0 3.48q0 2.58 0.98 3.95 0.98 1.38 2.83 1.38 1.73 0 2.64-0.84l0.31-0.3 0-3.94 -3.12 0 0-1.83 5.27 0 0 6.38zm9.74 2.13q-0.19-0.41-0.27-1.39 -1.11 1.63-2.81 1.63 -1.73 0-2.7-0.97 -0.95-0.97-0.95-2.72 0-1.94 1.31-3.08 1.31-1.14 3.59-1.16l1.52 0 0-1.34q0-1.14-0.5-1.62 -0.5-0.48-1.53-0.48 -0.94 0-1.53 0.56 -0.58 0.56-0.58 1.41l-2.08 0q0-0.97 0.58-1.84 0.58-0.89 1.55-1.39 0.97-0.52 2.17-0.52 1.94 0 2.95 0.97 1.02 0.97 1.03 2.83l0 6.39q0.02 1.47 0.41 2.55l0 0.19 -2.16 0zm-2.77-1.66q0.77 0 1.45-0.42 0.69-0.42 1-1.05l0-3.03 -1.17 0q-1.47 0.03-2.33 0.67 -0.86 0.63-0.86 1.78 0 1.08 0.44 1.56 0.44 0.48 1.47 0.48zm9.96 1.66l-2.06 0 0-18 2.06 0 0 18zm9.79 0q-0.19-0.41-0.27-1.39 -1.11 1.63-2.81 1.63 -1.73 0-2.7-0.97 -0.95-0.97-0.95-2.72 0-1.94 1.31-3.08 1.31-1.14 3.59-1.16l1.52 0 0-1.34q0-1.14-0.5-1.62 -0.5-0.48-1.53-0.48 -0.94 0-1.53 0.56 -0.58 0.56-0.58 1.41l-2.08 0q0-0.97 0.58-1.84 0.58-0.89 1.55-1.39 0.97-0.52 2.17-0.52 1.94 0 2.95 0.97 1.02 0.97 1.03 2.83l0 6.39q0.02 1.47 0.41 2.55l0 0.19 -2.16 0zm-2.77-1.66q0.77 0 1.45-0.42 0.69-0.42 1-1.05l0-3.03 -1.17 0q-1.47 0.03-2.33 0.67 -0.86 0.63-0.86 1.78 0 1.08 0.44 1.56 0.44 0.48 1.47 0.48zm12.14 0.13q1.03 0 1.66-0.64 0.63-0.64 0.67-1.83l1.97 0q-0.08 1.83-1.31 3.03 -1.22 1.2-2.98 1.2 -2.36 0-3.59-1.48 -1.23-1.48-1.23-4.41l0-1.41q0-2.86 1.23-4.36 1.23-1.5 3.58-1.5 1.95 0 3.09 1.23 1.14 1.23 1.22 3.36l-1.97 0q-0.06-1.41-0.67-2.11 -0.59-0.7-1.67-0.7 -1.37 0-2.05 0.92 -0.67 0.91-0.69 2.97l0 1.63q0 2.23 0.66 3.17 0.67 0.92 2.09 0.92zm9.4-14.22l0 3.06 1.91 0 0 1.69 -1.91 0 0 7.86q0 0.75 0.25 1.14 0.25 0.38 0.84 0.38 0.41 0 0.83-0.14l-0.02 1.77q-0.7 0.23-1.45 0.23 -1.22 0-1.87-0.87 -0.64-0.89-0.64-2.48l0-7.87 -1.94 0 0-1.69 1.94 0 0-3.06 2.06 0zm6.61 15.75l-2.06 0 0-12.69 2.06 0 0 12.69zm0.17-16.05q0 0.53-0.3 0.89 -0.3 0.34-0.89 0.34 -0.58 0-0.87-0.34 -0.3-0.36-0.3-0.89 0-0.53 0.3-0.89 0.3-0.36 0.88-0.36 0.59 0 0.89 0.38 0.3 0.36 0.3 0.88zm7.5 14.52q1.03 0 1.66-0.64 0.63-0.64 0.67-1.83l1.97 0q-0.08 1.83-1.31 3.03 -1.22 1.2-2.98 1.2 -2.36 0-3.59-1.48 -1.23-1.48-1.23-4.41l0-1.41q0-2.86 1.23-4.36 1.23-1.5 3.58-1.5 1.95 0 3.09 1.23 1.14 1.23 1.22 3.36l-1.97 0q-0.06-1.41-0.67-2.11 -0.59-0.7-1.67-0.7 -1.37 0-2.05 0.92 -0.67 0.91-0.69 2.97l0 1.63q0 2.23 0.66 3.17 0.67 0.92 2.09 0.92zm17.63-5.37l-3 0 0 6.91 -2.16 0 0-17.06 4.78 0q2.5 0 3.78 1.31 1.3 1.3 1.3 3.81 0 1.59-0.7 2.77 -0.69 1.17-1.97 1.78l3.31 7.25 0 0.14 -2.31 0 -3.03-6.91zm-3-1.84l2.59 0q1.36 0 2.16-0.86 0.8-0.87 0.8-2.33 0-3.28-2.97-3.28l-2.58 0 0 6.47zm14.82 8.98q-2.36 0-3.62-1.41 -1.27-1.42-1.3-4.16l0-1.53q0-2.83 1.23-4.44 1.25-1.62 3.45-1.62 2.23 0 3.33 1.42 1.11 1.42 1.13 4.42l0 1.36 -7.08 0 0 0.3q0 2.03 0.77 2.97 0.78 0.92 2.22 0.92 0.91 0 1.61-0.34 0.7-0.36 1.31-1.11l1.08 1.31q-1.36 1.91-4.12 1.91zm-0.23-11.37q-1.28 0-1.91 0.89 -0.62 0.89-0.7 2.75l5 0 0-0.28q-0.09-1.81-0.66-2.58 -0.56-0.78-1.73-0.78zm16.11 5.41q0 3.02-1.09 4.5 -1.08 1.47-3.06 1.47 -1.91 0-2.94-1.44l0 6.08 -2.06 0 0-17.56 1.88 0 0.11 1.41q1.03-1.64 2.98-1.64 2.08 0 3.11 1.45 1.03 1.45 1.08 4.36l0 1.38zm-2.06-1.19q0-2.12-0.66-3.14 -0.66-1.02-2.11-1.02 -1.5 0-2.27 1.48l0 6.61q0.77 1.45 2.28 1.45 1.41 0 2.06-1.02 0.67-1.02 0.69-3.11l0-1.27zm9.96-3.81q-0.42-0.08-0.94-0.08 -1.59 0-2.22 1.73l0 9.08 -2.08 0 0-12.69 2.02 0 0.03 1.3q0.84-1.53 2.36-1.53 0.5 0 0.83 0.17l0 2.02zm6.38 10.97q-2.36 0-3.62-1.41 -1.27-1.42-1.3-4.16l0-1.53q0-2.83 1.23-4.44 1.25-1.62 3.45-1.62 2.23 0 3.33 1.42 1.11 1.42 1.13 4.42l0 1.36 -7.08 0 0 0.3q0 2.03 0.77 2.97 0.78 0.92 2.22 0.92 0.91 0 1.61-0.34 0.7-0.36 1.31-1.11l1.08 1.31q-1.36 1.91-4.12 1.91zm-0.23-11.37q-1.28 0-1.91 0.89 -0.62 0.89-0.7 2.75l5 0 0-0.28q-0.09-1.81-0.66-2.58 -0.56-0.78-1.73-0.78zm13.11 7.89q0-0.67-0.52-1.14 -0.5-0.48-1.94-1.12 -1.67-0.7-2.36-1.19 -0.69-0.5-1.03-1.12 -0.34-0.62-0.34-1.48 0-1.55 1.13-2.58 1.14-1.03 2.91-1.03 1.84 0 2.97 1.08 1.13 1.08 1.13 2.77l-2.06 0q0-0.84-0.58-1.45 -0.56-0.61-1.45-0.61 -0.92 0-1.45 0.48 -0.52 0.47-0.52 1.27 0 0.64 0.38 1.03 0.39 0.38 1.84 1.02 2.31 0.89 3.14 1.77 0.83 0.86 0.83 2.17 0 1.66-1.14 2.66 -1.12 0.98-3.03 0.98 -1.98 0-3.22-1.14 -1.23-1.14-1.23-2.87l2.09 0q0.03 1.05 0.64 1.66 0.61 0.59 1.72 0.59 1.03 0 1.56-0.47 0.55-0.47 0.55-1.25zm9.29 3.48q-2.36 0-3.62-1.41 -1.27-1.42-1.3-4.16l0-1.53q0-2.83 1.23-4.44 1.25-1.62 3.45-1.62 2.23 0 3.33 1.42 1.11 1.42 1.13 4.42l0 1.36 -7.08 0 0 0.3q0 2.03 0.77 2.97 0.78 0.92 2.22 0.92 0.91 0 1.61-0.34 0.7-0.36 1.31-1.11l1.08 1.31q-1.36 1.91-4.12 1.91zm-0.23-11.37q-1.28 0-1.91 0.89 -0.62 0.89-0.7 2.75l5 0 0-0.28q-0.09-1.81-0.66-2.58 -0.56-0.78-1.73-0.78zm8.89-1.55l0.06 1.38q1.2-1.61 3.08-1.61 3.38 0 3.42 4.5l0 8.42 -2.06 0 0-8.33q0-1.5-0.5-2.12 -0.5-0.62-1.5-0.62 -0.77 0-1.39 0.52 -0.61 0.52-0.98 1.34l0 9.22 -2.08 0 0-12.69 1.95 0zm12.38-3.06l0 3.06 1.91 0 0 1.69 -1.91 0 0 7.86q0 0.75 0.25 1.14 0.25 0.38 0.84 0.38 0.41 0 0.83-0.14l-0.02 1.77q-0.7 0.23-1.45 0.23 -1.22 0-1.87-0.87 -0.64-0.89-0.64-2.48l0-7.87 -1.94 0 0-1.69 1.94 0 0-3.06 2.06 0zm10.9 15.75q-0.19-0.41-0.27-1.39 -1.11 1.63-2.81 1.63 -1.73 0-2.7-0.97 -0.95-0.97-0.95-2.72 0-1.94 1.31-3.08 1.31-1.14 3.59-1.16l1.52 0 0-1.34q0-1.14-0.5-1.62 -0.5-0.48-1.53-0.48 -0.94 0-1.53 0.56 -0.58 0.56-0.58 1.41l-2.08 0q0-0.97 0.58-1.84 0.58-0.89 1.55-1.39 0.97-0.52 2.17-0.52 1.94 0 2.95 0.97 1.02 0.97 1.03 2.83l0 6.39q0.02 1.47 0.41 2.55l0 0.19 -2.16 0zm-2.77-1.66q0.77 0 1.45-0.42 0.69-0.42 1-1.05l0-3.03 -1.17 0q-1.47 0.03-2.33 0.67 -0.86 0.63-0.86 1.78 0 1.08 0.44 1.56 0.44 0.48 1.47 0.48zm10.45-14.09l0 3.06 1.91 0 0 1.69 -1.91 0 0 7.86q0 0.75 0.25 1.14 0.25 0.38 0.84 0.38 0.41 0 0.83-0.14l-0.02 1.77q-0.7 0.23-1.45 0.23 -1.22 0-1.87-0.87 -0.64-0.89-0.64-2.48l0-7.87 -1.94 0 0-1.69 1.94 0 0-3.06 2.06 0zm6.61 15.75l-2.06 0 0-12.69 2.06 0 0 12.69zm0.17-16.05q0 0.53-0.3 0.89 -0.3 0.34-0.89 0.34 -0.58 0-0.87-0.34 -0.3-0.36-0.3-0.89 0-0.53 0.3-0.89 0.3-0.36 0.88-0.36 0.59 0 0.89 0.38 0.3 0.36 0.3 0.88zm6.68 12.89l2.41-9.53 2.11 0 -3.77 12.69 -1.55 0 -3.8-12.69 2.11 0 2.48 9.53zm11.05 3.39q-2.36 0-3.62-1.41 -1.27-1.42-1.3-4.16l0-1.53q0-2.83 1.23-4.44 1.25-1.62 3.45-1.62 2.23 0 3.33 1.42 1.11 1.42 1.13 4.42l0 1.36 -7.08 0 0 0.3q0 2.03 0.77 2.97 0.78 0.92 2.22 0.92 0.91 0 1.61-0.34 0.7-0.36 1.31-1.11l1.08 1.31q-1.36 1.91-4.12 1.91zm-0.23-11.37q-1.28 0-1.91 0.89 -0.62 0.89-0.7 2.75l5 0 0-0.28q-0.09-1.81-0.66-2.58 -0.56-0.78-1.73-0.78zm7.08 10q0-0.56 0.33-0.94 0.34-0.37 1-0.37 0.67 0 1.02 0.38 0.36 0.38 0.36 0.94 0 0.55-0.36 0.91 -0.34 0.36-1.02 0.36 -0.66 0-1-0.36 -0.33-0.36-0.33-0.91z" class="b"/><path d="m89.76 17.05l822.24 0 0 90.02 -822.24 0z" class="a"/><path d="m115.21 42.44l5.81 0 0 34.44q0 5.63-6.02 5.63l-7.09 0q-6.02 0-6.02-5.62l0-34.44 5.81 0 0 33.53q0 1.16 0.39 1.52 0.39 0.34 1.53 0.34l3.66 0q1.22 0 1.56-0.34 0.36-0.36 0.36-1.52l0-33.53zm21.5 8.83l2.23 0q5.83 0 5.83 5.7l0 19.91q0 5.63-5.83 5.63l-2.23 0q-3.14 0-3.97-2.5l0 11.33 -5.77 0 0-40.06 5.77 0 0 2.5q0.83-2.5 3.97-2.5zm2.3 24.7l0-18.17q0-1.16-0.39-1.5 -0.37-0.36-1.53-0.36l-2.23 0q-1.16 0-1.64 0.52 -0.47 0.52-0.47 1.73l0 17.41q0 1.2 0.47 1.72 0.48 0.52 1.64 0.52l2.23 0q1.16 0 1.53-0.34 0.39-0.36 0.39-1.52zm28.68-14.84l-5.7 0 0-3.33q0-1.16-0.39-1.5 -0.37-0.36-1.53-0.36l-2.75 0q-1.16 0-1.55 0.36 -0.37 0.34-0.37 1.5l0 18.17q0 1.16 0.38 1.52 0.39 0.34 1.55 0.34l2.75 0q1.16 0 1.53-0.34 0.39-0.36 0.39-1.52l0-3.33 5.7 0 0 4.23q0 5.63-6.02 5.63l-6.08 0q-5.95 0-5.95-5.62l0-19.91q0-5.7 5.95-5.7l6.08 0q6.02 0 6.02 5.7l0 4.16zm10.37-9.86l6.84 0q5.95 0 5.95 5.7l0 19.91q0 5.63-5.95 5.63l-6.84 0q-5.89 0-5.89-5.62l0-19.91q0-5.7 5.89-5.7zm7.09 24.77l0-18.3q0-1.16-0.39-1.53 -0.37-0.39-1.53-0.39l-3.52 0q-1.16 0-1.52 0.39 -0.34 0.38-0.34 1.53l0 18.3q0 1.16 0.34 1.55 0.36 0.38 1.52 0.38l3.52 0q1.16 0 1.53-0.37 0.39-0.39 0.39-1.55zm32.77-24.77l2.23 0q5.77 0 5.77 5.7l0 25.53 -5.77 0 0-24.7q0-1.16-0.36-1.5 -0.34-0.36-1.5-0.36l-2.3 0q-2.05 0-2.05 2.25l0 24.31 -5.77 0 0-24.7q0-1.16-0.39-1.5 -0.37-0.36-1.53-0.36l-2.23 0q-1.16 0-1.64 0.52 -0.47 0.52-0.47 1.73l0 24.31 -5.77 0 0-31.23 5.77 0 0 2.5q0.83-2.5 3.97-2.5l2.23 0q4.09 0 5.31 2.88 0.77-2.87 4.48-2.87zm13.18-5.95l0-5.69 6.02 0 0 5.69 -6.02 0zm5.89 37.19l-5.77 0 0-31.23 5.77 0 0 31.23zm15.36-31.23l2.23 0q5.83 0 5.83 5.7l0 25.53 -5.77 0 0-24.7q0-1.16-0.39-1.5 -0.37-0.36-1.53-0.36l-2.23 0q-1.16 0-1.64 0.52 -0.47 0.52-0.47 1.73l0 24.31 -5.77 0 0-31.23 5.77 0 0 2.5q0.83-2.5 3.97-2.5zm25.28 0l5.75 0 0 34.44q0 5.63-6.02 5.63l-10.69 0 0-4.55 9.03 0q1.16 0 1.53-0.39 0.39-0.37 0.39-1.45l0-5.31q-0.84 2.48-3.97 2.48l-2.31 0q-5.75 0-5.75-5.69l0-19.45q0-5.7 5.75-5.7l2.31 0q3.13 0 3.97 2.5l0-2.5zm-4.36 26.17l2.25 0q1.14 0 1.63-0.5 0.48-0.52 0.48-1.73l0-17.02q0-1.22-0.48-1.73 -0.48-0.52-1.62-0.52l-2.25 0q-1.16 0-1.55 0.36 -0.37 0.34-0.37 1.5l0 17.8q0 1.08 0.38 1.47 0.39 0.38 1.55 0.38zm37.05-1.47l0-9.78q0-1.16-0.36-1.5 -0.34-0.36-1.5-0.36l-4.73 0q-5.81 0-5.81-5.7l0-10.56q0-5.62 5.95-5.62l6.27 0q5.95 0 5.95 5.63l0 5.89 -5.83 0 0-4.98q0-1.16-0.39-1.5 -0.37-0.36-1.53-0.36l-2.69 0q-1.14 0-1.53 0.36 -0.39 0.34-0.39 1.5l0 8.89q0 1.16 0.39 1.52 0.39 0.34 1.53 0.34l4.67 0q5.89 0 5.89 5.62l0 11.53q0 5.63-6.02 5.63l-6.2 0q-5.95 0-5.95-5.62l0-5.89 5.83 0 0 4.98q0 1.16 0.38 1.52 0.39 0.34 1.53 0.34l2.69 0q1.16 0 1.5-0.34 0.36-0.36 0.36-1.52zm27.78-33.53l0 4.67 -6.72 0 0 35.39 -5.75 0 0-35.39 -6.73 0 0-4.67 19.2 0zm18.37 40.06l-1.59-9.28 -8.45 0 -1.47 9.28 -5.77 0 7.11-40.06 8.38 0 7.63 40.06 -5.83 0zm-9.34-13.95l6.98 0 -3.66-21.12 -3.33 21.12zm25.03-2.23l0 16.19 -5.77 0 0-40.06 13.13 0q5.95 0 5.95 5.63l0 12.55q0 4.86-4.3 5.58l6.34 16.31 -6.22 0 -6.02-16.19 -3.12 0zm0-19.2l0 14.59 5.63 0q1.16 0 1.53-0.34 0.39-0.36 0.39-1.52l0-10.87q0-1.16-0.39-1.5 -0.37-0.36-1.53-0.36l-5.62 0zm35.77-4.67l0 4.67 -6.72 0 0 35.39 -5.75 0 0-35.39 -6.73 0 0-4.67 19.2 0zm18.76 35.39l11.58 0 0 4.67 -17.41 0 0-40.06 16.95 0 0 4.67 -11.12 0 0 12.34 9.22 0 0 4.67 -9.22 0 0 13.7zm18.81-26.56l4.09 26.37 4.16-26.37 5.77 0 -5.77 31.23 -8.25 0 -5.77-31.23 5.77 0zm22.91 0l6.27 0q6.02 0 6.02 5.7l0 11.7 -12.61 0 0 7.42q0 1.09 0.39 1.48 0.39 0.38 1.53 0.38l2.95 0q1.16 0 1.53-0.37 0.39-0.39 0.39-1.55l0-2.56 5.63 0 0 3.41q0 5.63-5.95 5.63l-6.14 0q-5.95 0-5.95-5.62l0-19.91q0-5.7 5.95-5.7zm-0.33 13.19l6.92 0 0-6.78q0-1.09-0.36-1.47 -0.34-0.39-1.5-0.39l-3.14 0q-1.14 0-1.53 0.39 -0.39 0.38-0.39 1.47l0 6.78zm27.27-13.19l2.23 0q5.83 0 5.83 5.7l0 25.53 -5.77 0 0-24.7q0-1.16-0.39-1.5 -0.37-0.36-1.53-0.36l-2.23 0q-1.16 0-1.64 0.52 -0.47 0.52-0.47 1.73l0 24.31 -5.77 0 0-31.23 5.77 0 0 2.5q0.83-2.5 3.97-2.5zm24.19 4.67l-4.28 0 0 19.78q0 1.16 0.34 1.52 0.36 0.34 1.5 0.34l2.44 0 0 4.92 -4.09 0q-6.02 0-6.02-5.62l0-20.94 -2.95 0 0-4.67 2.95 0 0-5.31 5.83 0 0 5.31 4.28 0 0 4.67zm13.89 20.3l0-5.19q0-1.16-0.39-1.5 -0.37-0.36-1.53-0.36l-3.27 0q-5.95 0-5.95-5.62l0-6.59q0-5.7 5.95-5.7l4.67 0q6.02 0 6.02 5.7l0 3 -5.62 0 0-2.42q0-1.16-0.39-1.5 -0.37-0.36-1.53-0.36l-1.55 0q-1.14 0-1.53 0.36 -0.37 0.34-0.37 1.5l0 5.38q0 1.14 0.38 1.5 0.39 0.34 1.53 0.34l3.33 0q5.89 0 5.89 5.7l0 6.41q0 5.63-5.95 5.63l-4.73 0q-5.95 0-5.95-5.62l0-3.08 5.64 0 0 2.44q0 1.14 0.38 1.5 0.39 0.34 1.55 0.34l1.53 0q1.16 0 1.53-0.34 0.39-0.36 0.39-1.5z" fill="#ff7500"/></g></svg>