<svg xmlns="http://www.w3.org/2000/svg" viewBox="0 0 960 540" class="a"><style>.a{fill:none;}.b{fill:#bf8ac9;}.c{fill:#e3bc6d;}.d{fill:#f00;}.e{fill:#fff;}</style><path fill="#000000" d="m0 0l960.0 0l0 540.0l-960.0 0z" fill-rule="evenodd"/><clipPath><path d="m0 0l960 0 0 540 -960 0 0-540z"/></clipPath><g clip-path="url(#g18d14ebf02_0_25.0)"><path d="m0 0l960 0 0 540 -960 0z"/><path d="m253.33 0l255.34 0 0 16.38 -255.34 0z" class="b"/><path d="m515.67 0l206.33 0 0 16.38 -206.33 0z" class="c"/><path d="m729 0l230.99 0 0 16.38 -230.99 0z" fill="#a14141"/><path d="m0 0l246.33 0 0 16.38 -246.33 0z" class="c"/><path d="m0 523.62l255.34 0 0 16.38 -255.34 0z" class="b"/><path d="m262.33 523.62l206.33 0 0 16.38 -206.33 0z" fill="#e06163"/><path d="m473.83 523.62l486.17 0 0 16.38 -486.17 0z" class="b"/><path d="m10.29 23.39l942.24 0 0 491.21 -942.24 0z" class="a"/><path d="m6.55 23.39l942.24 0 0 491.21 -942.24 0z" class="a"/><path d="m329.07 32.55l297.2 0 0 114.64 -297.2 0 0-114.64z" class="a"/><path d="m381.3 57.83l13.84 0 -10.87 51.36 -16.08 0 -5.69-30.64 -5.67 30.64 -16.08 0 -10.89-51.36 14.56 0 4.33 34.56 6.88-34.56 13.67 0 6.89 34.56 5.11-34.56zm44 51.36l-1.59-7.69 -12.33 0 -1.67 7.69 -13.77 0 13.2-51.36 17.03 0 13.2 51.36 -14.08 0zm-11.77-17.59l8 0 -3.91-18.48 -4.09 18.48zm43.05-0.64l0 18.23 -14 0 0-51.36 23.75 0q11.77 0 11.77 9.92l0 13.28q0 7.59-6.87 9.36l9.44 18.8 -15.05 0 -8.16-18.23 -0.87 0zm5.52-23.12l-5.52 0 0 13.59 5.52 0q2 0 2-1.75l0-10.08q0-1.77-2-1.77zm45.04-10l12.8 0 0 51.36 -12 0 -11.44-26.95 0 26.95 -12.8 0 0-51.36 12 0 11.44 27.44 0-27.44zm19.2 0l14 0 0 51.36 -14 0 0-51.36zm43.84 0l12.8 0 0 51.36 -12 0 -11.44-26.95 0 26.95 -12.8 0 0-51.36 12 0 11.44 27.44 0-27.44zm53.69 17.59l-14 0 0-6.64q0-1.75-2-1.75l-2.89 0q-2 0-2 1.75l0 29.45q0 1.75 2 1.75l2.89 0q2 0 2-1.75l0-8.56 -4 0 0-8.89 18 0 0 18.48q0 9.92-11.77 9.92l-11.36 0q-11.77 0-11.77-9.92l0-31.52q0-9.92 11.77-9.92l11.36 0q11.77 0 11.77 9.92l0 7.67z" class="d"/><path d="m626.27 32.55l0 0 0 114.64 0 0 0-114.64z" class="a"/><path d="m329.07 114.39l297.2 0 0 7.2 -297.2 0 0-7.2z" class="d"/><path d="m188.44 181.85q0-2.56-1.39-3.92 -1.37-1.36-4.98-2.64 -3.61-1.3-5.53-2.7 -1.91-1.42-2.86-3.23 -0.94-1.83-0.94-4.17 0-4.05 2.7-6.67 2.7-2.62 7.09-2.62 3 0 5.34 1.34 2.34 1.34 3.61 3.73 1.27 2.39 1.27 5.25l-4.31 0q0-3.16-1.53-4.89 -1.52-1.73-4.37-1.73 -2.61 0-4.05 1.45 -1.42 1.45-1.42 4.08 0 2.16 1.55 3.61 1.55 1.45 4.78 2.59 5.05 1.67 7.2 4.11 2.17 2.44 2.17 6.38 0 4.14-2.7 6.64 -2.69 2.5-7.33 2.5 -2.97 0-5.5-1.3 -2.52-1.31-3.95-3.66 -1.44-2.36-1.44-5.41l4.31 0q0 3.16 1.77 4.92 1.77 1.75 4.81 1.75 2.84 0 4.27-1.45 1.44-1.45 1.44-3.95zm14.8-22.87l0 6.14 3.83 0 0 3.34 -3.83 0 0 15.73q0 1.5 0.48 2.28 0.5 0.77 1.7 0.77 0.81 0 1.66-0.28l-0.05 3.52q-1.41 0.47-2.87 0.47 -2.47 0-3.77-1.75 -1.28-1.77-1.28-4.98l0-15.75 -3.86 0 0-3.34 3.86 0 0-6.14 4.13 0zm21.8 31.5q-0.37-0.83-0.55-2.77 -2.2 3.23-5.62 3.23 -3.44 0-5.37-1.94 -1.94-1.94-1.94-5.45 0-3.86 2.63-6.12 2.63-2.28 7.2-2.33l3.05 0 0-2.7q0-2.27-1.02-3.22 -1-0.97-3.06-0.97 -1.87 0-3.05 1.11 -1.17 1.11-1.17 2.83l-4.16 0q0-1.95 1.14-3.72 1.16-1.77 3.09-2.77 1.95-1.02 4.34-1.02 3.89 0 5.92 1.94 2.03 1.92 2.08 5.63l0 12.8q0.02 2.94 0.8 5.09l0 0.38 -4.31 0zm-5.53-3.31q1.52 0 2.89-0.84 1.39-0.84 2.03-2.11l0-6.05 -2.34 0q-2.95 0.05-4.67 1.33 -1.7 1.28-1.7 3.58 0 2.16 0.86 3.13 0.88 0.97 2.94 0.97zm25.95-18.16q-0.87-0.17-1.87-0.17 -3.19 0-4.45 3.5l0 18.14 -4.16 0 0-25.36 4.03 0 0.08 2.58q1.66-3.05 4.7-3.05 0.98 0 1.64 0.33l0.03 4.03zm22.49 10q0 5.94-2.14 8.94 -2.12 3-6.17 3 -4.03 0-6.05-3.47l-0.22 3 -3.77 0 0-36 4.13 0 0 13.42q2.03-3.25 5.86-3.25 4.17 0 6.25 2.95 2.09 2.95 2.11 8.91l0 2.5zm-4.12-2.36q0-4.5-1.25-6.41 -1.25-1.92-4.06-1.92 -3.22 0-4.78 3.47l0 12.08q1.55 3.42 4.83 3.42 2.81 0 4.03-1.97 1.22-1.97 1.23-6.12l0-2.55zm22.48 13.83q-0.37-0.83-0.55-2.77 -2.2 3.23-5.62 3.23 -3.44 0-5.37-1.94 -1.94-1.94-1.94-5.45 0-3.86 2.63-6.12 2.63-2.28 7.2-2.33l3.05 0 0-2.7q0-2.27-1.02-3.22 -1-0.97-3.06-0.97 -1.87 0-3.05 1.11 -1.17 1.11-1.17 2.83l-4.16 0q0-1.95 1.14-3.72 1.16-1.77 3.09-2.77 1.95-1.02 4.34-1.02 3.89 0 5.92 1.94 2.03 1.92 2.08 5.63l0 12.8q0.02 2.94 0.8 5.09l0 0.38 -4.31 0zm-5.53-3.31q1.52 0 2.89-0.84 1.39-0.84 2.03-2.11l0-6.05 -2.34 0q-2.95 0.05-4.67 1.33 -1.7 1.28-1.7 3.58 0 2.16 0.86 3.13 0.88 0.97 2.94 0.97zm27.79-3.19q0-1.33-1.02-2.28 -1-0.97-3.87-2.27 -3.36-1.37-4.73-2.36 -1.36-0.98-2.05-2.23 -0.67-1.27-0.67-3 0-3.09 2.25-5.14 2.27-2.05 5.78-2.05 3.7 0 5.95 2.16 2.25 2.16 2.25 5.53l-4.12 0q0-1.72-1.16-2.92 -1.14-1.2-2.92-1.2 -1.83 0-2.87 0.95 -1.03 0.94-1.03 2.53 0 1.27 0.75 2.05 0.77 0.77 3.67 2.03 4.63 1.81 6.28 3.53 1.67 1.72 1.67 4.38 0 3.3-2.28 5.28 -2.27 1.98-6.09 1.98 -3.95 0-6.42-2.27 -2.45-2.28-2.45-5.78l4.17 0q0.06 2.11 1.28 3.31 1.22 1.19 3.42 1.19 2.06 0 3.14-0.92 1.08-0.92 1.08-2.5zm18.62 6.97q-4.73 0-7.27-2.83 -2.53-2.83-2.58-8.28l0-3.08q0-5.67 2.47-8.89 2.47-3.22 6.91-3.22 4.45 0 6.66 2.84 2.2 2.83 2.25 8.83l0 2.72 -14.16 0 0 0.58q0 4.08 1.53 5.94 1.53 1.84 4.42 1.84 1.83 0 3.22-0.69 1.39-0.69 2.61-2.19l2.16 2.63q-2.69 3.8-8.22 3.8zm-0.47-22.73q-2.58 0-3.83 1.77 -1.23 1.77-1.41 5.5l9.98 0 0-0.56q-0.16-3.61-1.3-5.16 -1.14-1.55-3.45-1.55zm46.8 18.02l-0.75 0.94q-3.23 3.78-9.47 3.78 -5.53 0-8.69-3.67 -3.14-3.67-3.22-10.37l0-6.7q0-7.17 2.88-10.73 2.88-3.58 8.59-3.58 4.88 0 7.63 2.72 2.75 2.72 3.03 7.75l-4.28 0q-0.27-3.19-1.78-4.97 -1.5-1.8-4.58-1.8 -3.67 0-5.39 2.41 -1.7 2.39-1.78 7.67l0 6.95q0 5.16 1.97 7.92 1.97 2.75 5.66 2.75 3.47 0 5.27-1.69l0.64-0.59 0-7.87 -6.23 0 0-3.66 10.52 0 0 12.75zm29.34 4.25l-4.31 0 0-15.78 -13.73 0 0 15.78 -4.28 0 0-34.12 4.28 0 0 14.67 13.73 0 0-14.67 4.31 0 0 34.13zm14.53-12.73l-9.67 0 0-3.53 9.67 0 0 3.53zm22.11-1.83q0 7.55-2.2 11.3 -2.2 3.73-6.92 3.73 -4.56 0-6.81-3.58 -2.25-3.59-2.34-10.8l0-5.86q0-7.47 2.2-11.14 2.22-3.69 6.91-3.69 4.63 0 6.83 3.5 2.22 3.48 2.34 10.56l0 5.97zm-4.16-5.92q0-5.42-1.2-7.98 -1.19-2.56-3.81-2.56 -2.55 0-3.75 2.52 -1.19 2.52-1.23 7.61l0 7.03q0 5.39 1.23 8.09 1.25 2.7 3.8 2.7 2.53 0 3.72-2.55 1.2-2.56 1.25-7.81l0-7.05zm11.3 3.38l1.47-17.02 14.84 0 0 4 -11.34 0 -0.8 9.31q2.11-1.48 4.55-1.48 3.98 0 6.25 3.09 2.28 3.09 2.28 8.33 0 5.3-2.48 8.33 -2.47 3.02-6.78 3.02 -3.84 0-6.27-2.5 -2.41-2.52-2.75-6.95l3.89 0q0.34 2.94 1.67 4.42 1.33 1.48 3.45 1.48 2.42 0 3.78-2.09 1.36-2.09 1.36-5.66 0-3.36-1.47-5.47 -1.47-2.11-3.95-2.11 -2.06 0-3.3 1.08l-1.11 1.11 -3.3-0.89zm40.82-14.58l-11.73 31.69 -4.34 0 11.72-30.56 -15.2 0 0-3.56 19.56 0 0 2.44zm20.7 31.69l-4.16 0 0-25.36 4.16 0 0 25.36zm0.33-32.09q0 1.06-0.59 1.77 -0.58 0.7-1.78 0.7 -1.17 0-1.77-0.7 -0.58-0.7-0.58-1.75 0-1.06 0.58-1.78 0.59-0.73 1.77-0.73 1.17 0 1.77 0.73 0.61 0.73 0.61 1.77zm18.51 25.59q0-1.33-1.02-2.28 -1-0.97-3.87-2.27 -3.36-1.37-4.73-2.36 -1.36-0.98-2.05-2.23 -0.67-1.27-0.67-3 0-3.09 2.25-5.14 2.27-2.05 5.78-2.05 3.7 0 5.95 2.16 2.25 2.16 2.25 5.53l-4.12 0q0-1.72-1.16-2.92 -1.14-1.2-2.92-1.2 -1.83 0-2.87 0.95 -1.03 0.94-1.03 2.53 0 1.27 0.75 2.05 0.77 0.77 3.67 2.03 4.63 1.81 6.28 3.53 1.67 1.72 1.67 4.38 0 3.3-2.28 5.28 -2.27 1.98-6.09 1.98 -3.95 0-6.42-2.27 -2.45-2.28-2.45-5.78l4.17 0q0.06 2.11 1.28 3.31 1.22 1.19 3.42 1.19 2.06 0 3.14-0.92 1.08-0.92 1.08-2.5zm29.61 6.97q-4.73 0-7.27-2.83 -2.53-2.83-2.58-8.28l0-3.08q0-5.67 2.47-8.89 2.47-3.22 6.91-3.22 4.45 0 6.66 2.84 2.2 2.83 2.25 8.83l0 2.72 -14.16 0 0 0.58q0 4.08 1.53 5.94 1.53 1.84 4.42 1.84 1.83 0 3.22-0.69 1.39-0.69 2.61-2.19l2.16 2.63q-2.69 3.8-8.22 3.8zm-0.47-22.73q-2.58 0-3.83 1.77 -1.23 1.77-1.41 5.5l9.98 0 0-0.56q-0.16-3.61-1.3-5.16 -1.14-1.55-3.45-1.55zm21.21 6.16l4.33-9.25 4.81 0 -6.89 12.53 7.05 12.83 -4.75 0 -4.48-9.5 -4.5 9.5 -4.78 0 7.06-12.83 -6.87-12.53 4.77 0 4.27 9.25zm32.05 4.64q0 6.03-2.17 8.98 -2.16 2.95-6.12 2.95 -3.81 0-5.87-2.89l0 12.17 -4.12 0 0-35.11 3.75 0 0.2 2.81q2.09-3.28 5.98-3.28 4.17 0 6.23 2.91 2.06 2.91 2.13 8.69l0 2.77zm-4.12-2.36q0-4.27-1.31-6.3 -1.31-2.03-4.22-2.03 -2.97 0-4.52 2.98l0 13.19q1.52 2.91 4.56 2.91 2.81 0 4.14-2.02 1.33-2.03 1.34-6.2l0-2.53zm18.55 14.3q-4.73 0-7.27-2.83 -2.53-2.83-2.58-8.28l0-3.08q0-5.67 2.47-8.89 2.47-3.22 6.91-3.22 4.45 0 6.66 2.84 2.2 2.83 2.25 8.83l0 2.72 -14.16 0 0 0.58q0 4.08 1.53 5.94 1.53 1.84 4.42 1.84 1.83 0 3.22-0.69 1.39-0.69 2.61-2.19l2.16 2.63q-2.69 3.8-8.22 3.8zm-0.47-22.73q-2.58 0-3.83 1.77 -1.23 1.77-1.41 5.5l9.98 0 0-0.56q-0.16-3.61-1.3-5.16 -1.14-1.55-3.45-1.55zm24.35 0.8q-0.87-0.17-1.87-0.17 -3.19 0-4.45 3.5l0 18.14 -4.16 0 0-25.36 4.03 0 0.08 2.58q1.66-3.05 4.7-3.05 0.98 0 1.64 0.33l0.03 4.03zm8.6 21.47l-4.16 0 0-25.36 4.16 0 0 25.36zm0.33-32.09q0 1.06-0.59 1.77 -0.58 0.7-1.78 0.7 -1.17 0-1.77-0.7 -0.58-0.7-0.58-1.75 0-1.06 0.58-1.78 0.59-0.73 1.77-0.73 1.17 0 1.77 0.73 0.61 0.73 0.61 1.77zm15.26 32.56q-4.73 0-7.27-2.83 -2.53-2.83-2.58-8.28l0-3.08q0-5.67 2.47-8.89 2.47-3.22 6.91-3.22 4.45 0 6.66 2.84 2.2 2.83 2.25 8.83l0 2.72 -14.16 0 0 0.58q0 4.08 1.53 5.94 1.53 1.84 4.42 1.84 1.83 0 3.22-0.69 1.39-0.69 2.61-2.19l2.16 2.63q-2.69 3.8-8.22 3.8zm-0.47-22.73q-2.58 0-3.83 1.77 -1.23 1.77-1.41 5.5l9.98 0 0-0.56q-0.16-3.61-1.3-5.16 -1.14-1.55-3.45-1.55zm17.79-3.09l0.11 2.73q2.42-3.2 6.17-3.2 6.72 0 6.81 8.97l0 16.86 -4.12 0 0-16.67q0-2.97-1-4.22 -0.98-1.27-2.98-1.27 -1.55 0-2.78 1.03 -1.22 1.03-1.97 2.7l0 18.42 -4.16 0 0-25.36 3.92 0zm28.12 22.28q2.06 0 3.3-1.27 1.25-1.28 1.38-3.66l3.91 0q-0.14 3.66-2.59 6.06 -2.44 2.41-5.98 2.41 -4.7 0-7.19-2.97 -2.47-2.97-2.47-8.83l0-2.78q0-5.75 2.45-8.73 2.47-2.98 7.19-2.98 3.89 0 6.17 2.47 2.28 2.45 2.42 6.72l-3.91 0q-0.14-2.81-1.36-4.22 -1.2-1.41-3.33-1.41 -2.77 0-4.11 1.81 -1.33 1.81-1.37 5.97l0 3.23q0 4.47 1.31 6.33 1.33 1.84 4.19 1.84zm17.84 3.08l-4.16 0 0-25.36 4.16 0 0 25.36zm0.33-32.09q0 1.06-0.59 1.77 -0.58 0.7-1.78 0.7 -1.17 0-1.77-0.7 -0.58-0.7-0.58-1.75 0-1.06 0.58-1.78 0.59-0.73 1.77-0.73 1.17 0 1.77 0.73 0.61 0.73 0.61 1.77zm10.1 6.73l0.11 2.73q2.42-3.2 6.17-3.2 6.72 0 6.81 8.97l0 16.86 -4.12 0 0-16.67q0-2.97-1-4.22 -0.98-1.27-2.98-1.27 -1.55 0-2.78 1.03 -1.22 1.03-1.97 2.7l0 18.42 -4.16 0 0-25.36 3.92 0zm18.49 11.53q0-5.94 2.16-8.97 2.16-3.03 6.3-3.03 3.88 0 5.89 3.3l0.2-2.83 3.75 0 0 25.59q0 4.72-2.42 7.23 -2.41 2.52-6.72 2.52 -1.87 0-4.2-0.92 -2.33-0.92-3.5-2.28l1.69-2.86q2.58 2.53 5.69 2.53 5.19 0 5.33-5.66l0-3.31q-2.02 2.98-5.72 2.98 -3.94 0-6.14-2.97 -2.2-2.97-2.3-8.52l0-2.81zm4.14 2.36q0 4.27 1.25 6.28 1.27 2 4.13 2 3.09 0 4.64-3.17l0-12.67q-1.62-3.12-4.59-3.12 -2.86 0-4.12 2.02 -1.27 2-1.3 6.14l0 2.53z" class="e"/><path d="m289.98 216.97l0 6.14 3.83 0 0 3.34 -3.83 0 0 15.73q0 1.5 0.48 2.28 0.5 0.77 1.7 0.77 0.81 0 1.66-0.28l-0.05 3.52q-1.41 0.47-2.87 0.47 -2.47 0-3.77-1.75 -1.28-1.77-1.28-4.98l0-15.75 -3.86 0 0-3.34 3.86 0 0-6.14 4.13 0zm17.82 31.97q-4.73 0-7.27-2.83 -2.53-2.83-2.58-8.28l0-3.08q0-5.67 2.47-8.89 2.47-3.22 6.91-3.22 4.45 0 6.66 2.84 2.2 2.83 2.25 8.83l0 2.72 -14.16 0 0 0.58q0 4.08 1.53 5.94 1.53 1.84 4.42 1.84 1.83 0 3.22-0.69 1.39-0.69 2.61-2.19l2.16 2.63q-2.69 3.8-8.22 3.8zm-0.47-22.73q-2.58 0-3.83 1.77 -1.23 1.77-1.41 5.5l9.98 0 0-0.56q-0.16-3.61-1.3-5.16 -1.14-1.55-3.45-1.55zm22.68 19.19q2.06 0 3.3-1.27 1.25-1.28 1.38-3.66l3.91 0q-0.14 3.66-2.59 6.06 -2.44 2.41-5.98 2.41 -4.7 0-7.19-2.97 -2.47-2.97-2.47-8.83l0-2.78q0-5.75 2.45-8.73 2.47-2.98 7.19-2.98 3.89 0 6.17 2.47 2.28 2.45 2.42 6.72l-3.91 0q-0.14-2.81-1.36-4.22 -1.2-1.41-3.33-1.41 -2.77 0-4.11 1.81 -1.33 1.81-1.37 5.97l0 3.23q0 4.47 1.31 6.33 1.33 1.84 4.19 1.84zm17.52-19.69q2.36-3.06 6.05-3.06 6.72 0 6.81 8.97l0 16.86 -4.12 0 0-16.67q0-2.97-1-4.22 -0.98-1.27-2.98-1.27 -1.55 0-2.78 1.03 -1.22 1.03-1.97 2.7l0 18.42 -4.16 0 0-36 4.16 0 0 13.23zm22.95-2.59l0.11 2.73q2.42-3.2 6.17-3.2 6.72 0 6.81 8.97l0 16.86 -4.12 0 0-16.67q0-2.97-1-4.22 -0.98-1.27-2.98-1.27 -1.55 0-2.78 1.03 -1.22 1.03-1.97 2.7l0 18.42 -4.16 0 0-25.36 3.92 0zm23.79 25.36l-4.16 0 0-25.36 4.16 0 0 25.36zm0.33-32.09q0 1.06-0.59 1.77 -0.58 0.7-1.78 0.7 -1.17 0-1.77-0.7 -0.58-0.7-0.58-1.75 0-1.06 0.58-1.78 0.59-0.73 1.77-0.73 1.17 0 1.77 0.73 0.61 0.73 0.61 1.77zm14.99 29.02q2.06 0 3.3-1.27 1.25-1.28 1.38-3.66l3.91 0q-0.14 3.66-2.59 6.06 -2.44 2.41-5.98 2.41 -4.7 0-7.19-2.97 -2.47-2.97-2.47-8.83l0-2.78q0-5.75 2.45-8.73 2.47-2.98 7.19-2.98 3.89 0 6.17 2.47 2.28 2.45 2.42 6.72l-3.91 0q-0.14-2.81-1.36-4.22 -1.2-1.41-3.33-1.41 -2.77 0-4.11 1.81 -1.33 1.81-1.37 5.97l0 3.23q0 4.47 1.31 6.33 1.33 1.84 4.19 1.84zm26.42 3.08q-0.37-0.83-0.55-2.77 -2.2 3.23-5.62 3.23 -3.44 0-5.37-1.94 -1.94-1.94-1.94-5.45 0-3.86 2.63-6.12 2.63-2.28 7.2-2.33l3.05 0 0-2.7q0-2.27-1.02-3.22 -1-0.97-3.06-0.97 -1.87 0-3.05 1.11 -1.17 1.11-1.17 2.83l-4.16 0q0-1.95 1.14-3.72 1.16-1.77 3.09-2.77 1.95-1.02 4.34-1.02 3.89 0 5.92 1.94 2.03 1.92 2.08 5.63l0 12.8q0.02 2.94 0.8 5.09l0 0.38 -4.31 0zm-5.53-3.31q1.52 0 2.89-0.84 1.39-0.84 2.03-2.11l0-6.05 -2.34 0q-2.95 0.05-4.67 1.33 -1.7 1.28-1.7 3.58 0 2.16 0.86 3.13 0.88 0.97 2.94 0.97zm19.95 3.31l-4.16 0 0-36 4.16 0 0 36zm16.64-13.83q0-5.86 2.19-8.92 2.19-3.08 6.3-3.08 3.63 0 5.67 2.95l0-13.12 4.14 0 0 36 -3.8 0 -0.2-2.72q-2.05 3.19-5.84 3.19 -3.94 0-6.17-3.06 -2.23-3.06-2.28-8.64l0-2.59zm4.14 2.36q0 4.27 1.27 6.28 1.27 2 4.13 2 3.09 0 4.63-3.12l0-12.8q-1.59-3.05-4.59-3.05 -2.86 0-4.12 2.02 -1.27 2-1.3 6.14l0 2.53zm25.02 11.47l-4.16 0 0-25.36 4.16 0 0 25.36zm0.33-32.09q0 1.06-0.59 1.77 -0.58 0.7-1.78 0.7 -1.17 0-1.77-0.7 -0.58-0.7-0.58-1.75 0-1.06 0.58-1.78 0.59-0.73 1.77-0.73 1.17 0 1.77 0.73 0.61 0.73 0.61 1.77zm8.01 32.09l0-22.02 -3.3 0 0-3.34 3.3 0 0-2.94q0.08-3.86 1.95-6.03 1.89-2.17 5.34-2.17 1.23 0 2.5 0.41l-0.2 3.52q-0.89-0.22-1.91-0.22 -3.53 0-3.53 5.05l0 2.39 7.41 0 0-2.34q0.05-4.16 2.16-6.47 2.13-2.33 5.92-2.33 1.45 0 2.8 0.42 1.36 0.41 2.83 1.02l-0.7 3.66q-2.27-1.17-4.64-1.17 -2.3 0-3.27 1.25 -0.95 1.25-0.95 3.77l0 2.2 4.13 0 0 3.34 -4.12 0 0 22.02 -4.14 0 0-22.02 -7.41 0 0 22.02 -4.16 0zm27.23 0l-4.12 0 0-25.36 4.13 0 0 25.36zm15.49-3.08q2.06 0 3.3-1.27 1.25-1.28 1.38-3.66l3.91 0q-0.14 3.66-2.59 6.06 -2.44 2.41-5.98 2.41 -4.7 0-7.19-2.97 -2.47-2.97-2.47-8.83l0-2.78q0-5.75 2.45-8.73 2.47-2.98 7.19-2.98 3.89 0 6.17 2.47 2.28 2.45 2.42 6.72l-3.91 0q-0.14-2.81-1.36-4.22 -1.2-1.41-3.33-1.41 -2.77 0-4.11 1.81 -1.33 1.81-1.37 5.97l0 3.23q0 4.47 1.31 6.33 1.33 1.84 4.19 1.84zm26.3 0.84q-2.06 2.7-6.02 2.7 -3.45 0-5.22-2.37 -1.75-2.39-1.77-6.94l0-16.52 4.13 0 0 16.22q0 5.92 3.56 5.92 3.77 0 5.2-3.37l0-18.77 4.14 0 0 25.36 -3.94 0 -0.09-2.23zm14.75 2.23l-4.16 0 0-36 4.16 0 0 36zm11.95-31.5l0 6.14 3.83 0 0 3.34 -3.83 0 0 15.73q0 1.5 0.48 2.28 0.5 0.77 1.7 0.77 0.81 0 1.66-0.28l-0.05 3.52q-1.41 0.47-2.87 0.47 -2.47 0-3.77-1.75 -1.28-1.77-1.28-4.98l0-15.75 -3.86 0 0-3.34 3.86 0 0-6.14 4.13 0zm13.23 31.5l-4.16 0 0-25.36 4.16 0 0 25.36zm0.33-32.09q0 1.06-0.59 1.77 -0.58 0.7-1.78 0.7 -1.17 0-1.77-0.7 -0.58-0.7-0.58-1.75 0-1.06 0.58-1.78 0.59-0.73 1.77-0.73 1.17 0 1.77 0.73 0.61 0.73 0.61 1.77zm15.26 32.56q-4.73 0-7.27-2.83 -2.53-2.83-2.58-8.28l0-3.08q0-5.67 2.47-8.89 2.47-3.22 6.91-3.22 4.45 0 6.66 2.84 2.2 2.83 2.25 8.83l0 2.72 -14.16 0 0 0.58q0 4.08 1.53 5.94 1.53 1.84 4.42 1.84 1.83 0 3.22-0.69 1.39-0.69 2.61-2.19l2.16 2.63q-2.69 3.8-8.22 3.8zm-0.47-22.73q-2.58 0-3.83 1.77 -1.23 1.77-1.41 5.5l9.98 0 0-0.56q-0.16-3.61-1.3-5.16 -1.14-1.55-3.45-1.55zm26.2 15.77q0-1.33-1.02-2.28 -1-0.97-3.87-2.27 -3.36-1.37-4.73-2.36 -1.36-0.98-2.05-2.23 -0.67-1.27-0.67-3 0-3.09 2.25-5.14 2.27-2.05 5.78-2.05 3.7 0 5.95 2.16 2.25 2.16 2.25 5.53l-4.12 0q0-1.72-1.16-2.92 -1.14-1.2-2.92-1.2 -1.83 0-2.87 0.95 -1.03 0.94-1.03 2.53 0 1.27 0.75 2.05 0.77 0.77 3.67 2.03 4.63 1.81 6.28 3.53 1.67 1.72 1.67 4.38 0 3.3-2.28 5.28 -2.27 1.98-6.09 1.98 -3.95 0-6.42-2.27 -2.45-2.28-2.45-5.78l4.17 0q0.06 2.11 1.28 3.31 1.22 1.19 3.42 1.19 2.06 0 3.14-0.92 1.08-0.92 1.08-2.5zm9.82 4.22q0-1.12 0.67-1.87 0.67-0.75 2-0.75 1.34 0 2.03 0.75 0.69 0.75 0.69 1.88 0 1.08-0.69 1.81 -0.69 0.73-2.03 0.73 -1.33 0-2-0.73 -0.67-0.73-0.67-1.81z" class="e"/><path d="m33.76 351.11l0 13.36 -4.28 0 0-34.12 10.88 0q4.75 0 7.47 2.84 2.72 2.84 2.72 7.58 0 4.92-2.59 7.59 -2.58 2.66-7.3 2.75l-6.89 0zm0-3.69l6.59 0q2.86 0 4.38-1.7 1.53-1.72 1.53-4.91 0-3.06-1.58-4.91 -1.56-1.86-4.31-1.86l-6.61 0 0 13.38zm26.21 17.05l-4.16 0 0-36 4.16 0 0 36zm15.59 0.47q-4.73 0-7.27-2.83 -2.53-2.83-2.58-8.28l0-3.08q0-5.67 2.47-8.89 2.47-3.22 6.91-3.22 4.45 0 6.66 2.84 2.2 2.83 2.25 8.83l0 2.72 -14.16 0 0 0.58q0 4.08 1.53 5.94 1.53 1.84 4.42 1.84 1.83 0 3.22-0.69 1.39-0.69 2.61-2.19l2.16 2.63q-2.69 3.8-8.22 3.8zm-0.47-22.73q-2.58 0-3.83 1.77 -1.23 1.77-1.41 5.5l9.98 0 0-0.56q-0.16-3.61-1.3-5.16 -1.14-1.55-3.45-1.55zm26.93 22.27q-0.37-0.83-0.55-2.77 -2.2 3.23-5.62 3.23 -3.44 0-5.37-1.94 -1.94-1.94-1.94-5.45 0-3.86 2.63-6.12 2.63-2.28 7.2-2.33l3.05 0 0-2.7q0-2.27-1.02-3.22 -1-0.97-3.06-0.97 -1.87 0-3.05 1.11 -1.17 1.11-1.17 2.83l-4.16 0q0-1.95 1.14-3.72 1.16-1.77 3.09-2.77 1.95-1.02 4.34-1.02 3.89 0 5.92 1.94 2.03 1.92 2.08 5.63l0 12.8q0.02 2.94 0.8 5.09l0 0.38 -4.31 0zm-5.53-3.31q1.52 0 2.89-0.84 1.39-0.84 2.03-2.11l0-6.05 -2.34 0q-2.95 0.05-4.67 1.33 -1.7 1.28-1.7 3.58 0 2.16 0.86 3.13 0.88 0.97 2.94 0.97zm27.79-3.19q0-1.33-1.02-2.28 -1-0.97-3.87-2.27 -3.36-1.37-4.73-2.36 -1.36-0.98-2.05-2.23 -0.67-1.27-0.67-3 0-3.09 2.25-5.14 2.27-2.05 5.78-2.05 3.7 0 5.95 2.16 2.25 2.16 2.25 5.53l-4.12 0q0-1.72-1.16-2.92 -1.14-1.2-2.92-1.2 -1.83 0-2.87 0.95 -1.03 0.94-1.03 2.53 0 1.27 0.75 2.05 0.77 0.77 3.67 2.03 4.63 1.81 6.28 3.53 1.67 1.72 1.67 4.38 0 3.3-2.28 5.28 -2.27 1.98-6.09 1.98 -3.95 0-6.42-2.27 -2.45-2.28-2.45-5.78l4.17 0q0.06 2.11 1.28 3.31 1.22 1.19 3.42 1.19 2.06 0 3.14-0.92 1.08-0.92 1.08-2.5zm18.62 6.97q-4.73 0-7.27-2.83 -2.53-2.83-2.58-8.28l0-3.08q0-5.67 2.47-8.89 2.47-3.22 6.91-3.22 4.45 0 6.66 2.84 2.2 2.83 2.25 8.83l0 2.72 -14.16 0 0 0.58q0 4.08 1.53 5.94 1.53 1.84 4.42 1.84 1.83 0 3.22-0.69 1.39-0.69 2.61-2.19l2.16 2.63q-2.69 3.8-8.22 3.8zm-0.47-22.73q-2.58 0-3.83 1.77 -1.23 1.77-1.41 5.5l9.98 0 0-0.56q-0.16-3.61-1.3-5.16 -1.14-1.55-3.45-1.55zm33.67 19.19q2.06 0 3.3-1.27 1.25-1.28 1.38-3.66l3.91 0q-0.14 3.66-2.59 6.06 -2.44 2.41-5.98 2.41 -4.7 0-7.19-2.97 -2.47-2.97-2.47-8.83l0-2.78q0-5.75 2.45-8.73 2.47-2.98 7.19-2.98 3.89 0 6.17 2.47 2.28 2.45 2.42 6.72l-3.91 0q-0.14-2.81-1.36-4.22 -1.2-1.41-3.33-1.41 -2.77 0-4.11 1.81 -1.33 1.81-1.37 5.97l0 3.23q0 4.47 1.31 6.33 1.33 1.84 4.19 1.84zm12.5-10.78q0-5.53 2.67-8.75 2.69-3.22 7.09-3.22 4.41 0 7.09 3.14 2.69 3.14 2.75 8.55l0 2.67q0 5.52-2.67 8.73 -2.67 3.2-7.12 3.2 -4.41 0-7.06-3.11 -2.66-3.12-2.75-8.45l0-2.77zm4.14 2.39q0 3.92 1.53 6.16 1.55 2.23 4.14 2.23 5.48 0 5.66-7.92l0-2.86q0-3.89-1.55-6.14 -1.55-2.27-4.16-2.27 -2.55 0-4.09 2.27 -1.53 2.25-1.53 6.13l0 2.41zm24.73-13.89l0.11 2.73q2.42-3.2 6.17-3.2 6.72 0 6.81 8.97l0 16.86 -4.12 0 0-16.67q0-2.97-1-4.22 -0.98-1.27-2.98-1.27 -1.55 0-2.78 1.03 -1.22 1.03-1.97 2.7l0 18.42 -4.16 0 0-25.36 3.92 0zm24.74-6.14l0 6.14 3.83 0 0 3.34 -3.83 0 0 15.73q0 1.5 0.48 2.28 0.5 0.77 1.7 0.77 0.81 0 1.66-0.28l-0.05 3.52q-1.41 0.47-2.87 0.47 -2.47 0-3.77-1.75 -1.28-1.77-1.28-4.98l0-15.75 -3.86 0 0-3.34 3.86 0 0-6.14 4.13 0zm21.8 31.5q-0.37-0.83-0.55-2.77 -2.2 3.23-5.62 3.23 -3.44 0-5.37-1.94 -1.94-1.94-1.94-5.45 0-3.86 2.63-6.12 2.63-2.28 7.2-2.33l3.05 0 0-2.7q0-2.27-1.02-3.22 -1-0.97-3.06-0.97 -1.87 0-3.05 1.11 -1.17 1.11-1.17 2.83l-4.16 0q0-1.95 1.14-3.72 1.16-1.77 3.09-2.77 1.95-1.02 4.34-1.02 3.89 0 5.92 1.94 2.03 1.92 2.08 5.63l0 12.8q0.02 2.94 0.8 5.09l0 0.38 -4.31 0zm-5.53-3.31q1.52 0 2.89-0.84 1.39-0.84 2.03-2.11l0-6.05 -2.34 0q-2.95 0.05-4.67 1.33 -1.7 1.28-1.7 3.58 0 2.16 0.86 3.13 0.88 0.97 2.94 0.97zm24.27 0.23q2.06 0 3.3-1.27 1.25-1.28 1.38-3.66l3.91 0q-0.14 3.66-2.59 6.06 -2.44 2.41-5.98 2.41 -4.7 0-7.19-2.97 -2.47-2.97-2.47-8.83l0-2.78q0-5.75 2.45-8.73 2.47-2.98 7.19-2.98 3.89 0 6.17 2.47 2.28 2.45 2.42 6.72l-3.91 0q-0.14-2.81-1.36-4.22 -1.2-1.41-3.33-1.41 -2.77 0-4.11 1.81 -1.33 1.81-1.37 5.97l0 3.23q0 4.47 1.31 6.33 1.33 1.84 4.19 1.84zm18.8-28.42l0 6.14 3.83 0 0 3.34 -3.83 0 0 15.73q0 1.5 0.48 2.28 0.5 0.77 1.7 0.77 0.81 0 1.66-0.28l-0.05 3.52q-1.41 0.47-2.87 0.47 -2.47 0-3.77-1.75 -1.28-1.77-1.28-4.98l0-15.75 -3.86 0 0-3.34 3.86 0 0-6.14 4.13 0zm32.8 31.5q-0.37-0.83-0.55-2.77 -2.2 3.23-5.62 3.23 -3.44 0-5.37-1.94 -1.94-1.94-1.94-5.45 0-3.86 2.63-6.12 2.63-2.28 7.2-2.33l3.05 0 0-2.7q0-2.27-1.02-3.22 -1-0.97-3.06-0.97 -1.87 0-3.05 1.11 -1.17 1.11-1.17 2.83l-4.16 0q0-1.95 1.14-3.72 1.16-1.77 3.09-2.77 1.95-1.02 4.34-1.02 3.89 0 5.92 1.94 2.03 1.92 2.08 5.63l0 12.8q0.02 2.94 0.8 5.09l0 0.38 -4.31 0zm-5.53-3.31q1.52 0 2.89-0.84 1.39-0.84 2.03-2.11l0-6.05 -2.34 0q-2.95 0.05-4.67 1.33 -1.7 1.28-1.7 3.58 0 2.16 0.86 3.13 0.88 0.97 2.94 0.97zm41.95-5.31q0-2.56-1.39-3.92 -1.37-1.36-4.98-2.64 -3.61-1.3-5.53-2.7 -1.91-1.42-2.86-3.23 -0.94-1.83-0.94-4.17 0-4.05 2.7-6.67 2.7-2.62 7.09-2.62 3 0 5.34 1.34 2.34 1.34 3.61 3.73 1.27 2.39 1.27 5.25l-4.31 0q0-3.16-1.53-4.89 -1.52-1.73-4.37-1.73 -2.61 0-4.05 1.45 -1.42 1.45-1.42 4.08 0 2.16 1.55 3.61 1.55 1.45 4.78 2.59 5.05 1.67 7.2 4.11 2.17 2.44 2.17 6.38 0 4.14-2.7 6.64 -2.69 2.5-7.33 2.5 -2.97 0-5.5-1.3 -2.52-1.31-3.95-3.66 -1.44-2.36-1.44-5.41l4.31 0q0 3.16 1.77 4.92 1.77 1.75 4.81 1.75 2.84 0 4.27-1.45 1.44-1.45 1.44-3.95zm29.9-21.8l-8.97 0 0 30.42 -4.3 0 0-30.42 -8.95 0 0-3.7 22.22 0 0 3.7zm19.1 21.52l-11.53 0 -2.64 8.91 -4.41 0 10.98-34.12 3.69 0 11.02 34.13 -4.41 0 -2.7-8.91zm-10.41-3.7l9.31 0 -4.67-15.52 -4.64 15.52zm32.47-1.2l-6 0 0 13.81 -4.31 0 0-34.12 9.56 0q5.02 0 7.59 2.61 2.58 2.61 2.58 7.66 0 3.16-1.41 5.52 -1.39 2.36-3.94 3.55l6.61 14.52 0 0.28 -4.62 0 -6.06-13.81zm-6-3.67l5.2 0q2.69 0 4.3-1.73 1.61-1.73 1.61-4.64 0-6.56-5.95-6.56l-5.16 0 0 12.94zm39.23-12.94l-8.97 0 0 30.42 -4.3 0 0-30.42 -8.95 0 0-3.7 22.22 0 0 3.7zm24.99 8.95q-0.87-0.17-1.87-0.17 -3.19 0-4.45 3.5l0 18.14 -4.16 0 0-25.36 4.03 0 0.08 2.58q1.66-3.05 4.7-3.05 0.98 0 1.64 0.33l0.03 4.03zm12.75 21.94q-4.73 0-7.27-2.83 -2.53-2.83-2.58-8.28l0-3.08q0-5.67 2.47-8.89 2.47-3.22 6.91-3.22 4.45 0 6.66 2.84 2.2 2.83 2.25 8.83l0 2.72 -14.16 0 0 0.58q0 4.08 1.53 5.94 1.53 1.84 4.42 1.84 1.83 0 3.22-0.69 1.39-0.69 2.61-2.19l2.16 2.63q-2.69 3.8-8.22 3.8zm-0.47-22.73q-2.58 0-3.83 1.77 -1.23 1.77-1.41 5.5l9.98 0 0-0.56q-0.16-3.61-1.3-5.16 -1.14-1.55-3.45-1.55zm32.2 10.8q0 6.03-2.17 8.98 -2.16 2.95-6.12 2.95 -3.81 0-5.87-2.89l0 12.17 -4.12 0 0-35.11 3.75 0 0.2 2.81q2.09-3.28 5.98-3.28 4.17 0 6.23 2.91 2.06 2.91 2.13 8.69l0 2.77zm-4.12-2.36q0-4.27-1.31-6.3 -1.31-2.03-4.22-2.03 -2.97 0-4.52 2.98l0 13.19q1.52 2.91 4.56 2.91 2.81 0 4.14-2.02 1.33-2.03 1.34-6.2l0-2.53zm19.95-7.64q-0.87-0.17-1.87-0.17 -3.19 0-4.45 3.5l0 18.14 -4.16 0 0-25.36 4.03 0 0.08 2.58q1.66-3.05 4.7-3.05 0.98 0 1.64 0.33l0.03 4.03zm12.75 21.94q-4.73 0-7.27-2.83 -2.53-2.83-2.58-8.28l0-3.08q0-5.67 2.47-8.89 2.47-3.22 6.91-3.22 4.45 0 6.66 2.84 2.2 2.83 2.25 8.83l0 2.72 -14.16 0 0 0.58q0 4.08 1.53 5.94 1.53 1.84 4.42 1.84 1.83 0 3.22-0.69 1.39-0.69 2.61-2.19l2.16 2.63q-2.69 3.8-8.22 3.8zm-0.47-22.73q-2.58 0-3.83 1.77 -1.23 1.77-1.41 5.5l9.98 0 0-0.56q-0.16-3.61-1.3-5.16 -1.14-1.55-3.45-1.55zm26.2 15.77q0-1.33-1.02-2.28 -1-0.97-3.87-2.27 -3.36-1.37-4.73-2.36 -1.36-0.98-2.05-2.23 -0.67-1.27-0.67-3 0-3.09 2.25-5.14 2.27-2.05 5.78-2.05 3.7 0 5.95 2.16 2.25 2.16 2.25 5.53l-4.12 0q0-1.72-1.16-2.92 -1.14-1.2-2.92-1.2 -1.83 0-2.87 0.95 -1.03 0.94-1.03 2.53 0 1.27 0.75 2.05 0.77 0.77 3.67 2.03 4.63 1.81 6.28 3.53 1.67 1.72 1.67 4.38 0 3.3-2.28 5.28 -2.27 1.98-6.09 1.98 -3.95 0-6.42-2.27 -2.45-2.28-2.45-5.78l4.17 0q0.06 2.11 1.28 3.31 1.22 1.19 3.42 1.19 2.06 0 3.14-0.92 1.08-0.92 1.08-2.5zm18.62 6.97q-4.73 0-7.27-2.83 -2.53-2.83-2.58-8.28l0-3.08q0-5.67 2.47-8.89 2.47-3.22 6.91-3.22 4.45 0 6.66 2.84 2.2 2.83 2.25 8.83l0 2.72 -14.16 0 0 0.58q0 4.08 1.53 5.94 1.53 1.84 4.42 1.84 1.83 0 3.22-0.69 1.39-0.69 2.61-2.19l2.16 2.63q-2.69 3.8-8.22 3.8zm-0.47-22.73q-2.58 0-3.83 1.77 -1.23 1.77-1.41 5.5l9.98 0 0-0.56q-0.16-3.61-1.3-5.16 -1.14-1.55-3.45-1.55zm17.79-3.09l0.11 2.73q2.42-3.2 6.17-3.2 6.72 0 6.81 8.97l0 16.86 -4.12 0 0-16.67q0-2.97-1-4.22 -0.98-1.27-2.98-1.27 -1.55 0-2.78 1.03 -1.22 1.03-1.97 2.7l0 18.42 -4.16 0 0-25.36 3.92 0zm24.74-6.14l0 6.14 3.83 0 0 3.34 -3.83 0 0 15.73q0 1.5 0.48 2.28 0.5 0.77 1.7 0.77 0.81 0 1.66-0.28l-0.05 3.52q-1.41 0.47-2.87 0.47 -2.47 0-3.77-1.75 -1.28-1.77-1.28-4.98l0-15.75 -3.86 0 0-3.34 3.86 0 0-6.14 4.13 0zm21.8 31.5q-0.37-0.83-0.55-2.77 -2.2 3.23-5.62 3.23 -3.44 0-5.37-1.94 -1.94-1.94-1.94-5.45 0-3.86 2.63-6.12 2.63-2.28 7.2-2.33l3.05 0 0-2.7q0-2.27-1.02-3.22 -1-0.97-3.06-0.97 -1.87 0-3.05 1.11 -1.17 1.11-1.17 2.83l-4.16 0q0-1.95 1.14-3.72 1.16-1.77 3.09-2.77 1.95-1.02 4.34-1.02 3.89 0 5.92 1.94 2.03 1.92 2.08 5.63l0 12.8q0.02 2.94 0.8 5.09l0 0.38 -4.31 0zm-5.53-3.31q1.52 0 2.89-0.84 1.39-0.84 2.03-2.11l0-6.05 -2.34 0q-2.95 0.05-4.67 1.33 -1.7 1.28-1.7 3.58 0 2.16 0.86 3.13 0.88 0.97 2.94 0.97zm20.9-28.19l0 6.14 3.83 0 0 3.34 -3.83 0 0 15.73q0 1.5 0.48 2.28 0.5 0.77 1.7 0.77 0.81 0 1.66-0.28l-0.05 3.52q-1.41 0.47-2.87 0.47 -2.47 0-3.77-1.75 -1.28-1.77-1.28-4.98l0-15.75 -3.86 0 0-3.34 3.86 0 0-6.14 4.13 0zm13.23 31.5l-4.16 0 0-25.36 4.16 0 0 25.36zm0.33-32.09q0 1.06-0.59 1.77 -0.58 0.7-1.78 0.7 -1.17 0-1.77-0.7 -0.58-0.7-0.58-1.75 0-1.06 0.58-1.78 0.59-0.73 1.77-0.73 1.17 0 1.77 0.73 0.61 0.73 0.61 1.77zm13.38 25.78l4.8-19.05 4.22 0 -7.52 25.36 -3.09 0 -7.62-25.36 4.22 0 5 19.05zm22.1 6.78q-4.73 0-7.27-2.83 -2.53-2.83-2.58-8.28l0-3.08q0-5.67 2.47-8.89 2.47-3.22 6.91-3.22 4.45 0 6.66 2.84 2.2 2.83 2.25 8.83l0 2.72 -14.16 0 0 0.58q0 4.08 1.53 5.94 1.53 1.84 4.42 1.84 1.83 0 3.22-0.69 1.39-0.69 2.61-2.19l2.16 2.63q-2.69 3.8-8.22 3.8zm-0.47-22.73q-2.58 0-3.83 1.77 -1.23 1.77-1.41 5.5l9.98 0 0-0.56q-0.16-3.61-1.3-5.16 -1.14-1.55-3.45-1.55zm30.3-9.23l0 6.14 3.83 0 0 3.34 -3.83 0 0 15.73q0 1.5 0.48 2.28 0.5 0.77 1.7 0.77 0.81 0 1.66-0.28l-0.05 3.52q-1.41 0.47-2.87 0.47 -2.47 0-3.77-1.75 -1.28-1.77-1.28-4.98l0-15.75 -3.86 0 0-3.34 3.86 0 0-6.14 4.13 0zm7.41 17.64q0-5.53 2.67-8.75 2.69-3.22 7.09-3.22 4.41 0 7.09 3.14 2.69 3.14 2.75 8.55l0 2.67q0 5.52-2.67 8.73 -2.67 3.2-7.12 3.2 -4.41 0-7.06-3.11 -2.66-3.12-2.75-8.45l0-2.77zm4.14 2.39q0 3.92 1.53 6.16 1.55 2.23 4.14 2.23 5.48 0 5.66-7.92l0-2.86q0-3.89-1.55-6.14 -1.55-2.27-4.16-2.27 -2.55 0-4.09 2.27 -1.53 2.25-1.53 6.13l0 2.41zm44.13 4.97q0-1.33-1.02-2.28 -1-0.97-3.87-2.27 -3.36-1.37-4.73-2.36 -1.36-0.98-2.05-2.23 -0.67-1.27-0.67-3 0-3.09 2.25-5.14 2.27-2.05 5.78-2.05 3.7 0 5.95 2.16 2.25 2.16 2.25 5.53l-4.12 0q0-1.72-1.16-2.92 -1.14-1.2-2.92-1.2 -1.83 0-2.87 0.95 -1.03 0.94-1.03 2.53 0 1.27 0.75 2.05 0.77 0.77 3.67 2.03 4.63 1.81 6.28 3.53 1.67 1.72 1.67 4.38 0 3.3-2.28 5.28 -2.27 1.98-6.09 1.98 -3.95 0-6.42-2.27 -2.45-2.28-2.45-5.78l4.17 0q0.06 2.11 1.28 3.31 1.22 1.19 3.42 1.19 2.06 0 3.14-0.92 1.08-0.92 1.08-2.5zm14.02 6.5l-4.16 0 0-25.36 4.16 0 0 25.36zm0.33-32.09q0 1.06-0.59 1.77 -0.58 0.7-1.78 0.7 -1.17 0-1.77-0.7 -0.58-0.7-0.58-1.75 0-1.06 0.58-1.78 0.59-0.73 1.77-0.73 1.17 0 1.77 0.73 0.61 0.73 0.61 1.77zm5.37 18.27q0-5.94 2.16-8.97 2.16-3.03 6.3-3.03 3.88 0 5.89 3.3l0.2-2.83 3.75 0 0 25.59q0 4.72-2.42 7.23 -2.41 2.52-6.72 2.52 -1.87 0-4.2-0.92 -2.33-0.92-3.5-2.28l1.69-2.86q2.58 2.53 5.69 2.53 5.19 0 5.33-5.66l0-3.31q-2.02 2.98-5.72 2.98 -3.94 0-6.14-2.97 -2.2-2.97-2.3-8.52l0-2.81zm4.14 2.36q0 4.27 1.25 6.28 1.27 2 4.13 2 3.09 0 4.64-3.17l0-12.67q-1.62-3.12-4.59-3.12 -2.86 0-4.12 2.02 -1.27 2-1.3 6.14l0 2.53zm24.24-13.89l0.11 2.73q2.42-3.2 6.17-3.2 6.72 0 6.81 8.97l0 16.86 -4.12 0 0-16.67q0-2.97-1-4.22 -0.98-1.27-2.98-1.27 -1.55 0-2.78 1.03 -1.22 1.03-1.97 2.7l0 18.42 -4.16 0 0-25.36 3.92 0zm32.37 25.36q-0.37-0.83-0.55-2.77 -2.2 3.23-5.62 3.23 -3.44 0-5.37-1.94 -1.94-1.94-1.94-5.45 0-3.86 2.63-6.12 2.63-2.28 7.2-2.33l3.05 0 0-2.7q0-2.27-1.02-3.22 -1-0.97-3.06-0.97 -1.87 0-3.05 1.11 -1.17 1.11-1.17 2.83l-4.16 0q0-1.95 1.14-3.72 1.16-1.77 3.09-2.77 1.95-1.02 4.34-1.02 3.89 0 5.92 1.94 2.03 1.92 2.08 5.63l0 12.8q0.02 2.94 0.8 5.09l0 0.38 -4.31 0zm-5.53-3.31q1.52 0 2.89-0.84 1.39-0.84 2.03-2.11l0-6.05 -2.34 0q-2.95 0.05-4.67 1.33 -1.7 1.28-1.7 3.58 0 2.16 0.86 3.13 0.88 0.97 2.94 0.97zm19.95 3.31l-4.16 0 0-36 4.16 0 0 36z" class="e"/><path d="m106.01 415.58l4.63-18.47 4.41 0 -8.3 28.95q-0.94 3.25-2.66 4.95 -1.7 1.7-3.89 1.7 -0.84 0-2.16-0.37l0-3.52 0.92 0.09q1.8 0 2.81-0.86 1.03-0.86 1.66-2.97l0.83-2.84 -7.45-25.14 4.52 0 4.69 18.47zm11.84-6.97q0-5.53 2.67-8.75 2.69-3.22 7.09-3.22 4.41 0 7.09 3.14 2.69 3.14 2.75 8.55l0 2.67q0 5.52-2.67 8.73 -2.67 3.2-7.12 3.2 -4.41 0-7.06-3.11 -2.66-3.12-2.75-8.45l0-2.77zm4.14 2.39q0 3.92 1.53 6.16 1.55 2.23 4.14 2.23 5.48 0 5.66-7.92l0-2.86q0-3.89-1.55-6.14 -1.55-2.27-4.16-2.27 -2.55 0-4.09 2.27 -1.53 2.25-1.53 6.13l0 2.41zm33.75 9.23q-2.06 2.7-6.02 2.7 -3.45 0-5.22-2.37 -1.75-2.39-1.77-6.94l0-16.52 4.13 0 0 16.22q0 5.92 3.56 5.92 3.77 0 5.2-3.37l0-18.77 4.14 0 0 25.36 -3.94 0 -0.09-2.23zm20.75-19.23q-0.87-0.17-1.87-0.17 -3.19 0-4.45 3.5l0 18.14 -4.16 0 0-25.36 4.03 0 0.08 2.58q1.66-3.05 4.7-3.05 0.98 0 1.64 0.33l0.03 4.03zm28.17 21.47q-0.37-0.83-0.55-2.77 -2.2 3.23-5.62 3.23 -3.44 0-5.37-1.94 -1.94-1.94-1.94-5.45 0-3.86 2.63-6.12 2.63-2.28 7.2-2.33l3.05 0 0-2.7q0-2.27-1.02-3.22 -1-0.97-3.06-0.97 -1.87 0-3.05 1.11 -1.17 1.11-1.17 2.83l-4.16 0q0-1.95 1.14-3.72 1.16-1.77 3.09-2.77 1.95-1.02 4.34-1.02 3.89 0 5.92 1.94 2.03 1.92 2.08 5.63l0 12.8q0.02 2.94 0.8 5.09l0 0.38 -4.31 0zm-5.53-3.31q1.52 0 2.89-0.84 1.39-0.84 2.03-2.11l0-6.05 -2.34 0q-2.95 0.05-4.67 1.33 -1.7 1.28-1.7 3.58 0 2.16 0.86 3.13 0.88 0.97 2.94 0.97zm22.31-3l4.8-19.05 4.22 0 -7.52 25.36 -3.09 0 -7.62-25.36 4.22 0 5 19.05zm26.04 6.31q-0.37-0.83-0.55-2.77 -2.2 3.23-5.62 3.23 -3.44 0-5.37-1.94 -1.94-1.94-1.94-5.45 0-3.86 2.63-6.12 2.63-2.28 7.2-2.33l3.05 0 0-2.7q0-2.27-1.02-3.22 -1-0.97-3.06-0.97 -1.87 0-3.05 1.11 -1.17 1.11-1.17 2.83l-4.16 0q0-1.95 1.14-3.72 1.16-1.77 3.09-2.77 1.95-1.02 4.34-1.02 3.89 0 5.92 1.94 2.03 1.92 2.08 5.63l0 12.8q0.02 2.94 0.8 5.09l0 0.38 -4.31 0zm-5.53-3.31q1.52 0 2.89-0.84 1.39-0.84 2.03-2.11l0-6.05 -2.34 0q-2.95 0.05-4.67 1.33 -1.7 1.28-1.7 3.58 0 2.16 0.86 3.13 0.88 0.97 2.94 0.97zm19.95 3.31l-4.16 0 0-25.36 4.16 0 0 25.36zm0.33-32.09q0 1.06-0.59 1.77 -0.58 0.7-1.78 0.7 -1.17 0-1.77-0.7 -0.58-0.7-0.58-1.75 0-1.06 0.58-1.78 0.59-0.73 1.77-0.73 1.17 0 1.77 0.73 0.61 0.73 0.61 1.77zm10.66 32.09l-4.16 0 0-36 4.16 0 0 36zm19.57 0q-0.37-0.83-0.55-2.77 -2.2 3.23-5.62 3.23 -3.44 0-5.37-1.94 -1.94-1.94-1.94-5.45 0-3.86 2.63-6.12 2.63-2.28 7.2-2.33l3.05 0 0-2.7q0-2.27-1.02-3.22 -1-0.97-3.06-0.97 -1.87 0-3.05 1.11 -1.17 1.11-1.17 2.83l-4.16 0q0-1.95 1.14-3.72 1.16-1.77 3.09-2.77 1.95-1.02 4.34-1.02 3.89 0 5.92 1.94 2.03 1.92 2.08 5.63l0 12.8q0.02 2.94 0.8 5.09l0 0.38 -4.31 0zm-5.53-3.31q1.52 0 2.89-0.84 1.39-0.84 2.03-2.11l0-6.05 -2.34 0q-2.95 0.05-4.67 1.33 -1.7 1.28-1.7 3.58 0 2.16 0.86 3.13 0.88 0.97 2.94 0.97zm33.84-8.16q0 5.94-2.14 8.94 -2.12 3-6.17 3 -4.03 0-6.05-3.47l-0.22 3 -3.77 0 0-36 4.13 0 0 13.42q2.03-3.25 5.86-3.25 4.17 0 6.25 2.95 2.09 2.95 2.11 8.91l0 2.5zm-4.12-2.36q0-4.5-1.25-6.41 -1.25-1.92-4.06-1.92 -3.22 0-4.78 3.47l0 12.08q1.55 3.42 4.83 3.42 2.81 0 4.03-1.97 1.22-1.97 1.23-6.12l0-2.55zm13.91 13.83l-4.16 0 0-25.36 4.16 0 0 25.36zm0.33-32.09q0 1.06-0.59 1.77 -0.58 0.7-1.78 0.7 -1.17 0-1.77-0.7 -0.58-0.7-0.58-1.75 0-1.06 0.58-1.78 0.59-0.73 1.77-0.73 1.17 0 1.77 0.73 0.61 0.73 0.61 1.77zm10.66 32.09l-4.16 0 0-36 4.16 0 0 36zm10.99 0l-4.16 0 0-25.36 4.16 0 0 25.36zm0.33-32.09q0 1.06-0.59 1.77 -0.58 0.7-1.78 0.7 -1.17 0-1.77-0.7 -0.58-0.7-0.58-1.75 0-1.06 0.58-1.78 0.59-0.73 1.77-0.73 1.17 0 1.77 0.73 0.61 0.73 0.61 1.77zm11.62 0.59l0 6.14 3.83 0 0 3.34 -3.83 0 0 15.73q0 1.5 0.48 2.28 0.5 0.77 1.7 0.77 0.81 0 1.66-0.28l-0.05 3.52q-1.41 0.47-2.87 0.47 -2.47 0-3.77-1.75 -1.28-1.77-1.28-4.98l0-15.75 -3.86 0 0-3.34 3.86 0 0-6.14 4.13 0zm15.68 24.61l4.63-18.47 4.41 0 -8.3 28.95q-0.94 3.25-2.66 4.95 -1.7 1.7-3.89 1.7 -0.84 0-2.16-0.37l0-3.52 0.92 0.09q1.8 0 2.81-0.86 1.03-0.86 1.66-2.97l0.83-2.84 -7.45-25.14 4.52 0 4.69 18.47zm25.88 6.89l0-22.02 -3.3 0 0-3.34 3.3 0 0-2.94q0.08-3.86 1.95-6.03 1.89-2.17 5.34-2.17 1.23 0 2.5 0.41l-0.2 3.52q-0.89-0.22-1.91-0.22 -3.53 0-3.53 5.05l0 2.39 4.33 0 0 3.34 -4.33 0 0 22.02 -4.16 0zm12.5-13.86q0-5.53 2.67-8.75 2.69-3.22 7.09-3.22 4.41 0 7.09 3.14 2.69 3.14 2.75 8.55l0 2.67q0 5.52-2.67 8.73 -2.67 3.2-7.12 3.2 -4.41 0-7.06-3.11 -2.66-3.12-2.75-8.45l0-2.77zm4.14 2.39q0 3.92 1.53 6.16 1.55 2.23 4.14 2.23 5.48 0 5.66-7.92l0-2.86q0-3.89-1.55-6.14 -1.55-2.27-4.16-2.27 -2.55 0-4.09 2.27 -1.53 2.25-1.53 6.13l0 2.41zm31.3-10q-0.87-0.17-1.87-0.17 -3.19 0-4.45 3.5l0 18.14 -4.16 0 0-25.36 4.03 0 0.08 2.58q1.66-3.05 4.7-3.05 0.98 0 1.64 0.33l0.03 4.03zm19.03-3.89l0.09 2.34q2.31-2.81 6.11-2.81 4.25 0 5.94 3.67 2.39-3.67 6.66-3.67 7 0 7.17 8.73l0 17.09 -4.12 0 0-16.69q0-2.77-0.98-4.11 -0.98-1.36-3.33-1.36 -1.87 0-3.05 1.45 -1.17 1.45-1.36 3.7l0 17 -4.17 0 0-16.87q-0.08-5.28-4.3-5.28 -3.14 0-4.42 3.14l0 19.02 -4.12 0 0-25.36 3.89 0zm36.68 25.36l-4.16 0 0-25.36 4.16 0 0 25.36zm0.33-32.09q0 1.06-0.59 1.77 -0.58 0.7-1.78 0.7 -1.17 0-1.77-0.7 -0.58-0.7-0.58-1.75 0-1.06 0.58-1.78 0.59-0.73 1.77-0.73 1.17 0 1.77 0.73 0.61 0.73 0.61 1.77zm18.51 25.59q0-1.33-1.02-2.28 -1-0.97-3.87-2.27 -3.36-1.37-4.73-2.36 -1.36-0.98-2.05-2.23 -0.67-1.27-0.67-3 0-3.09 2.25-5.14 2.27-2.05 5.78-2.05 3.7 0 5.95 2.16 2.25 2.16 2.25 5.53l-4.12 0q0-1.72-1.16-2.92 -1.14-1.2-2.92-1.2 -1.83 0-2.87 0.95 -1.03 0.94-1.03 2.53 0 1.27 0.75 2.05 0.77 0.77 3.67 2.03 4.63 1.81 6.28 3.53 1.67 1.72 1.67 4.38 0 3.3-2.28 5.28 -2.27 1.98-6.09 1.98 -3.95 0-6.42-2.27 -2.45-2.28-2.45-5.78l4.17 0q0.06 2.11 1.28 3.31 1.22 1.19 3.42 1.19 2.06 0 3.14-0.92 1.08-0.92 1.08-2.5zm21.87 0q0-1.33-1.02-2.28 -1-0.97-3.87-2.27 -3.36-1.37-4.73-2.36 -1.36-0.98-2.05-2.23 -0.67-1.27-0.67-3 0-3.09 2.25-5.14 2.27-2.05 5.78-2.05 3.7 0 5.95 2.16 2.25 2.16 2.25 5.53l-4.12 0q0-1.72-1.16-2.92 -1.14-1.2-2.92-1.2 -1.83 0-2.87 0.95 -1.03 0.94-1.03 2.53 0 1.27 0.75 2.05 0.77 0.77 3.67 2.03 4.63 1.81 6.28 3.53 1.67 1.72 1.67 4.38 0 3.3-2.28 5.28 -2.27 1.98-6.09 1.98 -3.95 0-6.42-2.27 -2.45-2.28-2.45-5.78l4.17 0q0.06 2.11 1.28 3.31 1.22 1.19 3.42 1.19 2.06 0 3.14-0.92 1.08-0.92 1.08-2.5zm14.02 6.5l-4.16 0 0-25.36 4.16 0 0 25.36zm0.33-32.09q0 1.06-0.59 1.77 -0.58 0.7-1.78 0.7 -1.17 0-1.77-0.7 -0.58-0.7-0.58-1.75 0-1.06 0.58-1.78 0.59-0.73 1.77-0.73 1.17 0 1.77 0.73 0.61 0.73 0.61 1.77zm5.32 18.23q0-5.53 2.67-8.75 2.69-3.22 7.09-3.22 4.41 0 7.09 3.14 2.69 3.14 2.75 8.55l0 2.67q0 5.52-2.67 8.73 -2.67 3.2-7.12 3.2 -4.41 0-7.06-3.11 -2.66-3.12-2.75-8.45l0-2.77zm4.14 2.39q0 3.92 1.53 6.16 1.55 2.23 4.14 2.23 5.48 0 5.66-7.92l0-2.86q0-3.89-1.55-6.14 -1.55-2.27-4.16-2.27 -2.55 0-4.09 2.27 -1.53 2.25-1.53 6.13l0 2.41zm24.73-13.89l0.11 2.73q2.42-3.2 6.17-3.2 6.72 0 6.81 8.97l0 16.86 -4.12 0 0-16.67q0-2.97-1-4.22 -0.98-1.27-2.98-1.27 -1.55 0-2.78 1.03 -1.22 1.03-1.97 2.7l0 18.42 -4.16 0 0-25.36 3.92 0zm43.36 25.36q-0.37-0.83-0.55-2.77 -2.2 3.23-5.62 3.23 -3.44 0-5.37-1.94 -1.94-1.94-1.94-5.45 0-3.86 2.63-6.12 2.63-2.28 7.2-2.33l3.05 0 0-2.7q0-2.27-1.02-3.22 -1-0.97-3.06-0.97 -1.87 0-3.05 1.11 -1.17 1.11-1.17 2.83l-4.16 0q0-1.95 1.14-3.72 1.16-1.77 3.09-2.77 1.95-1.02 4.34-1.02 3.89 0 5.92 1.94 2.03 1.92 2.08 5.63l0 12.8q0.02 2.94 0.8 5.09l0 0.38 -4.31 0zm-5.53-3.31q1.52 0 2.89-0.84 1.39-0.84 2.03-2.11l0-6.05 -2.34 0q-2.95 0.05-4.67 1.33 -1.7 1.28-1.7 3.58 0 2.16 0.86 3.13 0.88 0.97 2.94 0.97zm27.79-3.19q0-1.33-1.02-2.28 -1-0.97-3.87-2.27 -3.36-1.37-4.73-2.36 -1.36-0.98-2.05-2.23 -0.67-1.27-0.67-3 0-3.09 2.25-5.14 2.27-2.05 5.78-2.05 3.7 0 5.95 2.16 2.25 2.16 2.25 5.53l-4.12 0q0-1.72-1.16-2.92 -1.14-1.2-2.92-1.2 -1.83 0-2.87 0.95 -1.03 0.94-1.03 2.53 0 1.27 0.75 2.05 0.77 0.77 3.67 2.03 4.63 1.81 6.28 3.53 1.67 1.72 1.67 4.38 0 3.3-2.28 5.28 -2.27 1.98-6.09 1.98 -3.95 0-6.42-2.27 -2.45-2.28-2.45-5.78l4.17 0q0.06 2.11 1.28 3.31 1.22 1.19 3.42 1.19 2.06 0 3.14-0.92 1.08-0.92 1.08-2.5zm21.87 0q0-1.33-1.02-2.28 -1-0.97-3.87-2.27 -3.36-1.37-4.73-2.36 -1.36-0.98-2.05-2.23 -0.67-1.27-0.67-3 0-3.09 2.25-5.14 2.27-2.05 5.78-2.05 3.7 0 5.95 2.16 2.25 2.16 2.25 5.53l-4.12 0q0-1.72-1.16-2.92 -1.14-1.2-2.92-1.2 -1.83 0-2.87 0.95 -1.03 0.94-1.03 2.53 0 1.27 0.75 2.05 0.77 0.77 3.67 2.03 4.63 1.81 6.28 3.53 1.67 1.72 1.67 4.38 0 3.3-2.28 5.28 -2.27 1.98-6.09 1.98 -3.95 0-6.42-2.27 -2.45-2.28-2.45-5.78l4.17 0q0.06 2.11 1.28 3.31 1.22 1.19 3.42 1.19 2.06 0 3.14-0.92 1.08-0.92 1.08-2.5zm14.02 6.5l-4.16 0 0-25.36 4.16 0 0 25.36zm0.33-32.09q0 1.06-0.59 1.77 -0.58 0.7-1.78 0.7 -1.17 0-1.77-0.7 -0.58-0.7-0.58-1.75 0-1.06 0.58-1.78 0.59-0.73 1.77-0.73 1.17 0 1.77 0.73 0.61 0.73 0.61 1.77zm5.37 18.27q0-5.94 2.16-8.97 2.16-3.03 6.3-3.03 3.88 0 5.89 3.3l0.2-2.83 3.75 0 0 25.59q0 4.72-2.42 7.23 -2.41 2.52-6.72 2.52 -1.87 0-4.2-0.92 -2.33-0.92-3.5-2.28l1.69-2.86q2.58 2.53 5.69 2.53 5.19 0 5.33-5.66l0-3.31q-2.02 2.98-5.72 2.98 -3.94 0-6.14-2.97 -2.2-2.97-2.3-8.52l0-2.81zm4.14 2.36q0 4.27 1.25 6.28 1.27 2 4.13 2 3.09 0 4.64-3.17l0-12.67q-1.62-3.12-4.59-3.12 -2.86 0-4.12 2.02 -1.27 2-1.3 6.14l0 2.53zm24.24-13.89l0.11 2.73q2.42-3.2 6.17-3.2 6.72 0 6.81 8.97l0 16.86 -4.12 0 0-16.67q0-2.97-1-4.22 -0.98-1.27-2.98-1.27 -1.55 0-2.78 1.03 -1.22 1.03-1.97 2.7l0 18.42 -4.16 0 0-25.36 3.92 0zm23.23 0l0.09 2.34q2.31-2.81 6.11-2.81 4.25 0 5.94 3.67 2.39-3.67 6.66-3.67 7 0 7.17 8.73l0 17.09 -4.12 0 0-16.69q0-2.77-0.98-4.11 -0.98-1.36-3.33-1.36 -1.87 0-3.05 1.45 -1.17 1.45-1.36 3.7l0 17 -4.17 0 0-16.87q-0.08-5.28-4.3-5.28 -3.14 0-4.42 3.14l0 19.02 -4.12 0 0-25.36 3.89 0zm41.27 25.83q-4.73 0-7.27-2.83 -2.53-2.83-2.58-8.28l0-3.08q0-5.67 2.47-8.89 2.47-3.22 6.91-3.22 4.45 0 6.66 2.84 2.2 2.83 2.25 8.83l0 2.72 -14.16 0 0 0.58q0 4.08 1.53 5.94 1.53 1.84 4.42 1.84 1.83 0 3.22-0.69 1.39-0.69 2.61-2.19l2.16 2.63q-2.69 3.8-8.22 3.8zm-0.47-22.73q-2.58 0-3.83 1.77 -1.23 1.77-1.41 5.5l9.98 0 0-0.56q-0.16-3.61-1.3-5.16 -1.14-1.55-3.45-1.55zm17.79-3.09l0.11 2.73q2.42-3.2 6.17-3.2 6.72 0 6.81 8.97l0 16.86 -4.12 0 0-16.67q0-2.97-1-4.22 -0.98-1.27-2.98-1.27 -1.55 0-2.78 1.03 -1.22 1.03-1.97 2.7l0 18.42 -4.16 0 0-25.36 3.92 0zm24.74-6.14l0 6.14 3.83 0 0 3.34 -3.83 0 0 15.73q0 1.5 0.48 2.28 0.5 0.77 1.7 0.77 0.81 0 1.66-0.28l-0.05 3.52q-1.41 0.47-2.87 0.47 -2.47 0-3.77-1.75 -1.28-1.77-1.28-4.98l0-15.75 -3.86 0 0-3.34 3.86 0 0-6.14 4.13 0zm9.02 29.22q0-1.12 0.67-1.87 0.67-0.75 2-0.75 1.34 0 2.03 0.75 0.69 0.75 0.69 1.88 0 1.08-0.69 1.81 -0.69 0.73-2.03 0.73 -1.33 0-2-0.73 -0.67-0.73-0.67-1.81z" class="e"/></g></svg>
