<svg xmlns="http://www.w3.org/2000/svg" viewBox="0 0 960 540" class="a"><style>.a{fill:none;}.b{fill:#fed47d;}.c{fill:#bf8ac9;}</style><path fill="#000000" d="m0 0l960.0 0l0 540.0l-960.0 0z" fill-rule="evenodd"/><clipPath><path d="m0 0l960 0 0 540 -960 0 0-540z"/></clipPath><g clip-path="url(#g18cebe3e77_0_50.0)"><path d="m0 0l960 0 0 540 -960 0z"/><path d="m68.92 152.94l0 0 0 205.69 -52.92 0 0-224.5 0 0 0-1.31 0.17-1.31 0.25-1.31 0.42-1.37 0.42-1.19 0.5-1.25 0.67-1.19 0.83-1.25 0.83-1.12 0.92-1.12 1-1.12 1.08-1 1.25-1 1.17-1.06 1.42-0.94 1.33-0.87 1.5-0.81 1.5-0.81 1.58-0.81 1.67-0.75 1.67-0.69 1.75-0.62 1.92-0.62 1.75-0.5 1.92-0.44 2-0.37 2.08-0.44 2-0.25 2.08-0.25 2-0.06 2.17-0.12 2.17-0.12 189.83 0 0 16.44 -140.83 0 0 0 -1.92 0 -2 0.13 -1.92 0.19 -1.75 0.19 -1.92 0.31 -1.75 0.44 -1.83 0.5 -1.75 0.5 -1.58 0.5 -1.67 0.63 -1.67 0.75 -1.42 0.69 -1.5 0.81 -1.5 0.94 -1.42 0.81 -1.33 1 -1.25 0.94 -1.17 1 -1.08 1.13 -1.17 1.13 -0.92 1.13 -0.92 1.25 -0.83 1.19 -0.83 1.31 -0.67 1.25 -0.58 1.31 -0.5 1.44 -0.42 1.31 -0.42 1.44 -0.17 1.44 -0.08 1.44 -0.17 1.44 0 0z" class="b"/><path d="m16 365.5l52.35 0 0 174.49 -52.35 0z" class="c"/><path d="m253.33 108l255.34 0 0 16.38 -255.34 0z" class="c"/><path d="m515.67 108l206.33 0 0 16.38 -206.33 0z" fill="#e3bc6d"/><path d="m729 108l230.99 0 0 16.38 -230.99 0z" fill="#a14141"/><path d="m89.76 124.38l822.24 0 0 392.79 -822.24 0z" class="a"/><path d="m300.99 233.04l-9.36 0 0 31.53 -7.69 0 0-31.53 -9.22 0 0-6.37 26.27 0 0 6.38zm11.24 5.83q2.39-2.98 5.88-2.98 3.86 0 5.86 2.7 2.02 2.7 2.03 8.06l0 17.92 -7.39 0 0-17.84q0-2.47-0.77-3.58 -0.77-1.11-2.48-1.11 -2.02 0-3.12 1.86l0 20.67 -7.37 0 0-40 7.38 0 0 14.3zm30.43 26.22q-5.67 0-8.86-3.37 -3.17-3.39-3.17-9.69l0-2.25q0-6.66 2.91-10.27 2.92-3.62 8.38-3.62 5.31 0 7.98 3.39 2.69 3.39 2.73 10.06l0 3.63 -14.66 0q0.16 3.13 1.38 4.58 1.23 1.44 3.78 1.44 3.7 0 6.17-2.53l2.89 4.45q-1.36 1.88-3.94 3.03 -2.58 1.16-5.59 1.16zm-4.64-17.28l7.38 0 0-0.69q-0.05-2.52-0.83-3.81 -0.78-1.31-2.72-1.31 -1.92 0-2.8 1.39 -0.87 1.38-1.03 4.42zm41.43-21.14l7.16 27.41 7.14-27.41 10 0 0 37.91 -7.69 0 0-10.27 0.7-15.8 -7.58 26.06 -5.2 0 -7.58-26.06 0.7 15.8 0 10.27 -7.66 0 0-37.91 10 0zm41.45 38.42q-5.67 0-8.86-3.37 -3.17-3.39-3.17-9.69l0-2.25q0-6.66 2.91-10.27 2.92-3.62 8.38-3.62 5.31 0 7.98 3.39 2.69 3.39 2.73 10.06l0 3.63 -14.66 0q0.16 3.13 1.38 4.58 1.23 1.44 3.78 1.44 3.7 0 6.17-2.53l2.89 4.45q-1.36 1.88-3.94 3.03 -2.58 1.16-5.59 1.16zm-4.64-17.28l7.38 0 0-0.69q-0.05-2.52-0.83-3.81 -0.78-1.31-2.72-1.31 -1.92 0-2.8 1.39 -0.87 1.38-1.03 4.42zm31.25 9.22q0-0.94-0.91-1.73 -0.89-0.8-3.98-2.16 -4.56-1.84-6.27-3.81 -1.7-1.98-1.7-4.94 0-3.69 2.66-6.09 2.67-2.41 7.08-2.41 4.64 0 7.42 2.39 2.78 2.39 2.78 6.42l-7.36 0q0-3.44-2.87-3.44 -1.17 0-1.92 0.73 -0.75 0.73-0.75 2.03 0 0.94 0.83 1.66 0.83 0.72 3.94 2.05 4.5 1.66 6.36 3.7 1.86 2.05 1.86 5.3 0 3.78-2.84 6.08 -2.83 2.28-7.44 2.28 -3.09 0-5.47-1.2 -2.37-1.22-3.72-3.37 -1.33-2.16-1.33-4.66l7 0q0.05 1.92 0.89 2.89 0.86 0.95 2.78 0.95 2.97 0 2.97-2.67zm24.22 0q0-0.94-0.91-1.73 -0.89-0.8-3.98-2.16 -4.56-1.84-6.27-3.81 -1.7-1.98-1.7-4.94 0-3.69 2.66-6.09 2.67-2.41 7.08-2.41 4.64 0 7.42 2.39 2.78 2.39 2.78 6.42l-7.36 0q0-3.44-2.87-3.44 -1.17 0-1.92 0.73 -0.75 0.73-0.75 2.03 0 0.94 0.83 1.66 0.83 0.72 3.94 2.05 4.5 1.66 6.36 3.7 1.86 2.05 1.86 5.3 0 3.78-2.84 6.08 -2.83 2.28-7.44 2.28 -3.09 0-5.47-1.2 -2.37-1.22-3.72-3.37 -1.33-2.16-1.33-4.66l7 0q0.05 1.92 0.89 2.89 0.86 0.95 2.78 0.95 2.97 0 2.97-2.67zm50.98 7.55l-7.62 0 0-16.22 -11.3 0 0 16.22 -7.66 0 0-37.91 7.66 0 0 15.33 11.3 0 0-15.33 7.63 0 0 37.91zm19.17 0q-0.31-0.66-0.62-2.19 -1.97 2.7-5.36 2.7 -3.55 0-5.87-2.34 -2.33-2.34-2.33-6.06 0-4.42 2.83-6.84 2.83-2.42 8.14-2.48l2.23 0 0-2.27q0-1.89-0.66-2.67 -0.64-0.78-1.89-0.78 -2.77 0-2.77 3.22l-7.37 0q0-3.91 2.92-6.44 2.94-2.53 7.42-2.53 4.64 0 7.17 2.41 2.55 2.41 2.55 6.88l0 13.27q0.05 3.64 1.03 5.7l0 0.44 -7.42 0zm-4.34-5.27q1.22 0 2.08-0.48 0.86-0.5 1.28-1.17l0-5.86 -1.77 0q-1.87 0-2.97 1.2 -1.08 1.19-1.08 3.19 0 3.13 2.45 3.13zm23.8 5.27l-7.41 0 0-40 7.41 0 0 40zm13.44 0l-7.41 0 0-40 7.41 0 0 40zm38.51-12.37l2.53-15.8 7.05 0 -5.83 28.17 -6.12 0 -3.98-16.3 -3.98 16.3 -6.14 0 -5.83-28.17 7.08 0 2.5 15.83 3.75-15.83 5.23 0 3.75 15.8zm20.97 12.38l-7.41 0 0-28.17 7.41 0 0 28.17zm-7.73-35.47q0-1.72 1.09-2.81 1.09-1.09 2.91-1.09 1.83 0 2.92 1.09 1.09 1.09 1.09 2.81 0 1.7-1.08 2.83 -1.08 1.11-2.94 1.11 -1.84 0-2.92-1.11 -1.08-1.12-1.08-2.83zm21.17 35.47l-7.41 0 0-40 7.41 0 0 40zm13.44 0l-7.41 0 0-40 7.41 0 0 40zm39.96-13.17q0 6.84-2.19 10.27 -2.19 3.42-6.87 3.42 -3.67 0-5.87-3.3l-0.23 2.78 -6.8 0 0-40 7.36 0 0 14.11q2.09-2.8 5.5-2.8 4.69 0 6.88 3.39 2.19 3.39 2.23 9.95l0 2.17zm-7.36-1.86q0-4.45-0.86-5.97 -0.86-1.53-3-1.53 -2.31 0-3.39 2.11l0 12.84q1 1.98 3.44 1.98 2.11 0 2.92-1.37 0.83-1.39 0.89-5.37l0-2.69zm23.17 15.55q-5.67 0-8.86-3.37 -3.17-3.39-3.17-9.69l0-2.25q0-6.66 2.91-10.27 2.92-3.62 8.38-3.62 5.31 0 7.98 3.39 2.69 3.39 2.73 10.06l0 3.63 -14.66 0q0.16 3.13 1.38 4.58 1.23 1.44 3.78 1.44 3.7 0 6.17-2.53l2.89 4.45q-1.36 1.88-3.94 3.03 -2.58 1.16-5.59 1.16zm-4.64-17.28l7.38 0 0-0.69q-0.05-2.52-0.83-3.81 -0.78-1.31-2.72-1.31 -1.92 0-2.8 1.39 -0.87 1.38-1.03 4.42z" class="b"/><path d="m224.26 321.58q0-6.41 3.02-10.05 3.02-3.64 8.36-3.64 5.39 0 8.41 3.64 3.03 3.64 3.03 10.09l0 1.8q0 6.44-3 10.06 -3 3.61-8.39 3.61 -5.41 0-8.42-3.62 -3-3.64-3-10.09l0-1.8zm7.39 1.84q0 7.56 4.03 7.56 3.73 0 4.02-6.31l0.03-3.09q0-3.86-1.08-5.72 -1.06-1.86-3.02-1.86 -1.87 0-2.94 1.86 -1.05 1.86-1.05 5.72l0 1.84zm41.96-0.05q0 6.64-2.28 10.19 -2.28 3.53-6.78 3.53 -3.44 0-5.53-2.78l0 13.09 -7.36 0 0-39 6.81 0 0.27 2.58q2.11-3.09 5.75-3.09 4.52 0 6.78 3.28 2.28 3.27 2.34 10.05l0 2.16zm-7.34-1.84q0-4.09-0.91-5.78 -0.89-1.7-3.03-1.7 -2.27 0-3.31 1.91l0 13.2q1 1.83 3.36 1.83 2.19 0 3.03-1.84 0.86-1.86 0.86-5.77l0-1.84zm23.17 15.56q-5.67 0-8.86-3.37 -3.17-3.39-3.17-9.69l0-2.25q0-6.66 2.91-10.27 2.92-3.62 8.38-3.62 5.31 0 7.98 3.39 2.69 3.39 2.73 10.06l0 3.63 -14.66 0q0.16 3.13 1.38 4.58 1.23 1.44 3.78 1.44 3.7 0 6.17-2.53l2.89 4.45q-1.36 1.88-3.94 3.03 -2.58 1.16-5.59 1.16zm-4.64-17.28l7.38 0 0-0.69q-0.05-2.52-0.83-3.81 -0.78-1.31-2.72-1.31 -1.92 0-2.8 1.39 -0.87 1.38-1.03 4.42zm25.52-11.41l0.22 2.78q2.5-3.3 6.53-3.3 7.27 0 7.47 10.17l0 18.52 -7.39 0 0-17.97q0-2.39-0.72-3.47 -0.72-1.09-2.52-1.09 -2 0-3.12 2.06l0 20.47 -7.39 0 0-28.17 6.92 0zm33.49 28.17l0-22.62 -3.41 0 0-5.55 3.41 0 0-2.53q0.03-4.66 2.45-7.25 2.44-2.59 6.73-2.59 1.31 0 3.34 0.53l-0.06 5.88q-0.75-0.23-1.8-0.23 -3.28 0-3.28 3.91l0 2.3 4.41 0 0 5.55 -4.41 0 0 22.63 -7.39 0zm29.69-21.06l-2.45-0.22q-3.02 0-4.09 2.66l0 18.63 -7.39 0 0-28.17 6.95 0 0.2 3.05q1.75-3.56 4.83-3.56 1.25 0 2.03 0.33l-0.08 7.3zm1.98 6.06q0-6.41 3.02-10.05 3.02-3.64 8.36-3.64 5.39 0 8.41 3.64 3.03 3.64 3.03 10.09l0 1.8q0 6.44-3 10.06 -3 3.61-8.39 3.61 -5.41 0-8.42-3.62 -3-3.64-3-10.09l0-1.8zm7.39 1.84q0 7.56 4.03 7.56 3.73 0 4.02-6.31l0.03-3.09q0-3.86-1.08-5.72 -1.06-1.86-3.02-1.86 -1.87 0-2.94 1.86 -1.05 1.86-1.05 5.72l0 1.84zm26.92-15.02l0.2 2.59q2.48-3.11 6.55-3.11 4.22 0 5.95 3.8 2.42-3.8 6.91-3.8 7.39 0 7.58 10.22l0 18.47 -7.37 0 0-18q0-2.44-0.69-3.48 -0.67-1.05-2.28-1.05 -2.05 0-3.06 2.53l0.05 0.89 0 19.11 -7.37 0 0-17.94q0-2.42-0.66-3.5 -0.64-1.09-2.31-1.09 -1.89 0-3.02 2.06l0 20.47 -7.37 0 0-28.17 6.91 0zm60.94 28.17l-7.41 0 0-28.95 -7.2 2.78 0-6.14 13.83-5.66 0.78 0 0 37.97zm33.09 0l-22.34 0 0-5.2 10.27-13.05q1.95-2.72 2.88-4.75 0.92-2.05 0.92-3.92 0-2.53-0.87-3.95 -0.86-1.44-2.5-1.44 -1.8 0-2.86 1.67 -1.05 1.66-1.05 4.67l-7.41 0q0-3.48 1.44-6.37 1.45-2.89 4.06-4.48 2.63-1.61 5.94-1.61 5.08 0 7.88 2.81 2.8 2.8 2.8 7.95 0 3.19-1.55 6.48 -1.55 3.3-5.61 8.11l-4.87 6.95 12.89 0 0 6.13zm5.49-3.75q0-1.77 1.19-2.91 1.19-1.16 3.08-1.16 1.86 0 3.08 1.14 1.22 1.13 1.22 2.92 0 1.83-1.23 2.94 -1.23 1.09-3.06 1.09 -1.84 0-3.06-1.11 -1.2-1.12-1.2-2.92zm0-21.3q0-1.77 1.19-2.91 1.19-1.16 3.08-1.16 1.86 0 3.08 1.14 1.22 1.13 1.22 2.92 0 1.83-1.23 2.94 -1.23 1.09-3.06 1.09 -1.84 0-3.06-1.11 -1.2-1.12-1.2-2.92zm35.81 9.38q0 7.86-2.86 12.03 -2.84 4.16-8.12 4.16 -5.23 0-8.09-4.05 -2.84-4.05-2.95-11.59l0-7.17q0-7.83 2.84-11.98 2.84-4.16 8.16-4.16 5.31 0 8.14 4.13 2.84 4.11 2.89 11.73l0 6.91zm-7.39-7.69q0-4.47-0.89-6.7 -0.87-2.25-2.75-2.25 -3.52 0-3.66 8.2l0 9.45q0 4.58 0.89 6.83 0.91 2.23 2.81 2.23 1.8 0 2.67-2.09 0.88-2.11 0.92-6.42l0-9.25zm34.37 7.69q0 7.86-2.86 12.03 -2.84 4.16-8.12 4.16 -5.23 0-8.09-4.05 -2.84-4.05-2.95-11.59l0-7.17q0-7.83 2.84-11.98 2.84-4.16 8.16-4.16 5.31 0 8.14 4.13 2.84 4.11 2.89 11.73l0 6.91zm-7.39-7.69q0-4.47-0.89-6.7 -0.87-2.25-2.75-2.25 -3.52 0-3.66 8.2l0 9.45q0 4.58 0.89 6.83 0.91 2.23 2.81 2.23 1.8 0 2.67-2.09 0.88-2.11 0.92-6.42l0-9.25zm33.41-11.73l0 6.92 3.78 0 0 5.55 -3.78 0 0 13.98q0 1.66 0.45 2.28 0.45 0.63 1.77 0.63 1.06 0 1.73-0.17l-0.05 5.72q-1.87 0.7-4.06 0.7 -7.14 0-7.22-8.17l0-14.97 -3.25 0 0-5.55 3.25 0 0-6.92 7.38 0zm6.18 20.09q0-6.41 3.02-10.05 3.02-3.64 8.36-3.64 5.39 0 8.41 3.64 3.03 3.64 3.03 10.09l0 1.8q0 6.44-3 10.06 -3 3.61-8.39 3.61 -5.41 0-8.42-3.62 -3-3.64-3-10.09l0-1.8zm7.39 1.84q0 7.56 4.03 7.56 3.73 0 4.02-6.31l0.03-3.09q0-3.86-1.08-5.72 -1.06-1.86-3.02-1.86 -1.87 0-2.94 1.86 -1.05 1.86-1.05 5.72l0 1.84zm48.31 13.16l-7.41 0 0-28.95 -7.2 2.78 0-6.14 13.83-5.66 0.78 0 0 37.97zm32.99-33.67l-11.98 33.67 -7.78 0 12.03-31.8 -15.22 0 0-6.11 22.95 0 0 4.23zm5.59 29.92q0-1.77 1.19-2.91 1.19-1.16 3.08-1.16 1.86 0 3.08 1.14 1.22 1.13 1.22 2.92 0 1.83-1.23 2.94 -1.23 1.09-3.06 1.09 -1.84 0-3.06-1.11 -1.2-1.12-1.2-2.92zm0-21.3q0-1.77 1.19-2.91 1.19-1.16 3.08-1.16 1.86 0 3.08 1.14 1.22 1.13 1.22 2.92 0 1.83-1.23 2.94 -1.23 1.09-3.06 1.09 -1.84 0-3.06-1.11 -1.2-1.12-1.2-2.92zm35.81 9.38q0 7.86-2.86 12.03 -2.84 4.16-8.12 4.16 -5.23 0-8.09-4.05 -2.84-4.05-2.95-11.59l0-7.17q0-7.83 2.84-11.98 2.84-4.16 8.16-4.16 5.31 0 8.14 4.13 2.84 4.11 2.89 11.73l0 6.91zm-7.39-7.69q0-4.47-0.89-6.7 -0.87-2.25-2.75-2.25 -3.52 0-3.66 8.2l0 9.45q0 4.58 0.89 6.83 0.91 2.23 2.81 2.23 1.8 0 2.67-2.09 0.88-2.11 0.92-6.42l0-9.25zm34.37 7.69q0 7.86-2.86 12.03 -2.84 4.16-8.12 4.16 -5.23 0-8.09-4.05 -2.84-4.05-2.95-11.59l0-7.17q0-7.83 2.84-11.98 2.84-4.16 8.16-4.16 5.31 0 8.14 4.13 2.84 4.11 2.89 11.73l0 6.91zm-7.39-7.69q0-4.47-0.89-6.7 -0.87-2.25-2.75-2.25 -3.52 0-3.66 8.2l0 9.45q0 4.58 0.89 6.83 0.91 2.23 2.81 2.23 1.8 0 2.67-2.09 0.88-2.11 0.92-6.42l0-9.25zm13.15 19.61q0-1.77 1.19-2.91 1.19-1.16 3.08-1.16 1.86 0 3.08 1.14 1.22 1.13 1.22 2.92 0 1.83-1.23 2.94 -1.23 1.09-3.06 1.09 -1.84 0-3.06-1.11 -1.2-1.12-1.2-2.92z" class="b"/><path d="m187.96 408.58l-7.66 0 0-37.91 7.66 0 0 37.91zm14.63-35.09l0 6.92 3.78 0 0 5.55 -3.78 0 0 13.98q0 1.66 0.45 2.28 0.45 0.63 1.77 0.63 1.06 0 1.73-0.17l-0.05 5.72q-1.87 0.7-4.06 0.7 -7.14 0-7.22-8.17l0-14.97 -3.25 0 0-5.55 3.25 0 0-6.92 7.38 0zm40.62 22.72l2.53-15.8 7.05 0 -5.83 28.17 -6.12 0 -3.98-16.3 -3.98 16.3 -6.14 0 -5.83-28.17 7.08 0 2.5 15.83 3.75-15.83 5.23 0 3.75 15.8zm20.97 12.38l-7.41 0 0-28.17 7.41 0 0 28.17zm-7.73-35.47q0-1.72 1.09-2.81 1.09-1.09 2.91-1.09 1.83 0 2.92 1.09 1.09 1.09 1.09 2.81 0 1.7-1.08 2.83 -1.08 1.11-2.94 1.11 -1.84 0-2.92-1.11 -1.08-1.12-1.08-2.83zm21.17 35.47l-7.41 0 0-40 7.41 0 0 40zm13.44 0l-7.41 0 0-40 7.41 0 0 40zm39.96-13.17q0 6.84-2.19 10.27 -2.19 3.42-6.87 3.42 -3.67 0-5.87-3.3l-0.23 2.78 -6.8 0 0-40 7.36 0 0 14.11q2.09-2.8 5.5-2.8 4.69 0 6.88 3.39 2.19 3.39 2.23 9.95l0 2.17zm-7.36-1.86q0-4.45-0.86-5.97 -0.86-1.53-3-1.53 -2.31 0-3.39 2.11l0 12.84q1 1.98 3.44 1.98 2.11 0 2.92-1.37 0.83-1.39 0.89-5.37l0-2.69zm23.17 15.55q-5.67 0-8.86-3.37 -3.17-3.39-3.17-9.69l0-2.25q0-6.66 2.91-10.27 2.92-3.62 8.38-3.62 5.31 0 7.98 3.39 2.69 3.39 2.73 10.06l0 3.63 -14.66 0q0.16 3.13 1.38 4.58 1.23 1.44 3.78 1.44 3.7 0 6.17-2.53l2.89 4.45q-1.36 1.88-3.94 3.03 -2.58 1.16-5.59 1.16zm-4.64-17.28l7.38 0 0-0.69q-0.05-2.52-0.83-3.81 -0.78-1.31-2.72-1.31 -1.92 0-2.8 1.39 -0.87 1.38-1.03 4.42zm44.98-4.3l-2.45-0.22q-3.02 0-4.09 2.66l0 18.63 -7.39 0 0-28.17 6.95 0 0.2 3.05q1.75-3.56 4.83-3.56 1.25 0 2.03 0.33l-0.08 7.3zm14.65 21.58q-5.67 0-8.86-3.37 -3.17-3.39-3.17-9.69l0-2.25q0-6.66 2.91-10.27 2.92-3.62 8.38-3.62 5.31 0 7.98 3.39 2.69 3.39 2.73 10.06l0 3.63 -14.66 0q0.16 3.13 1.38 4.58 1.23 1.44 3.78 1.44 3.7 0 6.17-2.53l2.89 4.45q-1.36 1.88-3.94 3.03 -2.58 1.16-5.59 1.16zm-4.64-17.28l7.38 0 0-0.69q-0.05-2.52-0.83-3.81 -0.78-1.31-2.72-1.31 -1.92 0-2.8 1.39 -0.87 1.38-1.03 4.42zm40.74 3.56q0 6.64-2.28 10.19 -2.28 3.53-6.78 3.53 -3.44 0-5.53-2.78l0 13.09 -7.36 0 0-39 6.81 0 0.27 2.58q2.11-3.09 5.75-3.09 4.52 0 6.78 3.28 2.28 3.27 2.34 10.05l0 2.16zm-7.34-1.84q0-4.09-0.91-5.78 -0.89-1.7-3.03-1.7 -2.27 0-3.31 1.91l0 13.2q1 1.83 3.36 1.83 2.19 0 3.03-1.84 0.86-1.86 0.86-5.77l0-1.84zm19.53 15.05l-7.41 0 0-40 7.41 0 0 40zm17.08 0.52q-5.67 0-8.86-3.37 -3.17-3.39-3.17-9.69l0-2.25q0-6.66 2.91-10.27 2.92-3.62 8.38-3.62 5.31 0 7.98 3.39 2.69 3.39 2.73 10.06l0 3.63 -14.66 0q0.16 3.13 1.38 4.58 1.23 1.44 3.78 1.44 3.7 0 6.17-2.53l2.89 4.45q-1.36 1.88-3.94 3.03 -2.58 1.16-5.59 1.16zm-4.64-17.28l7.38 0 0-0.69q-0.05-2.52-0.83-3.81 -0.78-1.31-2.72-1.31 -1.92 0-2.8 1.39 -0.87 1.38-1.03 4.42zm25.52-11.41l0.22 2.78q2.5-3.3 6.53-3.3 7.27 0 7.47 10.17l0 18.52 -7.39 0 0-17.97q0-2.39-0.72-3.47 -0.72-1.09-2.52-1.09 -2 0-3.12 2.06l0 20.47 -7.39 0 0-28.17 6.92 0zm27.25 28.17l-7.41 0 0-28.17 7.41 0 0 28.17zm-7.73-35.47q0-1.72 1.09-2.81 1.09-1.09 2.91-1.09 1.83 0 2.92 1.09 1.09 1.09 1.09 2.81 0 1.7-1.08 2.83 -1.08 1.11-2.94 1.11 -1.84 0-2.92-1.11 -1.08-1.12-1.08-2.83zm25.9 27.92q0-0.94-0.91-1.73 -0.89-0.8-3.98-2.16 -4.56-1.84-6.27-3.81 -1.7-1.98-1.7-4.94 0-3.69 2.66-6.09 2.67-2.41 7.08-2.41 4.64 0 7.42 2.39 2.78 2.39 2.78 6.42l-7.36 0q0-3.44-2.87-3.44 -1.17 0-1.92 0.73 -0.75 0.73-0.75 2.03 0 0.94 0.83 1.66 0.83 0.72 3.94 2.05 4.5 1.66 6.36 3.7 1.86 2.05 1.86 5.3 0 3.78-2.84 6.08 -2.83 2.28-7.44 2.28 -3.09 0-5.47-1.2 -2.37-1.22-3.72-3.37 -1.33-2.16-1.33-4.66l7 0q0.05 1.92 0.89 2.89 0.86 0.95 2.78 0.95 2.97 0 2.97-2.67zm18.94-18.16q2.39-2.98 5.88-2.98 3.86 0 5.86 2.7 2.02 2.7 2.03 8.06l0 17.92 -7.39 0 0-17.84q0-2.47-0.77-3.58 -0.77-1.11-2.48-1.11 -2.02 0-3.12 1.86l0 20.67 -7.37 0 0-40 7.38 0 0 14.3zm30.43 26.22q-5.67 0-8.86-3.37 -3.17-3.39-3.17-9.69l0-2.25q0-6.66 2.91-10.27 2.92-3.62 8.38-3.62 5.31 0 7.98 3.39 2.69 3.39 2.73 10.06l0 3.63 -14.66 0q0.16 3.13 1.38 4.58 1.23 1.44 3.78 1.44 3.7 0 6.17-2.53l2.89 4.45q-1.36 1.88-3.94 3.03 -2.58 1.16-5.59 1.16zm-4.64-17.28l7.38 0 0-0.69q-0.05-2.52-0.83-3.81 -0.78-1.31-2.72-1.31 -1.92 0-2.8 1.39 -0.87 1.38-1.03 4.42zm17.78 1.81q0-6.92 2.34-10.33 2.34-3.41 6.83-3.41 3.25 0 5.42 2.8l0-14.11 7.42 0 0 40 -6.7 0 -0.33-2.86q-2.27 3.38-5.84 3.38 -4.42 0-6.75-3.37 -2.33-3.39-2.39-9.95l0-2.14zm7.41 1.86q0 4.16 0.88 5.81 0.89 1.66 3 1.66 2.19 0 3.31-1.95l0-12.86q-1.09-2.09-3.28-2.09 -2.03 0-2.97 1.64 -0.94 1.64-0.94 5.84l0 1.95zm45.69 13.09q-0.31-0.66-0.62-2.19 -1.97 2.7-5.36 2.7 -3.55 0-5.87-2.34 -2.33-2.34-2.33-6.06 0-4.42 2.83-6.84 2.83-2.42 8.14-2.48l2.23 0 0-2.27q0-1.89-0.66-2.67 -0.64-0.78-1.89-0.78 -2.77 0-2.77 3.22l-7.37 0q0-3.91 2.92-6.44 2.94-2.53 7.42-2.53 4.64 0 7.17 2.41 2.55 2.41 2.55 6.88l0 13.27q0.05 3.64 1.03 5.7l0 0.44 -7.42 0zm-4.34-5.27q1.22 0 2.08-0.48 0.86-0.5 1.28-1.17l0-5.86 -1.77 0q-1.87 0-2.97 1.2 -1.08 1.19-1.08 3.19 0 3.13 2.45 3.13zm24.63-29.83l0 6.92 3.78 0 0 5.55 -3.78 0 0 13.98q0 1.66 0.45 2.28 0.45 0.63 1.77 0.63 1.06 0 1.73-0.17l-0.05 5.72q-1.87 0.7-4.06 0.7 -7.14 0-7.22-8.17l0-14.97 -3.25 0 0-5.55 3.25 0 0-6.92 7.38 0zm36.12 35.09l-7.41 0 0-28.95 -7.2 2.78 0-6.14 13.83-5.66 0.78 0 0 37.97zm30.18-14.33l3.22 0 0 6.13 -3.22 0 0 8.2 -7.37 0 0-8.2 -12.55 0 -0.34-4.77 12.86-24.94 7.41 0 0 23.58zm-13.11 0l5.73 0 0-12.67 -0.16 0.28 -5.58 12.39zm21.51 10.58q0-1.77 1.19-2.91 1.19-1.16 3.08-1.16 1.86 0 3.08 1.14 1.22 1.13 1.22 2.92 0 1.83-1.23 2.94 -1.23 1.09-3.06 1.09 -1.84 0-3.06-1.11 -1.2-1.12-1.2-2.92zm0-21.3q0-1.77 1.19-2.91 1.19-1.16 3.08-1.16 1.86 0 3.08 1.14 1.22 1.13 1.22 2.92 0 1.83-1.23 2.94 -1.23 1.09-3.06 1.09 -1.84 0-3.06-1.11 -1.2-1.12-1.2-2.92zm20.34 2.73l3.58 0q2.03 0 2.97-1.42 0.95-1.42 0.95-3.78 0-2.27-0.98-3.53 -0.97-1.27-2.61-1.27 -1.53 0-2.52 1.2 -0.97 1.19-0.97 3.02l-7.37 0q0-2.97 1.36-5.33 1.38-2.36 3.83-3.69 2.47-1.33 5.47-1.33 5.23 0 8.2 2.89 2.97 2.89 2.97 7.92 0 2.58-1.34 4.78 -1.34 2.19-3.53 3.36 2.69 1.16 4 3.45 1.31 2.28 1.31 5.41 0 5.05-3.22 8.09 -3.2 3.05-8.44 3.05 -4.87 0-7.91-3 -3.03-3.02-3.03-7.91l7.36 0q0 2.03 1.06 3.42 1.08 1.38 2.72 1.38 1.91 0 3-1.41 1.11-1.41 1.11-3.75 0-5.61-4.34-5.62l-3.62 0 0-5.94zm42.45 6.64q0 7.86-2.86 12.03 -2.84 4.16-8.12 4.16 -5.23 0-8.09-4.05 -2.84-4.05-2.95-11.59l0-7.17q0-7.83 2.84-11.98 2.84-4.16 8.16-4.16 5.31 0 8.14 4.13 2.84 4.11 2.89 11.73l0 6.91zm-7.39-7.69q0-4.47-0.89-6.7 -0.87-2.25-2.75-2.25 -3.52 0-3.66 8.2l0 9.45q0 4.58 0.89 6.83 0.91 2.23 2.81 2.23 1.8 0 2.67-2.09 0.88-2.11 0.92-6.42l0-9.25zm13.15 19.61q0-1.77 1.19-2.91 1.19-1.16 3.08-1.16 1.86 0 3.08 1.14 1.22 1.13 1.22 2.92 0 1.83-1.23 2.94 -1.23 1.09-3.06 1.09 -1.84 0-3.06-1.11 -1.2-1.12-1.2-2.92z" class="b"/></g></svg>