<svg xmlns="http://www.w3.org/2000/svg" viewBox="0 0 960 540" class="a"><style>.a{fill:none;}.b{fill:#bf8ac9;}.c{fill:#fed47d;}.d{fill:#ff7500;}</style><path fill="#000000" d="m0 0l960.0 0l0 540.0l-960.0 0z" fill-rule="evenodd"/><clipPath><path d="m0 0l960 0 0 540 -960 0 0-540z"/></clipPath><g clip-path="url(#g18d14ebf02_0_20.0)"><path d="m0 0l960 0 0 540 -960 0z"/><path d="m158.92 338.31l0 0 0-18.94 -118.92 0 0 37.13 0 0 0 1.31 0.08 1.31 0.33 1.38 0.42 1.31 0.5 1.19 0.58 1.25 0.67 1.25 0.67 1.19 0.83 1.13 0.92 1.13 1.08 1.13 1.08 1 1.08 1.06 1.25 1 1.33 0.94 1.42 0.88 1.5 0.81 1.5 0.94 1.58 0.75 1.67 0.69 1.75 0.69 1.75 0.63 1.75 0.63 1.92 0.5 1.92 0.44 1.92 0.38 2 0.44 2.08 0.31 2 0.19 2.25 0.19 2 0.13 2.17 0 255.67 0 0-15.75 -140.83 0 0 0 -1.92-0.06 -1.92-0.12 -1.83-0.19 -1.92-0.19 -1.92-0.31 -1.75-0.44 -1.83-0.37 -1.75-0.56 -1.58-0.56 -1.67-0.62 -1.67-0.75 -1.5-0.69 -1.5-0.81 -1.42-0.81 -1.42-0.94 -1.25-0.87 -1.33-1.06 -1.25-1 -1.08-1.12 -1.08-1.12 -0.92-1.12 -1-1.25 -0.75-1.19 -0.67-1.25 -0.75-1.31 -0.67-1.31 -0.5-1.31 -0.42-1.44 -0.25-1.44 -0.33-1.44 -0.08-1.44 0-1.44 0 0z" fill="#8b87ff"/><path d="m792.92 411.17l0 0 0 13.7 118.92 0 0-31.85 0 0 0-1.44 -0.25-1.31 -0.25-1.25 -0.25-1.31 -0.58-1.25 -0.58-1.19 -0.67-1.25 -0.67-1.25 -0.92-1.13 -0.83-1.06 -1.08-1.13 -1.08-1.06 -1.08-1 -1.42-1 -1.17-0.94 -1.5-0.94 -1.42-0.88 -1.58-0.88 -1.5-0.69 -1.67-0.81 -1.75-0.63 -1.75-0.63 -1.75-0.56 -1.92-0.56 -1.92-0.5 -1.92-0.38 -2-0.31 -2.08-0.31 -2-0.19 -2.25-0.25 -2-0.06 -2.17 0 -157.83 0 0 15.7 42.83 0 0 0 2.08 0 1.92 0.19 1.92 0.13 1.83 0.31 1.83 0.31 1.83 0.38 1.83 0.44 1.58 0.5 1.75 0.63 1.67 0.63 1.67 0.69 1.5 0.75 1.5 0.81 1.33 0.81 1.5 0.88 1.25 0.94 1.33 1 1.08 1.06 1.25 1 0.92 1.13 1.08 1.25 1 1.19 0.75 1.25 0.75 1.19 0.67 1.38 0.67 1.31 0.42 1.31 0.5 1.44 0.33 1.31 0.25 1.44 0.08 1.5 0 1.44 0 0z" fill="#a14141"/><path d="m40 0l119.34 0 0 312 -119.34 0z" class="b"/><path d="m343.17 366.87l178.49 0 0 15.75 -178.49 0z" class="b"/><path d="m527.17 366.87l176.82 0 0 15.75 -176.82 0z" class="c"/><path d="m911.83 540.12l-119.5 0 0.17-111 119.5 0 -0.17 111z" class="c"/><path d="m170.29 4.01l717.64 0 0 362.68 -717.64 0z" class="a"/><path d="m191.06 120.43l0 12 -6.89 0 0-34.12 11.63 0q5.06 0 8.06 3.14 3.02 3.14 3.02 8.16 0 5.02-2.98 7.92 -2.97 2.91-8.23 2.91l-4.59 0zm0-5.75l4.73 0q1.97 0 3.05-1.28 1.08-1.3 1.08-3.75 0-2.56-1.11-4.06 -1.09-1.52-2.95-1.55l-4.8 0 0 10.64zm27.04 17.75l-6.66 0 0-36 6.66 0 0 36zm15.38 0.47q-5.11 0-7.97-3.05 -2.86-3.05-2.86-8.72l0-2.02q0-6 2.63-9.25 2.63-3.27 7.53-3.27 4.78 0 7.19 3.06 2.42 3.05 2.47 9.05l0 3.27 -13.2 0q0.14 2.81 1.23 4.11 1.11 1.3 3.41 1.3 3.33 0 5.56-2.27l2.59 4q-1.22 1.69-3.55 2.73 -2.31 1.05-5.03 1.05zm-4.17-15.56l6.64 0 0-0.61q-0.05-2.28-0.75-3.45 -0.7-1.17-2.44-1.17 -1.73 0-2.53 1.25 -0.78 1.23-0.92 3.98zm28.95 15.09q-0.28-0.59-0.56-1.97 -1.78 2.44-4.83 2.44 -3.19 0-5.3-2.11 -2.09-2.11-2.09-5.47 0-3.98 2.55-6.16 2.55-2.19 7.33-2.23l2.02 0 0-2.03q0-1.72-0.59-2.42 -0.58-0.7-1.7-0.7 -2.48 0-2.48 2.91l-6.64 0q0-3.52 2.64-5.8 2.64-2.28 6.67-2.28 4.17 0 6.45 2.17 2.28 2.16 2.28 6.19l0 11.94q0.05 3.28 0.94 5.13l0 0.41 -6.67 0zm-3.92-4.73q1.11 0 1.88-0.44 0.78-0.45 1.16-1.06l0-5.28 -1.59 0q-1.69 0-2.67 1.08 -0.97 1.08-0.97 2.89 0 2.81 2.2 2.81zm25.69-2.06q0-0.84-0.81-1.56 -0.8-0.72-3.59-1.94 -4.09-1.66-5.64-3.44 -1.53-1.78-1.53-4.44 0-3.33 2.41-5.48 2.41-2.17 6.36-2.17 4.17 0 6.67 2.16 2.52 2.16 2.52 5.78l-6.62 0q0-3.09-2.58-3.09 -1.06 0-1.75 0.66 -0.67 0.66-0.67 1.83 0 0.84 0.75 1.5 0.75 0.64 3.55 1.83 4.05 1.5 5.72 3.34 1.69 1.84 1.69 4.77 0 3.41-2.56 5.47 -2.55 2.06-6.7 2.06 -2.78 0-4.92-1.09 -2.12-1.09-3.34-3.03 -1.2-1.95-1.2-4.2l6.31 0q0.05 1.73 0.8 2.61 0.77 0.86 2.5 0.86 2.67 0 2.67-2.41zm20.81 7.27q-5.11 0-7.97-3.05 -2.86-3.05-2.86-8.72l0-2.02q0-6 2.63-9.25 2.63-3.27 7.53-3.27 4.78 0 7.19 3.06 2.42 3.05 2.47 9.05l0 3.27 -13.2 0q0.14 2.81 1.23 4.11 1.11 1.3 3.41 1.3 3.33 0 5.56-2.27l2.59 4q-1.22 1.69-3.55 2.73 -2.31 1.05-5.03 1.05zm-4.17-15.56l6.64 0 0-0.61q-0.05-2.28-0.75-3.45 -0.7-1.17-2.44-1.17 -1.73 0-2.53 1.25 -0.78 1.23-0.92 3.98zm40.02 15.09q-0.28-0.59-0.56-1.97 -1.78 2.44-4.83 2.44 -3.19 0-5.3-2.11 -2.09-2.11-2.09-5.47 0-3.98 2.55-6.16 2.55-2.19 7.33-2.23l2.02 0 0-2.03q0-1.72-0.59-2.42 -0.58-0.7-1.7-0.7 -2.48 0-2.48 2.91l-6.64 0q0-3.52 2.64-5.8 2.64-2.28 6.67-2.28 4.17 0 6.45 2.17 2.28 2.16 2.28 6.19l0 11.94q0.05 3.28 0.94 5.13l0 0.41 -6.67 0zm-3.92-4.73q1.11 0 1.88-0.44 0.78-0.45 1.16-1.06l0-5.28 -1.59 0q-1.69 0-2.67 1.08 -0.97 1.08-0.97 2.89 0 2.81 2.2 2.81zm22.43-4.64l3.22-15.98 6.91 0 -6.95 25.36 -6.33 0 -6.98-25.36 6.94 0 3.2 15.98zm12.12-4.12q0-5.77 2.72-9.05 2.72-3.28 7.53-3.28 4.84 0 7.56 3.28 2.72 3.28 2.72 9.09l0 1.61q0 5.8-2.7 9.06 -2.69 3.25-7.53 3.25 -4.87 0-7.59-3.27 -2.7-3.28-2.7-9.09l0-1.61zm6.66 1.66q0 6.8 3.64 6.8 3.34 0 3.61-5.67l0.02-2.78q0-3.47-0.97-5.14 -0.95-1.69-2.7-1.69 -1.69 0-2.64 1.69 -0.95 1.67-0.95 5.14l0 1.66zm24.96 11.84l-6.66 0 0-25.36 6.66 0 0 25.36zm-6.95-31.92q0-1.55 0.98-2.53 0.98-0.98 2.63-0.98 1.64 0 2.63 0.98 0.98 0.98 0.98 2.53 0 1.52-0.98 2.53 -0.97 1-2.64 1 -1.66 0-2.62-1 -0.97-1.02-0.97-2.53zm11.2 18.47q0-6.23 2.11-9.3 2.11-3.08 6.14-3.08 2.92 0 4.88 2.53l0-12.7 6.67 0 0 36 -6.02 0 -0.31-2.58q-2.03 3.05-5.25 3.05 -3.98 0-6.08-3.05 -2.09-3.05-2.14-8.95l0-1.92zm6.66 1.66q0 3.75 0.8 5.25 0.8 1.48 2.69 1.48 1.97 0 2.98-1.77l0-11.58q-0.98-1.87-2.95-1.87 -1.83 0-2.67 1.48 -0.84 1.47-0.84 5.25l0 1.75zm28.2-1.66q0-6.23 2.11-9.3 2.11-3.08 6.14-3.08 2.92 0 4.88 2.53l0-12.7 6.67 0 0 36 -6.02 0 -0.31-2.58q-2.03 3.05-5.25 3.05 -3.98 0-6.08-3.05 -2.09-3.05-2.14-8.95l0-1.92zm6.66 1.66q0 3.75 0.8 5.25 0.8 1.48 2.69 1.48 1.97 0 2.98-1.77l0-11.58q-0.98-1.87-2.95-1.87 -1.83 0-2.67 1.48 -0.84 1.47-0.84 5.25l0 1.75zm30.07 11.8q-0.28-0.59-0.56-1.97 -1.78 2.44-4.83 2.44 -3.19 0-5.3-2.11 -2.09-2.11-2.09-5.47 0-3.98 2.55-6.16 2.55-2.19 7.33-2.23l2.02 0 0-2.03q0-1.72-0.59-2.42 -0.58-0.7-1.7-0.7 -2.48 0-2.48 2.91l-6.64 0q0-3.52 2.64-5.8 2.64-2.28 6.67-2.28 4.17 0 6.45 2.17 2.28 2.16 2.28 6.19l0 11.94q0.05 3.28 0.94 5.13l0 0.41 -6.67 0zm-3.92-4.73q1.11 0 1.88-0.44 0.78-0.45 1.16-1.06l0-5.28 -1.59 0q-1.69 0-2.67 1.08 -0.97 1.08-0.97 2.89 0 2.81 2.2 2.81zm20.7-20.62l0.19 2.34q2.22-2.81 5.88-2.81 3.8 0 5.38 3.42 2.17-3.42 6.2-3.42 6.66 0 6.83 9.2l0 16.63 -6.64 0 0-16.2q0-2.2-0.61-3.14 -0.61-0.94-2.06-0.94 -1.84 0-2.77 2.28l0.05 0.8 0 17.2 -6.62 0 0-16.16q0-2.17-0.59-3.14 -0.58-0.98-2.08-0.98 -1.72 0-2.72 1.86l0 18.42 -6.64 0 0-25.36 6.22 0zm41.41 25.36q-0.28-0.59-0.56-1.97 -1.78 2.44-4.83 2.44 -3.19 0-5.3-2.11 -2.09-2.11-2.09-5.47 0-3.98 2.55-6.16 2.55-2.19 7.33-2.23l2.02 0 0-2.03q0-1.72-0.59-2.42 -0.58-0.7-1.7-0.7 -2.48 0-2.48 2.91l-6.64 0q0-3.52 2.64-5.8 2.64-2.28 6.67-2.28 4.17 0 6.45 2.17 2.28 2.16 2.28 6.19l0 11.94q0.05 3.28 0.94 5.13l0 0.41 -6.67 0zm-3.92-4.73q1.11 0 1.88-0.44 0.78-0.45 1.16-1.06l0-5.28 -1.59 0q-1.69 0-2.67 1.08 -0.97 1.08-0.97 2.89 0 2.81 2.2 2.81zm13.67-8.72q0-6.23 2.25-9.3 2.25-3.08 6.3-3.08 3.45 0 5.33 2.72l0.25-2.25 5.98 0 0 25.36q0 4.86-2.72 7.42 -2.72 2.56-7.81 2.56 -2.08 0-4.37-0.83 -2.3-0.83-3.42-2.12l2.22-4.59q0.94 0.98 2.44 1.61 1.5 0.63 2.84 0.63 2.22 0 3.19-1.08 0.98-1.06 1-3.42l0-2.19q-1.89 2.48-4.94 2.48 -4.06 0-6.28-3.16 -2.2-3.16-2.25-8.89l0-1.87zm6.63 1.66q0 3.52 0.91 5.13 0.92 1.61 2.92 1.61 2.03 0 3.02-1.48l0-12.11q-1.03-1.62-2.97-1.62 -1.97 0-2.92 1.63 -0.95 1.61-0.95 5.2l0 1.66zm25.27 11.8l-6.66 0 0-25.36 6.66 0 0 25.36zm-6.95-31.92q0-1.55 0.98-2.53 0.98-0.98 2.63-0.98 1.64 0 2.63 0.98 0.98 0.98 0.98 2.53 0 1.52-0.98 2.53 -0.97 1-2.64 1 -1.66 0-2.62-1 -0.97-1.02-0.97-2.53zm18.16 6.56l0.19 2.5q2.25-2.97 5.89-2.97 6.53 0 6.72 9.16l0 16.67 -6.66 0 0-16.17q0-2.16-0.64-3.12 -0.64-0.98-2.27-0.98 -1.8 0-2.81 1.86l0 18.42 -6.66 0 0-25.36 6.23 0zm16.77 11.91q0-6.23 2.25-9.3 2.25-3.08 6.3-3.08 3.45 0 5.33 2.72l0.25-2.25 5.98 0 0 25.36q0 4.86-2.72 7.42 -2.72 2.56-7.81 2.56 -2.08 0-4.37-0.83 -2.3-0.83-3.42-2.12l2.22-4.59q0.94 0.98 2.44 1.61 1.5 0.63 2.84 0.63 2.22 0 3.19-1.08 0.98-1.06 1-3.42l0-2.19q-1.89 2.48-4.94 2.48 -4.06 0-6.28-3.16 -2.2-3.16-2.25-8.89l0-1.87zm6.63 1.66q0 3.52 0.91 5.13 0.92 1.61 2.92 1.61 2.03 0 3.02-1.48l0-12.11q-1.03-1.62-2.97-1.62 -1.97 0-2.92 1.63 -0.95 1.61-0.95 5.2l0 1.66zm37.08-19.8l0 6.23 3.41 0 0 4.98 -3.41 0 0 12.59q0 1.5 0.41 2.06 0.42 0.56 1.59 0.56 0.95 0 1.56-0.17l-0.05 5.16q-1.69 0.64-3.66 0.64 -6.42 0-6.48-7.36l0-13.48 -2.94 0 0-4.98 2.94 0 0-6.23 6.63 0zm13.51 8.45q2.16-2.69 5.3-2.69 3.47 0 5.27 2.44 1.81 2.44 1.83 7.27l0 16.13 -6.66 0 0-16.06q0-2.22-0.69-3.22 -0.69-1-2.23-1 -1.81 0-2.81 1.67l0 18.61 -6.64 0 0-36 6.64 0 0 12.86zm27.39 23.61q-5.11 0-7.97-3.05 -2.86-3.05-2.86-8.72l0-2.02q0-6 2.63-9.25 2.63-3.27 7.53-3.27 4.78 0 7.19 3.06 2.42 3.05 2.47 9.05l0 3.27 -13.2 0q0.14 2.81 1.23 4.11 1.11 1.3 3.41 1.3 3.33 0 5.56-2.27l2.59 4q-1.22 1.69-3.55 2.73 -2.31 1.05-5.03 1.05zm-4.17-15.56l6.64 0 0-0.61q-0.05-2.28-0.75-3.45 -0.7-1.17-2.44-1.17 -1.73 0-2.53 1.25 -0.78 1.23-0.92 3.98zm29.48 15.09l0-20.37 -3.06 0 0-4.98 3.06 0 0-2.28q0.03-4.19 2.22-6.52 2.19-2.34 6.06-2.34 1.17 0 3 0.47l-0.05 5.3q-0.69-0.2-1.62-0.2 -2.95 0-2.95 3.52l0 2.06 3.97 0 0 4.98 -3.97 0 0 20.38 -6.66 0zm26.26 0q-0.28-0.59-0.56-1.97 -1.78 2.44-4.83 2.44 -3.19 0-5.3-2.11 -2.09-2.11-2.09-5.47 0-3.98 2.55-6.16 2.55-2.19 7.33-2.23l2.02 0 0-2.03q0-1.72-0.59-2.42 -0.58-0.7-1.7-0.7 -2.48 0-2.48 2.91l-6.64 0q0-3.52 2.64-5.8 2.64-2.28 6.67-2.28 4.17 0 6.45 2.17 2.28 2.16 2.28 6.19l0 11.94q0.05 3.28 0.94 5.13l0 0.41 -6.67 0zm-3.92-4.73q1.11 0 1.88-0.44 0.78-0.45 1.16-1.06l0-5.28 -1.59 0q-1.69 0-2.67 1.08 -0.97 1.08-0.97 2.89 0 2.81 2.2 2.81zm23.63-0.31q2.89 0 2.94-3.75l6.23 0q-0.05 4.16-2.56 6.72 -2.5 2.55-6.47 2.55 -4.89 0-7.47-3.05 -2.58-3.05-2.62-8.98l0-2.02q0-5.97 2.53-9.11 2.55-3.14 7.52-3.14 4.2 0 6.61 2.59 2.42 2.58 2.47 7.34l-6.23 0q-0.03-2.14-0.72-3.28 -0.67-1.16-2.23-1.16 -1.73 0-2.48 1.23 -0.75 1.23-0.8 4.77l0 2.58q0 3.09 0.3 4.33 0.31 1.23 1.02 1.81 0.7 0.56 1.98 0.56zm19.88 5.05l-6.66 0 0-25.36 6.66 0 0 25.36zm-6.95-31.92q0-1.55 0.98-2.53 0.98-0.98 2.63-0.98 1.64 0 2.63 0.98 0.98 0.98 0.98 2.53 0 1.52-0.98 2.53 -0.97 1-2.64 1 -1.66 0-2.62-1 -0.97-1.02-0.97-2.53zm19.05 31.92l-6.66 0 0-36 6.66 0 0 36zm12.09 0l-6.66 0 0-25.36 6.66 0 0 25.36zm-6.95-31.92q0-1.55 0.98-2.53 0.98-0.98 2.63-0.98 1.64 0 2.63 0.98 0.98 0.98 0.98 2.53 0 1.52-0.98 2.53 -0.97 1-2.64 1 -1.66 0-2.62-1 -0.97-1.02-0.97-2.53zm19.8 0.33l0 6.23 3.41 0 0 4.98 -3.41 0 0 12.59q0 1.5 0.41 2.06 0.42 0.56 1.59 0.56 0.95 0 1.56-0.17l-0.05 5.16q-1.69 0.64-3.66 0.64 -6.42 0-6.48-7.36l0-13.48 -2.94 0 0-4.98 2.94 0 0-6.23 6.63 0zm13.99 31.59l-6.66 0 0-25.36 6.66 0 0 25.36zm-6.95-31.92q0-1.55 0.98-2.53 0.98-0.98 2.63-0.98 1.64 0 2.63 0.98 0.98 0.98 0.98 2.53 0 1.52-0.98 2.53 -0.97 1-2.64 1 -1.66 0-2.62-1 -0.97-1.02-0.97-2.53zm22.33 32.39q-5.11 0-7.97-3.05 -2.86-3.05-2.86-8.72l0-2.02q0-6 2.63-9.25 2.63-3.27 7.53-3.27 4.78 0 7.19 3.06 2.42 3.05 2.47 9.05l0 3.27 -13.2 0q0.14 2.81 1.23 4.11 1.11 1.3 3.41 1.3 3.33 0 5.56-2.27l2.59 4q-1.22 1.69-3.55 2.73 -2.31 1.05-5.03 1.05zm-4.17-15.56l6.64 0 0-0.61q-0.05-2.28-0.75-3.45 -0.7-1.17-2.44-1.17 -1.73 0-2.53 1.25 -0.78 1.23-0.92 3.98zm28.13 8.3q0-0.84-0.81-1.56 -0.8-0.72-3.59-1.94 -4.09-1.66-5.64-3.44 -1.53-1.78-1.53-4.44 0-3.33 2.41-5.48 2.41-2.17 6.36-2.17 4.17 0 6.67 2.16 2.52 2.16 2.52 5.78l-6.62 0q0-3.09-2.58-3.09 -1.06 0-1.75 0.66 -0.67 0.66-0.67 1.83 0 0.84 0.75 1.5 0.75 0.64 3.55 1.83 4.05 1.5 5.72 3.34 1.69 1.84 1.69 4.77 0 3.41-2.56 5.47 -2.55 2.06-6.7 2.06 -2.78 0-4.92-1.09 -2.12-1.09-3.34-3.03 -1.2-1.95-1.2-4.2l6.31 0q0.05 1.73 0.8 2.61 0.77 0.86 2.5 0.86 2.67 0 2.67-2.41z" class="d"/><path d="m226.19 184.93q0-5.77 2.72-9.05 2.72-3.28 7.53-3.28 4.84 0 7.56 3.28 2.72 3.28 2.72 9.09l0 1.61q0 5.8-2.7 9.06 -2.69 3.25-7.53 3.25 -4.87 0-7.59-3.27 -2.7-3.28-2.7-9.09l0-1.61zm6.66 1.66q0 6.8 3.64 6.8 3.34 0 3.61-5.67l0.02-2.78q0-3.47-0.97-5.14 -0.95-1.69-2.7-1.69 -1.69 0-2.64 1.69 -0.95 1.67-0.95 5.14l0 1.66zm30.52-7.12l-2.2-0.19q-2.72 0-3.69 2.39l0 16.77 -6.66 0 0-25.36 6.27 0 0.19 2.73q1.56-3.2 4.33-3.2 1.13 0 1.83 0.3l-0.06 6.56zm20.7-6.39l0.19 2.34q2.22-2.81 5.88-2.81 3.8 0 5.38 3.42 2.17-3.42 6.2-3.42 6.66 0 6.83 9.2l0 16.63 -6.64 0 0-16.2q0-2.2-0.61-3.14 -0.61-0.94-2.06-0.94 -1.84 0-2.77 2.28l0.05 0.8 0 17.2 -6.62 0 0-16.16q0-2.17-0.59-3.14 -0.58-0.98-2.08-0.98 -1.72 0-2.72 1.86l0 18.42 -6.64 0 0-25.36 6.22 0zm41.41 25.36q-0.28-0.59-0.56-1.97 -1.78 2.44-4.83 2.44 -3.19 0-5.3-2.11 -2.09-2.11-2.09-5.47 0-3.98 2.55-6.16 2.55-2.19 7.33-2.23l2.02 0 0-2.03q0-1.72-0.59-2.42 -0.58-0.7-1.7-0.7 -2.48 0-2.48 2.91l-6.64 0q0-3.52 2.64-5.8 2.64-2.28 6.67-2.28 4.17 0 6.45 2.17 2.28 2.16 2.28 6.19l0 11.94q0.05 3.28 0.94 5.13l0 0.41 -6.67 0zm-3.92-4.73q1.11 0 1.88-0.44 0.78-0.45 1.16-1.06l0-5.28 -1.59 0q-1.69 0-2.67 1.08 -0.97 1.08-0.97 2.89 0 2.81 2.2 2.81zm22.88-5.05l-1.78 2 0 7.78 -6.62 0 0-36 6.63 0 0 19.45 0.83-1.22 4.59-7.59 7.89 0 -7.36 10.45 8.06 14.91 -7.59 0 -4.64-9.78zm21.52 9.78l-6.66 0 0-25.36 6.66 0 0 25.36zm-6.95-31.92q0-1.55 0.98-2.53 0.98-0.98 2.63-0.98 1.64 0 2.63 0.98 0.98 0.98 0.98 2.53 0 1.52-0.98 2.53 -0.97 1-2.64 1 -1.66 0-2.62-1 -0.97-1.02-0.97-2.53zm18.16 6.56l0.19 2.5q2.25-2.97 5.89-2.97 6.53 0 6.72 9.16l0 16.67 -6.66 0 0-16.17q0-2.16-0.64-3.12 -0.64-0.98-2.27-0.98 -1.8 0-2.81 1.86l0 18.42 -6.66 0 0-25.36 6.23 0zm16.77 11.91q0-6.23 2.25-9.3 2.25-3.08 6.3-3.08 3.45 0 5.33 2.72l0.25-2.25 5.98 0 0 25.36q0 4.86-2.72 7.42 -2.72 2.56-7.81 2.56 -2.08 0-4.37-0.83 -2.3-0.83-3.42-2.12l2.22-4.59q0.94 0.98 2.44 1.61 1.5 0.63 2.84 0.63 2.22 0 3.19-1.08 0.98-1.06 1-3.42l0-2.19q-1.89 2.48-4.94 2.48 -4.06 0-6.28-3.16 -2.2-3.16-2.25-8.89l0-1.87zm6.63 1.66q0 3.52 0.91 5.13 0.92 1.61 2.92 1.61 2.03 0 3.02-1.48l0-12.11q-1.03-1.62-2.97-1.62 -1.97 0-2.92 1.63 -0.95 1.61-0.95 5.2l0 1.66zm49.13-0.09q0 5.98-2.05 9.17 -2.05 3.19-6.11 3.19 -3.09 0-4.97-2.52l0 11.8 -6.62 0 0-35.11 6.14 0 0.23 2.31q1.89-2.78 5.17-2.78 4.06 0 6.11 2.95 2.05 2.95 2.09 9.05l0 1.94zm-6.61-1.66q0-3.69-0.81-5.2 -0.8-1.53-2.72-1.53 -2.05 0-2.98 1.72l0 11.88q0.89 1.64 3.03 1.64 1.97 0 2.72-1.66 0.77-1.67 0.77-5.19l0-1.66zm17.09-9.59q2.16-2.69 5.3-2.69 3.47 0 5.27 2.44 1.81 2.44 1.83 7.27l0 16.13 -6.66 0 0-16.06q0-2.22-0.69-3.22 -0.69-1-2.23-1 -1.81 0-2.81 1.67l0 18.61 -6.64 0 0-36 6.64 0 0 12.86zm25.28 12.09l3.38-14.31 7.08 0 -8.34 29.16q-1.87 6.45-7.05 6.45 -1.2 0-2.72-0.45l0-5.17 0.77 0.02q1.55 0 2.33-0.59 0.8-0.59 1.19-2.08l0.52-1.7 -7.31-25.62 7.13 0 3.05 14.31zm24.52 4.25q0-0.84-0.81-1.56 -0.8-0.72-3.59-1.94 -4.09-1.66-5.64-3.44 -1.53-1.78-1.53-4.44 0-3.33 2.41-5.48 2.41-2.17 6.36-2.17 4.17 0 6.67 2.16 2.52 2.16 2.52 5.78l-6.62 0q0-3.09-2.58-3.09 -1.06 0-1.75 0.66 -0.67 0.66-0.67 1.83 0 0.84 0.75 1.5 0.75 0.64 3.55 1.83 4.05 1.5 5.72 3.34 1.69 1.84 1.69 4.77 0 3.41-2.56 5.47 -2.55 2.06-6.7 2.06 -2.78 0-4.92-1.09 -2.12-1.09-3.34-3.03 -1.2-1.95-1.2-4.2l6.31 0q0.05 1.73 0.8 2.61 0.77 0.86 2.5 0.86 2.67 0 2.67-2.41zm17.53 6.8l-6.66 0 0-25.36 6.66 0 0 25.36zm-6.95-31.92q0-1.55 0.98-2.53 0.98-0.98 2.63-0.98 1.64 0 2.63 0.98 0.98 0.98 0.98 2.53 0 1.52-0.98 2.53 -0.97 1-2.64 1 -1.66 0-2.62-1 -0.97-1.02-0.97-2.53zm21.25 26.88q2.89 0 2.94-3.75l6.23 0q-0.05 4.16-2.56 6.72 -2.5 2.55-6.47 2.55 -4.89 0-7.47-3.05 -2.58-3.05-2.62-8.98l0-2.02q0-5.97 2.53-9.11 2.55-3.14 7.52-3.14 4.2 0 6.61 2.59 2.42 2.58 2.47 7.34l-6.23 0q-0.03-2.14-0.72-3.28 -0.67-1.16-2.23-1.16 -1.73 0-2.48 1.23 -0.75 1.23-0.8 4.77l0 2.58q0 3.09 0.3 4.33 0.31 1.23 1.02 1.81 0.7 0.56 1.98 0.56zm24.97 5.05q-0.28-0.59-0.56-1.97 -1.78 2.44-4.83 2.44 -3.19 0-5.3-2.11 -2.09-2.11-2.09-5.47 0-3.98 2.55-6.16 2.55-2.19 7.33-2.23l2.02 0 0-2.03q0-1.72-0.59-2.42 -0.58-0.7-1.7-0.7 -2.48 0-2.48 2.91l-6.64 0q0-3.52 2.64-5.8 2.64-2.28 6.67-2.28 4.17 0 6.45 2.17 2.28 2.16 2.28 6.19l0 11.94q0.05 3.28 0.94 5.13l0 0.41 -6.67 0zm-3.92-4.73q1.11 0 1.88-0.44 0.78-0.45 1.16-1.06l0-5.28 -1.59 0q-1.69 0-2.67 1.08 -0.97 1.08-0.97 2.89 0 2.81 2.2 2.81zm21.42 4.73l-6.66 0 0-36 6.66 0 0 36zm25.36-5.05q2.89 0 2.94-3.75l6.23 0q-0.05 4.16-2.56 6.72 -2.5 2.55-6.47 2.55 -4.89 0-7.47-3.05 -2.58-3.05-2.62-8.98l0-2.02q0-5.97 2.53-9.11 2.55-3.14 7.52-3.14 4.2 0 6.61 2.59 2.42 2.58 2.47 7.34l-6.23 0q-0.03-2.14-0.72-3.28 -0.67-1.16-2.23-1.16 -1.73 0-2.48 1.23 -0.75 1.23-0.8 4.77l0 2.58q0 3.09 0.3 4.33 0.31 1.23 1.02 1.81 0.7 0.56 1.98 0.56zm12.14-8.45q0-5.77 2.72-9.05 2.72-3.28 7.53-3.28 4.84 0 7.56 3.28 2.72 3.28 2.72 9.09l0 1.61q0 5.8-2.7 9.06 -2.69 3.25-7.53 3.25 -4.87 0-7.59-3.27 -2.7-3.28-2.7-9.09l0-1.61zm6.66 1.66q0 6.8 3.64 6.8 3.34 0 3.61-5.67l0.02-2.78q0-3.47-0.97-5.14 -0.95-1.69-2.7-1.69 -1.69 0-2.64 1.69 -0.95 1.67-0.95 5.14l0 1.66zm24.07-13.52l0.19 2.5q2.25-2.97 5.89-2.97 6.53 0 6.72 9.16l0 16.67 -6.66 0 0-16.17q0-2.16-0.64-3.12 -0.64-0.98-2.27-0.98 -1.8 0-2.81 1.86l0 18.42 -6.66 0 0-25.36 6.23 0zm25.27-6.23l0 6.23 3.41 0 0 4.98 -3.41 0 0 12.59q0 1.5 0.41 2.06 0.42 0.56 1.59 0.56 0.95 0 1.56-0.17l-0.05 5.16q-1.69 0.64-3.66 0.64 -6.42 0-6.48-7.36l0-13.48 -2.94 0 0-4.98 2.94 0 0-6.23 6.63 0zm19.09 31.59q-0.28-0.59-0.56-1.97 -1.78 2.44-4.83 2.44 -3.19 0-5.3-2.11 -2.09-2.11-2.09-5.47 0-3.98 2.55-6.16 2.55-2.19 7.33-2.23l2.02 0 0-2.03q0-1.72-0.59-2.42 -0.58-0.7-1.7-0.7 -2.48 0-2.48 2.91l-6.64 0q0-3.52 2.64-5.8 2.64-2.28 6.67-2.28 4.17 0 6.45 2.17 2.28 2.16 2.28 6.19l0 11.94q0.05 3.28 0.94 5.13l0 0.41 -6.67 0zm-3.92-4.73q1.11 0 1.88-0.44 0.78-0.45 1.16-1.06l0-5.28 -1.59 0q-1.69 0-2.67 1.08 -0.97 1.08-0.97 2.89 0 2.81 2.2 2.81zm23.63-0.31q2.89 0 2.94-3.75l6.23 0q-0.05 4.16-2.56 6.72 -2.5 2.55-6.47 2.55 -4.89 0-7.47-3.05 -2.58-3.05-2.62-8.98l0-2.02q0-5.97 2.53-9.11 2.55-3.14 7.52-3.14 4.2 0 6.61 2.59 2.42 2.58 2.47 7.34l-6.23 0q-0.03-2.14-0.72-3.28 -0.67-1.16-2.23-1.16 -1.73 0-2.48 1.23 -0.75 1.23-0.8 4.77l0 2.58q0 3.09 0.3 4.33 0.31 1.23 1.02 1.81 0.7 0.56 1.98 0.56zm20.63-26.55l0 6.23 3.41 0 0 4.98 -3.41 0 0 12.59q0 1.5 0.41 2.06 0.42 0.56 1.59 0.56 0.95 0 1.56-0.17l-0.05 5.16q-1.69 0.64-3.66 0.64 -6.42 0-6.48-7.36l0-13.48 -2.94 0 0-4.98 2.94 0 0-6.23 6.63 0zm36.57 20.45l2.27-14.22 6.36 0 -5.25 25.36 -5.52 0 -3.58-14.67 -3.59 14.67 -5.53 0 -5.25-25.36 6.38 0 2.25 14.25 3.38-14.25 4.72 0 3.38 14.22zm18.86 11.14l-6.66 0 0-25.36 6.66 0 0 25.36zm-6.95-31.92q0-1.55 0.98-2.53 0.98-0.98 2.63-0.98 1.64 0 2.63 0.98 0.98 0.98 0.98 2.53 0 1.52-0.98 2.53 -0.97 1-2.64 1 -1.66 0-2.62-1 -0.97-1.02-0.97-2.53zm19.8 0.33l0 6.23 3.41 0 0 4.98 -3.41 0 0 12.59q0 1.5 0.41 2.06 0.42 0.56 1.59 0.56 0.95 0 1.56-0.17l-0.05 5.16q-1.69 0.64-3.66 0.64 -6.42 0-6.48-7.36l0-13.48 -2.94 0 0-4.98 2.94 0 0-6.23 6.63 0zm13.51 8.45q2.16-2.69 5.3-2.69 3.47 0 5.27 2.44 1.81 2.44 1.83 7.27l0 16.13 -6.66 0 0-16.06q0-2.22-0.69-3.22 -0.69-1-2.23-1 -1.81 0-2.81 1.67l0 18.61 -6.64 0 0-36 6.64 0 0 12.86z" class="d"/><path d="m196.61 264.43l-6.66 0 0-36 6.66 0 0 36zm12.09 0l-6.66 0 0-25.36 6.66 0 0 25.36zm-6.95-31.92q0-1.55 0.98-2.53 0.98-0.98 2.63-0.98 1.64 0 2.63 0.98 0.98 0.98 0.98 2.53 0 1.52-0.98 2.53 -0.97 1-2.64 1 -1.66 0-2.62-1 -0.97-1.02-0.97-2.53zm20.41 22.55l3.22-15.98 6.91 0 -6.95 25.36 -6.33 0 -6.98-25.36 6.94 0 3.2 15.98zm20.2 9.38l-6.66 0 0-25.36 6.66 0 0 25.36zm-6.95-31.92q0-1.55 0.98-2.53 0.98-0.98 2.63-0.98 1.64 0 2.63 0.98 0.98 0.98 0.98 2.53 0 1.52-0.98 2.53 -0.97 1-2.64 1 -1.66 0-2.62-1 -0.97-1.02-0.97-2.53zm18.16 6.56l0.19 2.5q2.25-2.97 5.89-2.97 6.53 0 6.72 9.16l0 16.67 -6.66 0 0-16.17q0-2.16-0.64-3.12 -0.64-0.98-2.27-0.98 -1.8 0-2.81 1.86l0 18.42 -6.66 0 0-25.36 6.23 0zm16.77 11.91q0-6.23 2.25-9.3 2.25-3.08 6.3-3.08 3.45 0 5.33 2.72l0.25-2.25 5.98 0 0 25.36q0 4.86-2.72 7.42 -2.72 2.56-7.81 2.56 -2.08 0-4.37-0.83 -2.3-0.83-3.42-2.12l2.22-4.59q0.94 0.98 2.44 1.61 1.5 0.63 2.84 0.63 2.22 0 3.19-1.08 0.98-1.06 1-3.42l0-2.19q-1.89 2.48-4.94 2.48 -4.06 0-6.28-3.16 -2.2-3.16-2.25-8.89l0-1.87zm6.63 1.66q0 3.52 0.91 5.13 0.92 1.61 2.92 1.61 2.03 0 3.02-1.48l0-12.11q-1.03-1.62-2.97-1.62 -1.97 0-2.92 1.63 -0.95 1.61-0.95 5.2l0 1.66zm28.59-1.7q0-5.77 2.72-9.05 2.72-3.28 7.53-3.28 4.84 0 7.56 3.28 2.72 3.28 2.72 9.09l0 1.61q0 5.8-2.7 9.06 -2.69 3.25-7.53 3.25 -4.87 0-7.59-3.27 -2.7-3.28-2.7-9.09l0-1.61zm6.66 1.66q0 6.8 3.64 6.8 3.34 0 3.61-5.67l0.02-2.78q0-3.47-0.97-5.14 -0.95-1.69-2.7-1.69 -1.69 0-2.64 1.69 -0.95 1.67-0.95 5.14l0 1.66zm30.52-7.12l-2.2-0.19q-2.72 0-3.69 2.39l0 16.77 -6.66 0 0-25.36 6.27 0 0.19 2.73q1.56-3.2 4.33-3.2 1.13 0 1.83 0.3l-0.06 6.56zm26.51 18.97q-0.28-0.59-0.56-1.97 -1.78 2.44-4.83 2.44 -3.19 0-5.3-2.11 -2.09-2.11-2.09-5.47 0-3.98 2.55-6.16 2.55-2.19 7.33-2.23l2.02 0 0-2.03q0-1.72-0.59-2.42 -0.58-0.7-1.7-0.7 -2.48 0-2.48 2.91l-6.64 0q0-3.52 2.64-5.8 2.64-2.28 6.67-2.28 4.17 0 6.45 2.17 2.28 2.16 2.28 6.19l0 11.94q0.05 3.28 0.94 5.13l0 0.41 -6.67 0zm-3.92-4.73q1.11 0 1.88-0.44 0.78-0.45 1.16-1.06l0-5.28 -1.59 0q-1.69 0-2.67 1.08 -0.97 1.08-0.97 2.89 0 2.81 2.2 2.81zm26.98-14.23l-2.2-0.19q-2.72 0-3.69 2.39l0 16.77 -6.66 0 0-25.36 6.27 0 0.19 2.73q1.56-3.2 4.33-3.2 1.13 0 1.83 0.3l-0.06 6.56zm12.27-12.62l0 6.23 3.41 0 0 4.98 -3.41 0 0 12.59q0 1.5 0.41 2.06 0.42 0.56 1.59 0.56 0.95 0 1.56-0.17l-0.05 5.16q-1.69 0.64-3.66 0.64 -6.42 0-6.48-7.36l0-13.48 -2.94 0 0-4.98 2.94 0 0-6.23 6.63 0zm13.99 31.59l-6.66 0 0-25.36 6.66 0 0 25.36zm-6.95-31.92q0-1.55 0.98-2.53 0.98-0.98 2.63-0.98 1.64 0 2.63 0.98 0.98 0.98 0.98 2.53 0 1.52-0.98 2.53 -0.97 1-2.64 1 -1.66 0-2.62-1 -0.97-1.02-0.97-2.53zm13.42 31.92l0-20.37 -3.06 0 0-4.98 3.06 0 0-1.16q0.05-4.78 2.61-7.37 2.58-2.61 7.33-2.61 2.75 0 6.73 1.39l-0.97 5.64q-2.86-1.08-5.31-1.08 -3.69 0-3.73 4.06l0 1.13 3.92 0 0 4.98 -3.92 0 0 20.38 -6.66 0zm19.69 0l-6.66 0 0-25.36 6.66 0 0 25.36zm14.34-5.05q2.89 0 2.94-3.75l6.23 0q-0.05 4.16-2.56 6.72 -2.5 2.55-6.47 2.55 -4.89 0-7.47-3.05 -2.58-3.05-2.62-8.98l0-2.02q0-5.97 2.53-9.11 2.55-3.14 7.52-3.14 4.2 0 6.61 2.59 2.42 2.58 2.47 7.34l-6.23 0q-0.03-2.14-0.72-3.28 -0.67-1.16-2.23-1.16 -1.73 0-2.48 1.23 -0.75 1.23-0.8 4.77l0 2.58q0 3.09 0.3 4.33 0.31 1.23 1.02 1.81 0.7 0.56 1.98 0.56zm19.88 5.05l-6.66 0 0-25.36 6.66 0 0 25.36zm-6.95-31.92q0-1.55 0.98-2.53 0.98-0.98 2.63-0.98 1.64 0 2.63 0.98 0.98 0.98 0.98 2.53 0 1.52-0.98 2.53 -0.97 1-2.64 1 -1.66 0-2.62-1 -0.97-1.02-0.97-2.53zm24.14 31.92q-0.28-0.59-0.56-1.97 -1.78 2.44-4.83 2.44 -3.19 0-5.3-2.11 -2.09-2.11-2.09-5.47 0-3.98 2.55-6.16 2.55-2.19 7.33-2.23l2.02 0 0-2.03q0-1.72-0.59-2.42 -0.58-0.7-1.7-0.7 -2.48 0-2.48 2.91l-6.64 0q0-3.52 2.64-5.8 2.64-2.28 6.67-2.28 4.17 0 6.45 2.17 2.28 2.16 2.28 6.19l0 11.94q0.05 3.28 0.94 5.13l0 0.41 -6.67 0zm-3.92-4.73q1.11 0 1.88-0.44 0.78-0.45 1.16-1.06l0-5.28 -1.59 0q-1.69 0-2.67 1.08 -0.97 1.08-0.97 2.89 0 2.81 2.2 2.81zm21.42 4.73l-6.66 0 0-36 6.66 0 0 36zm30.94-8.95q0-2.09-1.06-3.16 -1.06-1.06-3.87-2.22 -5.14-1.94-7.39-4.55 -2.25-2.62-2.25-6.19 0-4.31 3.06-6.92 3.06-2.61 7.77-2.61 3.14 0 5.59 1.33 2.47 1.31 3.8 3.73 1.33 2.41 1.33 5.48l-6.87 0q0-2.39-1.02-3.64 -1.02-1.27-2.94-1.27 -1.81 0-2.83 1.08 -1 1.06-1 2.86 0 1.41 1.13 2.55 1.13 1.14 3.98 2.36 5 1.8 7.25 4.42 2.27 2.63 2.27 6.69 0 4.45-2.84 6.97 -2.83 2.5-7.7 2.5 -3.3 0-6.02-1.36 -2.72-1.36-4.27-3.89 -1.53-2.53-1.53-5.98l6.92 0q0 2.95 1.14 4.3 1.16 1.33 3.75 1.33 3.61 0 3.61-3.81zm33.61-19.44l-8.44 0 0 28.39 -6.91 0 0-28.39 -8.3 0 0-5.73 23.64 0 0 5.73zm17.44 21.41l-9.39 0 -1.83 6.98 -7.3 0 10.67-34.12 6.3 0 10.73 34.13 -7.36 0 -1.83-6.98zm-7.89-5.75l6.38 0 -3.19-12.16 -3.19 12.16zm30.6 0.27l-3.42 0 0 12.47 -6.89 0 0-34.12 11 0q5.17 0 8 2.69 2.83 2.67 2.83 7.63 0 6.8-4.95 9.52l5.98 13.97 0 0.33 -7.41 0 -5.14-12.47zm-3.42-5.75l3.92 0q2.06 0 3.09-1.36 1.03-1.37 1.03-3.67 0-5.14-4.02-5.14l-4.03 0 0 10.17zm40.59-10.17l-8.44 0 0 28.39 -6.91 0 0-28.39 -8.3 0 0-5.73 23.64 0 0 5.73zm33.05 16.5q0 5.98-2.05 9.17 -2.05 3.19-6.11 3.19 -3.09 0-4.97-2.52l0 11.8 -6.62 0 0-35.11 6.14 0 0.23 2.31q1.89-2.78 5.17-2.78 4.06 0 6.11 2.95 2.05 2.95 2.09 9.05l0 1.94zm-6.61-1.66q0-3.69-0.81-5.2 -0.8-1.53-2.72-1.53 -2.05 0-2.98 1.72l0 11.88q0.89 1.64 3.03 1.64 1.97 0 2.72-1.66 0.77-1.67 0.77-5.19l0-1.66zm20.86 14.02q-5.11 0-7.97-3.05 -2.86-3.05-2.86-8.72l0-2.02q0-6 2.63-9.25 2.63-3.27 7.53-3.27 4.78 0 7.19 3.06 2.42 3.05 2.47 9.05l0 3.27 -13.2 0q0.14 2.81 1.23 4.11 1.11 1.3 3.41 1.3 3.33 0 5.56-2.27l2.59 4q-1.22 1.69-3.55 2.73 -2.31 1.05-5.03 1.05zm-4.17-15.56l6.64 0 0-0.61q-0.05-2.28-0.75-3.45 -0.7-1.17-2.44-1.17 -1.73 0-2.53 1.25 -0.78 1.23-0.92 3.98zm29.42-3.87l-2.2-0.19q-2.72 0-3.69 2.39l0 16.77 -6.66 0 0-25.36 6.27 0 0.19 2.73q1.56-3.2 4.33-3.2 1.13 0 1.83 0.3l-0.06 6.56zm14.62 12.17q0-0.84-0.81-1.56 -0.8-0.72-3.59-1.94 -4.09-1.66-5.64-3.44 -1.53-1.78-1.53-4.44 0-3.33 2.41-5.48 2.41-2.17 6.36-2.17 4.17 0 6.67 2.16 2.52 2.16 2.52 5.78l-6.62 0q0-3.09-2.58-3.09 -1.06 0-1.75 0.66 -0.67 0.66-0.67 1.83 0 0.84 0.75 1.5 0.75 0.64 3.55 1.83 4.05 1.5 5.72 3.34 1.69 1.84 1.69 4.77 0 3.41-2.56 5.47 -2.55 2.06-6.7 2.06 -2.78 0-4.92-1.09 -2.12-1.09-3.34-3.03 -1.2-1.95-1.2-4.2l6.31 0q0.05 1.73 0.8 2.61 0.77 0.86 2.5 0.86 2.67 0 2.67-2.41zm9.8-6.7q0-5.77 2.72-9.05 2.72-3.28 7.53-3.28 4.84 0 7.56 3.28 2.72 3.28 2.72 9.09l0 1.61q0 5.8-2.7 9.06 -2.69 3.25-7.53 3.25 -4.87 0-7.59-3.27 -2.7-3.28-2.7-9.09l0-1.61zm6.66 1.66q0 6.8 3.64 6.8 3.34 0 3.61-5.67l0.02-2.78q0-3.47-0.97-5.14 -0.95-1.69-2.7-1.69 -1.69 0-2.64 1.69 -0.95 1.67-0.95 5.14l0 1.66zm24.07-13.52l0.19 2.5q2.25-2.97 5.89-2.97 6.53 0 6.72 9.16l0 16.67 -6.66 0 0-16.17q0-2.16-0.64-3.12 -0.64-0.98-2.27-0.98 -1.8 0-2.81 1.86l0 18.42 -6.66 0 0-25.36 6.23 0zm23.63 0l0.19 2.5q2.25-2.97 5.89-2.97 6.53 0 6.72 9.16l0 16.67 -6.66 0 0-16.17q0-2.16-0.64-3.12 -0.64-0.98-2.27-0.98 -1.8 0-2.81 1.86l0 18.42 -6.66 0 0-25.36 6.23 0zm27.8 25.83q-5.11 0-7.97-3.05 -2.86-3.05-2.86-8.72l0-2.02q0-6 2.63-9.25 2.63-3.27 7.53-3.27 4.78 0 7.19 3.06 2.42 3.05 2.47 9.05l0 3.27 -13.2 0q0.14 2.81 1.23 4.11 1.11 1.3 3.41 1.3 3.33 0 5.56-2.27l2.59 4q-1.22 1.69-3.55 2.73 -2.31 1.05-5.03 1.05zm-4.17-15.56l6.64 0 0-0.61q-0.05-2.28-0.75-3.45 -0.7-1.17-2.44-1.17 -1.73 0-2.53 1.25 -0.78 1.23-0.92 3.98zm23.86 15.09l-6.66 0 0-36 6.66 0 0 36zm5.67-3.37q0-1.59 1.06-2.62 1.08-1.03 2.78-1.03 1.67 0 2.77 1.02 1.11 1.02 1.11 2.64 0 1.64-1.12 2.64 -1.11 1-2.75 1 -1.66 0-2.75-1.02 -1.09-1.02-1.09-2.62z" class="d"/><path d="m61.75 391.72l717.64 0 0 69.67 -717.64 0z" class="a"/><path d="m82.69 420.73l0 8.16 -2.62 0 0-20.84 6.64 0q2.91 0 4.56 1.73 1.67 1.73 1.67 4.63 0 3.02-1.59 4.64 -1.58 1.63-4.45 1.69l-4.2 0zm0-2.25l4.02 0q1.75 0 2.67-1.05 0.94-1.05 0.94-3 0-1.87-0.97-3 -0.95-1.14-2.62-1.14l-4.03 0 0 8.19zm16 10.41l-2.53 0 0-22 2.53 0 0 22zm9.53 0.28q-2.89 0-4.44-1.72 -1.55-1.73-1.58-5.06l0-1.87q0-3.47 1.5-5.44 1.52-1.97 4.22-1.97 2.72 0 4.06 1.73 1.36 1.73 1.39 5.39l0 1.67 -8.66 0 0 0.36q0 2.48 0.94 3.63 0.94 1.13 2.7 1.13 1.11 0 1.95-0.42 0.86-0.42 1.61-1.34l1.31 1.61q-1.64 2.31-5.02 2.31zm-0.3-13.89q-1.56 0-2.33 1.09 -0.77 1.08-0.86 3.34l6.09 0 0-0.34q-0.09-2.2-0.8-3.14 -0.69-0.95-2.11-0.95zm16.45 13.61q-0.22-0.5-0.33-1.69 -1.34 1.97-3.44 1.97 -2.09 0-3.28-1.17 -1.19-1.19-1.19-3.33 0-2.37 1.61-3.75 1.61-1.39 4.39-1.42l1.88 0 0-1.66q0-1.39-0.62-1.97 -0.61-0.59-1.87-0.59 -1.14 0-1.86 0.69 -0.72 0.67-0.72 1.72l-2.53 0q0-1.19 0.7-2.27 0.7-1.08 1.89-1.69 1.19-0.62 2.64-0.62 2.39 0 3.63 1.19 1.23 1.17 1.27 3.44l0 7.81q0.02 1.8 0.48 3.11l0 0.23 -2.64 0zm-3.37-2.02q0.94 0 1.78-0.52 0.84-0.52 1.23-1.3l0-3.69 -1.44 0q-1.8 0.03-2.84 0.81 -1.05 0.78-1.05 2.17 0 1.33 0.53 1.92 0.53 0.59 1.78 0.59zm16.99-1.95q0-0.81-0.62-1.39 -0.61-0.59-2.36-1.39 -2.06-0.84-2.91-1.44 -0.83-0.61-1.25-1.37 -0.41-0.77-0.41-1.83 0-1.89 1.38-3.14 1.39-1.25 3.53-1.25 2.27 0 3.64 1.33 1.38 1.31 1.38 3.38l-2.52 0q0-1.05-0.7-1.78 -0.7-0.75-1.8-0.75 -1.11 0-1.75 0.59 -0.64 0.58-0.64 1.55 0 0.77 0.47 1.25 0.47 0.47 2.25 1.23 2.81 1.11 3.83 2.17 1.02 1.05 1.02 2.66 0 2.02-1.39 3.23 -1.39 1.2-3.72 1.2 -2.42 0-3.92-1.37 -1.5-1.39-1.5-3.53l2.55 0q0.05 1.28 0.78 2.02 0.75 0.73 2.09 0.73 1.27 0 1.92-0.56 0.66-0.56 0.66-1.53zm11.38 4.25q-2.89 0-4.44-1.72 -1.55-1.73-1.58-5.06l0-1.87q0-3.47 1.5-5.44 1.52-1.97 4.22-1.97 2.72 0 4.06 1.73 1.36 1.73 1.39 5.39l0 1.67 -8.66 0 0 0.36q0 2.48 0.94 3.63 0.94 1.13 2.7 1.13 1.11 0 1.95-0.42 0.86-0.42 1.61-1.34l1.31 1.61q-1.64 2.31-5.02 2.31zm-0.3-13.89q-1.56 0-2.33 1.09 -0.77 1.08-0.86 3.34l6.09 0 0-0.34q-0.09-2.2-0.8-3.14 -0.69-0.95-2.11-0.95zm21.61 0.48q-0.53-0.09-1.16-0.09 -1.94 0-2.72 2.14l0 11.08 -2.53 0 0-15.5 2.47 0 0.03 1.58q1.02-1.86 2.89-1.86 0.59 0 1 0.2l0.02 2.45zm7.79 13.41q-2.89 0-4.44-1.72 -1.55-1.73-1.58-5.06l0-1.87q0-3.47 1.5-5.44 1.52-1.97 4.22-1.97 2.72 0 4.06 1.73 1.36 1.73 1.39 5.39l0 1.67 -8.66 0 0 0.36q0 2.48 0.94 3.63 0.94 1.13 2.7 1.13 1.11 0 1.95-0.42 0.86-0.42 1.61-1.34l1.31 1.61q-1.64 2.31-5.02 2.31zm-0.3-13.89q-1.56 0-2.33 1.09 -0.77 1.08-0.86 3.34l6.09 0 0-0.34q-0.09-2.2-0.8-3.14 -0.69-0.95-2.11-0.95zm9.59 13.61l0-13.45 -2.02 0 0-2.05 2.02 0 0-1.78q0.05-2.36 1.2-3.69 1.16-1.33 3.25-1.33 0.77 0 1.55 0.25l-0.14 2.14q-0.55-0.12-1.16-0.12 -2.16 0-2.16 3.08l0 1.45 2.64 0 0 2.05 -2.64 0 0 13.45 -2.55 0zm14.58-13.12q-0.53-0.09-1.16-0.09 -1.94 0-2.72 2.14l0 11.08 -2.53 0 0-15.5 2.47 0 0.03 1.58q1.02-1.86 2.89-1.86 0.59 0 1 0.2l0.02 2.45zm9.91 13.13q-0.22-0.5-0.33-1.69 -1.34 1.97-3.44 1.97 -2.09 0-3.28-1.17 -1.19-1.19-1.19-3.33 0-2.37 1.61-3.75 1.61-1.39 4.39-1.42l1.88 0 0-1.66q0-1.39-0.62-1.97 -0.61-0.59-1.87-0.59 -1.14 0-1.86 0.69 -0.72 0.67-0.72 1.72l-2.53 0q0-1.19 0.7-2.27 0.7-1.08 1.89-1.69 1.19-0.62 2.64-0.62 2.39 0 3.63 1.19 1.23 1.17 1.27 3.44l0 7.81q0.02 1.8 0.48 3.11l0 0.23 -2.64 0zm-3.37-2.02q0.94 0 1.78-0.52 0.84-0.52 1.23-1.3l0-3.69 -1.44 0q-1.8 0.03-2.84 0.81 -1.05 0.78-1.05 2.17 0 1.33 0.53 1.92 0.53 0.59 1.78 0.59zm12.19 2.02l-2.53 0 0-15.5 2.53 0 0 15.5zm0.2-19.61q0 0.66-0.36 1.09 -0.36 0.42-1.09 0.42 -0.72 0-1.08-0.42 -0.34-0.44-0.34-1.08 0-0.66 0.34-1.09 0.36-0.45 1.08-0.45 0.72 0 1.08 0.45 0.38 0.45 0.38 1.08zm6.17 4.11l0.08 1.69q1.47-1.97 3.77-1.97 4.11 0 4.16 5.48l0 10.3 -2.52 0 0-10.19q0-1.81-0.61-2.58 -0.61-0.77-1.83-0.77 -0.94 0-1.69 0.64 -0.75 0.63-1.22 1.64l0 11.25 -2.53 0 0-15.5 2.39 0zm19.63 15.5l0-13.45 -2.02 0 0-2.05 2.02 0 0-1.78q0.05-2.36 1.2-3.69 1.16-1.33 3.25-1.33 0.77 0 1.55 0.25l-0.14 2.14q-0.55-0.12-1.16-0.12 -2.16 0-2.16 3.08l0 1.45 2.64 0 0 2.05 -2.64 0 0 13.45 -2.55 0zm14.58-13.12q-0.53-0.09-1.16-0.09 -1.94 0-2.72 2.14l0 11.08 -2.53 0 0-15.5 2.47 0 0.03 1.58q1.02-1.86 2.89-1.86 0.59 0 1 0.2l0.02 2.45zm1.7 4.66q0-3.37 1.64-5.34 1.64-1.97 4.33-1.97 2.7 0 4.33 1.92 1.64 1.92 1.69 5.22l0 1.64q0 3.36-1.64 5.33 -1.62 1.95-4.34 1.95 -2.69 0-4.31-1.89 -1.62-1.91-1.69-5.17l0-1.69zm2.53 1.47q0 2.39 0.94 3.77 0.94 1.36 2.53 1.36 3.36 0 3.45-4.84l0-1.75q0-2.37-0.95-3.75 -0.94-1.39-2.53-1.39 -1.56 0-2.5 1.39 -0.94 1.38-0.94 3.73l0 1.48zm15.11-8.5l0.06 1.44q1.41-1.72 3.73-1.72 2.59 0 3.63 2.25 1.45-2.25 4.06-2.25 4.28 0 4.39 5.34l0 10.44 -2.53 0 0-10.2q0-1.69-0.61-2.5 -0.59-0.83-2.02-0.83 -1.16 0-1.87 0.89 -0.7 0.89-0.83 2.27l0 10.38 -2.55 0 0-10.31q-0.05-3.22-2.62-3.22 -1.91 0-2.7 1.92l0 11.61 -2.52 0 0-15.5 2.38 0zm34.3 14.14q-1.27 1.64-3.69 1.64 -2.09 0-3.17-1.45 -1.08-1.45-1.09-4.23l0-10.09 2.53 0 0 9.92q0 3.61 2.17 3.61 2.3 0 3.17-2.06l0-11.47 2.55 0 0 15.5 -2.41 0 -0.06-1.36zm13.8-2.61q0-0.81-0.62-1.39 -0.61-0.59-2.36-1.39 -2.06-0.84-2.91-1.44 -0.83-0.61-1.25-1.37 -0.41-0.77-0.41-1.83 0-1.89 1.38-3.14 1.39-1.25 3.53-1.25 2.27 0 3.64 1.33 1.38 1.31 1.38 3.38l-2.52 0q0-1.05-0.7-1.78 -0.7-0.75-1.8-0.75 -1.11 0-1.75 0.59 -0.64 0.58-0.64 1.55 0 0.77 0.47 1.25 0.47 0.47 2.25 1.23 2.81 1.11 3.83 2.17 1.02 1.05 1.02 2.66 0 2.02-1.39 3.23 -1.39 1.2-3.72 1.2 -2.42 0-3.92-1.37 -1.5-1.39-1.5-3.53l2.55 0q0.05 1.28 0.78 2.02 0.75 0.73 2.09 0.73 1.27 0 1.92-0.56 0.66-0.56 0.66-1.53zm8.56 3.97l-2.53 0 0-15.5 2.53 0 0 15.5zm0.2-19.61q0 0.66-0.36 1.09 -0.36 0.42-1.09 0.42 -0.72 0-1.08-0.42 -0.34-0.44-0.34-1.08 0-0.66 0.34-1.09 0.36-0.45 1.08-0.45 0.72 0 1.08 0.45 0.38 0.45 0.38 1.08zm6.17 4.11l0.08 1.69q1.47-1.97 3.77-1.97 4.11 0 4.16 5.48l0 10.3 -2.52 0 0-10.19q0-1.81-0.61-2.58 -0.61-0.77-1.83-0.77 -0.94 0-1.69 0.64 -0.75 0.63-1.22 1.64l0 11.25 -2.53 0 0-15.5 2.39 0zm11.3 7.05q0-3.62 1.31-5.47 1.33-1.86 3.86-1.86 2.36 0 3.59 2.02l0.13-1.73 2.3 0 0 15.64q0 2.88-1.48 4.41 -1.47 1.55-4.11 1.55 -1.14 0-2.56-0.56 -1.42-0.56-2.14-1.39l1.03-1.75q1.58 1.55 3.47 1.55 3.17 0 3.25-3.45l0-2.02q-1.22 1.81-3.48 1.81 -2.41 0-3.75-1.81 -1.34-1.81-1.41-5.2l0-1.72zm2.53 1.45q0 2.61 0.77 3.83 0.77 1.22 2.52 1.22 1.89 0 2.83-1.92l0-7.75q-0.98-1.91-2.8-1.91 -1.75 0-2.53 1.23 -0.77 1.22-0.78 3.75l0 1.55zm24.68 7.28q-2.89 0-4.44-1.72 -1.55-1.73-1.58-5.06l0-1.87q0-3.47 1.5-5.44 1.52-1.97 4.22-1.97 2.72 0 4.06 1.73 1.36 1.73 1.39 5.39l0 1.67 -8.66 0 0 0.36q0 2.48 0.94 3.63 0.94 1.13 2.7 1.13 1.11 0 1.95-0.42 0.86-0.42 1.61-1.34l1.31 1.61q-1.64 2.31-5.02 2.31zm-0.3-13.89q-1.56 0-2.33 1.09 -0.77 1.08-0.86 3.34l6.09 0 0-0.34q-0.09-2.2-0.8-3.14 -0.69-0.95-2.11-0.95zm12.97 3.77l2.64-5.66 2.94 0 -4.2 7.67 4.31 7.83 -2.91 0 -2.73-5.8 -2.75 5.8 -2.92 0 4.31-7.83 -4.2-7.67 2.91 0 2.61 5.66zm11.72-9.41l0 3.75 2.33 0 0 2.05 -2.33 0 0 9.61q0 0.92 0.3 1.41 0.3 0.47 1.03 0.47 0.5 0 1.02-0.17l-0.03 2.14q-0.86 0.28-1.77 0.28 -1.5 0-2.3-1.06 -0.78-1.08-0.78-3.05l0-9.62 -2.36 0 0-2.05 2.36 0 0-3.75 2.53 0zm10.88 19.53q-2.89 0-4.44-1.72 -1.55-1.73-1.58-5.06l0-1.87q0-3.47 1.5-5.44 1.52-1.97 4.22-1.97 2.72 0 4.06 1.73 1.36 1.73 1.39 5.39l0 1.67 -8.66 0 0 0.36q0 2.48 0.94 3.63 0.94 1.13 2.7 1.13 1.11 0 1.95-0.42 0.86-0.42 1.61-1.34l1.31 1.61q-1.64 2.31-5.02 2.31zm-0.3-13.89q-1.56 0-2.33 1.09 -0.77 1.08-0.86 3.34l6.09 0 0-0.34q-0.09-2.2-0.8-3.14 -0.69-0.95-2.11-0.95zm14.89 0.48q-0.53-0.09-1.16-0.09 -1.94 0-2.72 2.14l0 11.08 -2.53 0 0-15.5 2.47 0 0.03 1.58q1.02-1.86 2.89-1.86 0.59 0 1 0.2l0.02 2.45zm4.91-2.37l0.08 1.69q1.47-1.97 3.77-1.97 4.11 0 4.16 5.48l0 10.3 -2.52 0 0-10.19q0-1.81-0.61-2.58 -0.61-0.77-1.83-0.77 -0.94 0-1.69 0.64 -0.75 0.63-1.22 1.64l0 11.25 -2.53 0 0-15.5 2.39 0zm19.77 15.5q-0.22-0.5-0.33-1.69 -1.34 1.97-3.44 1.97 -2.09 0-3.28-1.17 -1.19-1.19-1.19-3.33 0-2.37 1.61-3.75 1.61-1.39 4.39-1.42l1.88 0 0-1.66q0-1.39-0.62-1.97 -0.61-0.59-1.87-0.59 -1.14 0-1.86 0.69 -0.72 0.67-0.72 1.72l-2.53 0q0-1.19 0.7-2.27 0.7-1.08 1.89-1.69 1.19-0.62 2.64-0.62 2.39 0 3.63 1.19 1.23 1.17 1.27 3.44l0 7.81q0.02 1.8 0.48 3.11l0 0.23 -2.64 0zm-3.37-2.02q0.94 0 1.78-0.52 0.84-0.52 1.23-1.3l0-3.69 -1.44 0q-1.8 0.03-2.84 0.81 -1.05 0.78-1.05 2.17 0 1.33 0.53 1.92 0.53 0.59 1.78 0.59zm12.19 2.02l-2.53 0 0-22 2.53 0 0 22zm16.24 0.28q-2.89 0-4.44-1.72 -1.55-1.73-1.58-5.06l0-1.87q0-3.47 1.5-5.44 1.52-1.97 4.22-1.97 2.72 0 4.06 1.73 1.36 1.73 1.39 5.39l0 1.67 -8.66 0 0 0.36q0 2.48 0.94 3.63 0.94 1.13 2.7 1.13 1.11 0 1.95-0.42 0.86-0.42 1.61-1.34l1.31 1.61q-1.64 2.31-5.02 2.31zm-0.3-13.89q-1.56 0-2.33 1.09 -0.77 1.08-0.86 3.34l6.09 0 0-0.34q-0.09-2.2-0.8-3.14 -0.69-0.95-2.11-0.95zm11.22 13.61l-2.53 0 0-22 2.53 0 0 22zm9.53 0.28q-2.89 0-4.44-1.72 -1.55-1.73-1.58-5.06l0-1.87q0-3.47 1.5-5.44 1.52-1.97 4.22-1.97 2.72 0 4.06 1.73 1.36 1.73 1.39 5.39l0 1.67 -8.66 0 0 0.36q0 2.48 0.94 3.63 0.94 1.13 2.7 1.13 1.11 0 1.95-0.42 0.86-0.42 1.61-1.34l1.31 1.61q-1.64 2.31-5.02 2.31zm-0.3-13.89q-1.56 0-2.33 1.09 -0.77 1.08-0.86 3.34l6.09 0 0-0.34q-0.09-2.2-0.8-3.14 -0.69-0.95-2.11-0.95zm13.87 11.73q1.25 0 2-0.78 0.77-0.78 0.84-2.23l2.39 0q-0.08 2.23-1.58 3.7 -1.5 1.47-3.66 1.47 -2.89 0-4.41-1.81 -1.5-1.81-1.5-5.39l0-1.7q0-3.5 1.5-5.33 1.5-1.83 4.39-1.83 2.38 0 3.77 1.5 1.41 1.5 1.48 4.11l-2.39 0q-0.09-1.72-0.83-2.58 -0.73-0.86-2.03-0.86 -1.69 0-2.52 1.11 -0.81 1.11-0.84 3.66l0 1.97q0 2.73 0.81 3.88 0.81 1.13 2.56 1.13zm11.48-17.37l0 3.75 2.33 0 0 2.05 -2.33 0 0 9.61q0 0.92 0.3 1.41 0.3 0.47 1.03 0.47 0.5 0 1.02-0.17l-0.03 2.14q-0.86 0.28-1.77 0.28 -1.5 0-2.3-1.06 -0.78-1.08-0.78-3.05l0-9.62 -2.36 0 0-2.05 2.36 0 0-3.75 2.53 0zm11.74 6.13q-0.53-0.09-1.16-0.09 -1.94 0-2.72 2.14l0 11.08 -2.53 0 0-15.5 2.47 0 0.03 1.58q1.02-1.86 2.89-1.86 0.59 0 1 0.2l0.02 2.45zm1.7 4.66q0-3.37 1.64-5.34 1.64-1.97 4.33-1.97 2.7 0 4.33 1.92 1.64 1.92 1.69 5.22l0 1.64q0 3.36-1.64 5.33 -1.62 1.95-4.34 1.95 -2.69 0-4.31-1.89 -1.62-1.91-1.69-5.17l0-1.69zm2.53 1.47q0 2.39 0.94 3.77 0.94 1.36 2.53 1.36 3.36 0 3.45-4.84l0-1.75q0-2.37-0.95-3.75 -0.94-1.39-2.53-1.39 -1.56 0-2.5 1.39 -0.94 1.38-0.94 3.73l0 1.48zm15.11-8.5l0.08 1.69q1.47-1.97 3.77-1.97 4.11 0 4.16 5.48l0 10.3 -2.52 0 0-10.19q0-1.81-0.61-2.58 -0.61-0.77-1.83-0.77 -0.94 0-1.69 0.64 -0.75 0.63-1.22 1.64l0 11.25 -2.53 0 0-15.5 2.39 0zm14.54 15.5l-2.53 0 0-15.5 2.53 0 0 15.5zm0.2-19.61q0 0.66-0.36 1.09 -0.36 0.42-1.09 0.42 -0.72 0-1.08-0.42 -0.34-0.44-0.34-1.08 0-0.66 0.34-1.09 0.36-0.45 1.08-0.45 0.72 0 1.08 0.45 0.38 0.45 0.38 1.08zm9.17 17.73q1.25 0 2-0.78 0.77-0.78 0.84-2.23l2.39 0q-0.08 2.23-1.58 3.7 -1.5 1.47-3.66 1.47 -2.89 0-4.41-1.81 -1.5-1.81-1.5-5.39l0-1.7q0-3.5 1.5-5.33 1.5-1.83 4.39-1.83 2.38 0 3.77 1.5 1.41 1.5 1.48 4.11l-2.39 0q-0.09-1.72-0.83-2.58 -0.73-0.86-2.03-0.86 -1.69 0-2.52 1.11 -0.81 1.11-0.84 3.66l0 1.97q0 2.73 0.81 3.88 0.81 1.13 2.56 1.13zm14.34-6.58q0-3.58 1.33-5.45 1.34-1.87 3.86-1.87 2.22 0 3.47 1.8l0-8.02 2.53 0 0 22 -2.33 0 -0.12-1.66q-1.25 1.94-3.56 1.94 -2.41 0-3.78-1.86 -1.36-1.87-1.39-5.28l0-1.59zm2.53 1.45q0 2.61 0.77 3.83 0.78 1.22 2.53 1.22 1.89 0 2.83-1.91l0-7.81q-0.98-1.86-2.81-1.86 -1.75 0-2.53 1.23 -0.77 1.22-0.78 3.75l0 1.55zm18.1 7.28q-2.89 0-4.44-1.72 -1.55-1.73-1.58-5.06l0-1.87q0-3.47 1.5-5.44 1.52-1.97 4.22-1.97 2.72 0 4.06 1.73 1.36 1.73 1.39 5.39l0 1.67 -8.66 0 0 0.36q0 2.48 0.94 3.63 0.94 1.13 2.7 1.13 1.11 0 1.95-0.42 0.86-0.42 1.61-1.34l1.31 1.61q-1.64 2.31-5.02 2.31zm-0.3-13.89q-1.56 0-2.33 1.09 -0.77 1.08-0.86 3.34l6.09 0 0-0.34q-0.09-2.2-0.8-3.14 -0.69-0.95-2.11-0.95zm12.69 9.75l2.94-11.64 2.58 0 -4.59 15.5 -1.89 0 -4.66-15.5 2.58 0 3.05 11.64zm10.89 3.86l-2.53 0 0-15.5 2.53 0 0 15.5zm0.2-19.61q0 0.66-0.36 1.09 -0.36 0.42-1.09 0.42 -0.72 0-1.08-0.42 -0.34-0.44-0.34-1.08 0-0.66 0.34-1.09 0.36-0.45 1.08-0.45 0.72 0 1.08 0.45 0.38 0.45 0.38 1.08zm9.17 17.73q1.25 0 2-0.78 0.77-0.78 0.84-2.23l2.39 0q-0.08 2.23-1.58 3.7 -1.5 1.47-3.66 1.47 -2.89 0-4.41-1.81 -1.5-1.81-1.5-5.39l0-1.7q0-3.5 1.5-5.33 1.5-1.83 4.39-1.83 2.38 0 3.77 1.5 1.41 1.5 1.48 4.11l-2.39 0q-0.09-1.72-0.83-2.58 -0.73-0.86-2.03-0.86 -1.69 0-2.52 1.11 -0.81 1.11-0.84 3.66l0 1.97q0 2.73 0.81 3.88 0.81 1.13 2.56 1.13zm13.7 2.16q-2.89 0-4.44-1.72 -1.55-1.73-1.58-5.06l0-1.87q0-3.47 1.5-5.44 1.52-1.97 4.22-1.97 2.72 0 4.06 1.73 1.36 1.73 1.39 5.39l0 1.67 -8.66 0 0 0.36q0 2.48 0.94 3.63 0.94 1.13 2.7 1.13 1.11 0 1.95-0.42 0.86-0.42 1.61-1.34l1.31 1.61q-1.64 2.31-5.02 2.31zm-0.3-13.89q-1.56 0-2.33 1.09 -0.77 1.08-0.86 3.34l6.09 0 0-0.34q-0.09-2.2-0.8-3.14 -0.69-0.95-2.11-0.95zm16.01 9.64q0-0.81-0.62-1.39 -0.61-0.59-2.36-1.39 -2.06-0.84-2.91-1.44 -0.83-0.61-1.25-1.37 -0.41-0.77-0.41-1.83 0-1.89 1.38-3.14 1.39-1.25 3.53-1.25 2.27 0 3.64 1.33 1.38 1.31 1.38 3.38l-2.52 0q0-1.05-0.7-1.78 -0.7-0.75-1.8-0.75 -1.11 0-1.75 0.59 -0.64 0.58-0.64 1.55 0 0.77 0.47 1.25 0.47 0.47 2.25 1.23 2.81 1.11 3.83 2.17 1.02 1.05 1.02 2.66 0 2.02-1.39 3.23 -1.39 1.2-3.72 1.2 -2.42 0-3.92-1.37 -1.5-1.39-1.5-3.53l2.55 0q0.05 1.28 0.78 2.02 0.75 0.73 2.09 0.73 1.27 0 1.92-0.56 0.66-0.56 0.66-1.53zm12.01-4.48q0-3.58 1.33-5.45 1.34-1.87 3.86-1.87 2.22 0 3.47 1.8l0-8.02 2.53 0 0 22 -2.33 0 -0.12-1.66q-1.25 1.94-3.56 1.94 -2.41 0-3.78-1.86 -1.36-1.87-1.39-5.28l0-1.59zm2.53 1.45q0 2.61 0.77 3.83 0.78 1.22 2.53 1.22 1.89 0 2.83-1.91l0-7.81q-0.98-1.86-2.81-1.86 -1.75 0-2.53 1.23 -0.77 1.22-0.78 3.75l0 1.55zm20.46 5.64q-1.27 1.64-3.69 1.64 -2.09 0-3.17-1.45 -1.08-1.45-1.09-4.23l0-10.09 2.53 0 0 9.92q0 3.61 2.17 3.61 2.3 0 3.17-2.06l0-11.47 2.55 0 0 15.5 -2.41 0 -0.06-1.36zm12.68-11.77q-0.53-0.09-1.16-0.09 -1.94 0-2.72 2.14l0 11.08 -2.53 0 0-15.5 2.47 0 0.03 1.58q1.02-1.86 2.89-1.86 0.59 0 1 0.2l0.02 2.45zm5.25 13.13l-2.53 0 0-15.5 2.53 0 0 15.5zm0.2-19.61q0 0.66-0.36 1.09 -0.36 0.42-1.09 0.42 -0.72 0-1.08-0.42 -0.34-0.44-0.34-1.08 0-0.66 0.34-1.09 0.36-0.45 1.08-0.45 0.72 0 1.08 0.45 0.38 0.45 0.38 1.08zm6.17 4.11l0.08 1.69q1.47-1.97 3.77-1.97 4.11 0 4.16 5.48l0 10.3 -2.52 0 0-10.19q0-1.81-0.61-2.58 -0.61-0.77-1.83-0.77 -0.94 0-1.69 0.64 -0.75 0.63-1.22 1.64l0 11.25 -2.53 0 0-15.5 2.39 0zm11.3 7.05q0-3.62 1.31-5.47 1.33-1.86 3.86-1.86 2.36 0 3.59 2.02l0.13-1.73 2.3 0 0 15.64q0 2.88-1.48 4.41 -1.47 1.55-4.11 1.55 -1.14 0-2.56-0.56 -1.42-0.56-2.14-1.39l1.03-1.75q1.58 1.55 3.47 1.55 3.17 0 3.25-3.45l0-2.02q-1.22 1.81-3.48 1.81 -2.41 0-3.75-1.81 -1.34-1.81-1.41-5.2l0-1.72zm2.53 1.45q0 2.61 0.77 3.83 0.77 1.22 2.52 1.22 1.89 0 2.83-1.92l0-7.75q-0.98-1.91-2.8-1.91 -1.75 0-2.53 1.23 -0.77 1.22-0.78 3.75l0 1.55z" class="c"/><path d="m304.65 448.38l0.06 1.44q1.41-1.72 3.73-1.72 2.59 0 3.63 2.25 1.45-2.25 4.06-2.25 4.28 0 4.39 5.34l0 10.44 -2.53 0 0-10.2q0-1.69-0.61-2.5 -0.59-0.83-2.02-0.83 -1.16 0-1.87 0.89 -0.7 0.89-0.83 2.27l0 10.38 -2.55 0 0-10.31q-0.05-3.22-2.62-3.22 -1.91 0-2.7 1.92l0 11.61 -2.52 0 0-15.5 2.38 0zm22.41 15.5l-2.53 0 0-15.5 2.53 0 0 15.5zm0.2-19.61q0 0.66-0.36 1.09 -0.36 0.42-1.09 0.42 -0.72 0-1.08-0.42 -0.34-0.44-0.34-1.08 0-0.66 0.34-1.09 0.36-0.45 1.08-0.45 0.72 0 1.08 0.45 0.38 0.45 0.38 1.08zm11.31 15.64q0-0.81-0.62-1.39 -0.61-0.59-2.36-1.39 -2.06-0.84-2.91-1.44 -0.83-0.61-1.25-1.37 -0.41-0.77-0.41-1.83 0-1.89 1.38-3.14 1.39-1.25 3.53-1.25 2.27 0 3.64 1.33 1.38 1.31 1.38 3.38l-2.52 0q0-1.05-0.7-1.78 -0.7-0.75-1.8-0.75 -1.11 0-1.75 0.59 -0.64 0.58-0.64 1.55 0 0.77 0.47 1.25 0.47 0.47 2.25 1.23 2.81 1.11 3.83 2.17 1.02 1.05 1.02 2.66 0 2.02-1.39 3.23 -1.39 1.2-3.72 1.2 -2.42 0-3.92-1.37 -1.5-1.39-1.5-3.53l2.55 0q0.05 1.28 0.78 2.02 0.75 0.73 2.09 0.73 1.27 0 1.92-0.56 0.66-0.56 0.66-1.53zm13.36 0q0-0.81-0.62-1.39 -0.61-0.59-2.36-1.39 -2.06-0.84-2.91-1.44 -0.83-0.61-1.25-1.37 -0.41-0.77-0.41-1.83 0-1.89 1.38-3.14 1.39-1.25 3.53-1.25 2.27 0 3.64 1.33 1.38 1.31 1.38 3.38l-2.52 0q0-1.05-0.7-1.78 -0.7-0.75-1.8-0.75 -1.11 0-1.75 0.59 -0.64 0.58-0.64 1.55 0 0.77 0.47 1.25 0.47 0.47 2.25 1.23 2.81 1.11 3.83 2.17 1.02 1.05 1.02 2.66 0 2.02-1.39 3.23 -1.39 1.2-3.72 1.2 -2.42 0-3.92-1.37 -1.5-1.39-1.5-3.53l2.55 0q0.05 1.28 0.78 2.02 0.75 0.73 2.09 0.73 1.27 0 1.92-0.56 0.66-0.56 0.66-1.53zm8.56 3.97l-2.53 0 0-15.5 2.53 0 0 15.5zm0.2-19.61q0 0.66-0.36 1.09 -0.36 0.42-1.09 0.42 -0.72 0-1.08-0.42 -0.34-0.44-0.34-1.08 0-0.66 0.34-1.09 0.36-0.45 1.08-0.45 0.72 0 1.08 0.45 0.38 0.45 0.38 1.08zm3.25 11.14q0-3.37 1.64-5.34 1.64-1.97 4.33-1.97 2.7 0 4.33 1.92 1.64 1.92 1.69 5.22l0 1.64q0 3.36-1.64 5.33 -1.62 1.95-4.34 1.95 -2.69 0-4.31-1.89 -1.62-1.91-1.69-5.17l0-1.69zm2.53 1.47q0 2.39 0.94 3.77 0.94 1.36 2.53 1.36 3.36 0 3.45-4.84l0-1.75q0-2.37-0.95-3.75 -0.94-1.39-2.53-1.39 -1.56 0-2.5 1.39 -0.94 1.38-0.94 3.73l0 1.48zm15.11-8.5l0.08 1.69q1.47-1.97 3.77-1.97 4.11 0 4.16 5.48l0 10.3 -2.52 0 0-10.19q0-1.81-0.61-2.58 -0.61-0.77-1.83-0.77 -0.94 0-1.69 0.64 -0.75 0.63-1.22 1.64l0 11.25 -2.53 0 0-15.5 2.39 0zm17.99 7.05q0-3.58 1.33-5.45 1.34-1.87 3.86-1.87 2.22 0 3.47 1.8l0-8.02 2.53 0 0 22 -2.33 0 -0.12-1.66q-1.25 1.94-3.56 1.94 -2.41 0-3.78-1.86 -1.36-1.87-1.39-5.28l0-1.59zm2.53 1.45q0 2.61 0.77 3.83 0.78 1.22 2.53 1.22 1.89 0 2.83-1.91l0-7.81q-0.98-1.86-2.81-1.86 -1.75 0-2.53 1.23 -0.77 1.22-0.78 3.75l0 1.55zm18.1 7.28q-2.89 0-4.44-1.72 -1.55-1.73-1.58-5.06l0-1.87q0-3.47 1.5-5.44 1.52-1.97 4.22-1.97 2.72 0 4.06 1.73 1.36 1.73 1.39 5.39l0 1.67 -8.66 0 0 0.36q0 2.48 0.94 3.63 0.94 1.13 2.7 1.13 1.11 0 1.95-0.42 0.86-0.42 1.61-1.34l1.31 1.61q-1.64 2.31-5.02 2.31zm-0.3-13.89q-1.56 0-2.33 1.09 -0.77 1.08-0.86 3.34l6.09 0 0-0.34q-0.09-2.2-0.8-3.14 -0.69-0.95-2.11-0.95zm19.69 6.61q0 3.67-1.33 5.48 -1.33 1.8-3.75 1.8 -2.33 0-3.59-1.75l0 7.42 -2.52 0 0-21.45 2.3 0 0.13 1.72q1.27-2 3.64-2 2.56 0 3.81 1.78 1.27 1.77 1.31 5.31l0 1.69zm-2.53-1.45q0-2.61-0.8-3.84 -0.8-1.23-2.58-1.23 -1.81 0-2.77 1.81l0 8.06q0.94 1.78 2.8 1.78 1.72 0 2.52-1.23 0.81-1.25 0.83-3.8l0-1.55zm8.53 8.45l-2.53 0 0-22 2.53 0 0 22zm3.45-8.47q0-3.37 1.64-5.34 1.64-1.97 4.33-1.97 2.7 0 4.33 1.92 1.64 1.92 1.69 5.22l0 1.64q0 3.36-1.64 5.33 -1.62 1.95-4.34 1.95 -2.69 0-4.31-1.89 -1.62-1.91-1.69-5.17l0-1.69zm2.53 1.47q0 2.39 0.94 3.77 0.94 1.36 2.53 1.36 3.36 0 3.45-4.84l0-1.75q0-2.37-0.95-3.75 -0.94-1.39-2.53-1.39 -1.56 0-2.5 1.39 -0.94 1.38-0.94 3.73l0 1.48zm16.74 2.8l2.83-11.3 2.69 0 -5.06 17.69q-0.58 2-1.62 3.03 -1.05 1.05-2.37 1.05 -0.52 0-1.31-0.23l0-2.16 0.55 0.06q1.11 0 1.73-0.53 0.63-0.52 1-1.8l0.52-1.73 -4.56-15.37 2.77 0 2.86 11.3zm10.37-11.3l0.06 1.44q1.41-1.72 3.73-1.72 2.59 0 3.63 2.25 1.45-2.25 4.06-2.25 4.28 0 4.39 5.34l0 10.44 -2.53 0 0-10.2q0-1.69-0.61-2.5 -0.59-0.83-2.02-0.83 -1.16 0-1.87 0.89 -0.7 0.89-0.83 2.27l0 10.38 -2.55 0 0-10.31q-0.05-3.22-2.62-3.22 -1.91 0-2.7 1.92l0 11.61 -2.52 0 0-15.5 2.38 0zm25.22 15.78q-2.89 0-4.44-1.72 -1.55-1.73-1.58-5.06l0-1.87q0-3.47 1.5-5.44 1.52-1.97 4.22-1.97 2.72 0 4.06 1.73 1.36 1.73 1.39 5.39l0 1.67 -8.66 0 0 0.36q0 2.48 0.94 3.63 0.94 1.13 2.7 1.13 1.11 0 1.95-0.42 0.86-0.42 1.61-1.34l1.31 1.61q-1.64 2.31-5.02 2.31zm-0.3-13.89q-1.56 0-2.33 1.09 -0.77 1.08-0.86 3.34l6.09 0 0-0.34q-0.09-2.2-0.8-3.14 -0.69-0.95-2.11-0.95zm10.87-1.89l0.08 1.69q1.47-1.97 3.77-1.97 4.11 0 4.16 5.48l0 10.3 -2.52 0 0-10.19q0-1.81-0.61-2.58 -0.61-0.77-1.83-0.77 -0.94 0-1.69 0.64 -0.75 0.63-1.22 1.64l0 11.25 -2.53 0 0-15.5 2.39 0zm15.13-3.75l0 3.75 2.33 0 0 2.05 -2.33 0 0 9.61q0 0.92 0.3 1.41 0.3 0.47 1.03 0.47 0.5 0 1.02-0.17l-0.03 2.14q-0.86 0.28-1.77 0.28 -1.5 0-2.3-1.06 -0.78-1.08-0.78-3.05l0-9.62 -2.36 0 0-2.05 2.36 0 0-3.75 2.53 0zm5.51 17.86q0-0.69 0.41-1.14 0.41-0.47 1.22-0.47 0.83 0 1.25 0.47 0.42 0.45 0.42 1.14 0 0.66-0.42 1.11 -0.42 0.44-1.25 0.44 -0.81 0-1.22-0.44 -0.41-0.45-0.41-1.11z" class="c"/></g></svg>
