<svg xmlns="http://www.w3.org/2000/svg" viewBox="0 0 960 540" class="a"><style>.a{fill:none;}.b{fill:#bf8ac9;}.c{fill:#e3bc6d;}.d{fill:#fff;}</style><path fill="#000000" d="m0 0l960.0 0l0 540.0l-960.0 0z" fill-rule="evenodd"/><clipPath><path d="m0 0l960 0 0 540 -960 0 0-540z"/></clipPath><g clip-path="url(#g18d14ebf02_0_7.0)"><path d="m0 0l960 0 0 540 -960 0z"/><path d="m253.3 0l255.3 0 0 16.4 -255.3 0z" class="b"/><path d="m515.7 0l206.3 0 0 16.4 -206.3 0z" class="c"/><path d="m729 0l231 0 0 16.4 -231 0z" fill="#a14141"/><path d="m0 0l246.3 0 0 16.4 -246.3 0z" class="c"/><path d="m0 523.6l255.3 0 0 16.4 -255.3 0z" class="b"/><path d="m262.3 523.6l206.3 0 0 16.4 -206.3 0z" fill="#e06163"/><path d="m473.8 523.6l486.2 0 0 16.4 -486.2 0z" class="b"/><path d="m10.3 23.4l942.2 0 0 491.2 -942.2 0z" class="a"/><path d="m6.5 23.4l942.2 0 0 356.5 -942.2 0z" class="a"/><path d="m305.7 160.5l8.7 0 -9.6 60.1 -12 0 -6.7-45.1 -6.6 45.1 -12 0 -9.6-60.1 8.9 0 6.7 52.2 7.8-52.2 9.6 0 7.8 52.2 7-52.2zm22.7 13.3l9.4 0q9 0 9 8.5l0 17.6 -18.9 0 0 11.1q0 1.6 0.6 2.2 0.6 0.6 2.3 0.6l4.4 0q1.7 0 2.3-0.6 0.6-0.6 0.6-2.3l0-3.8 8.5 0 0 5.1q0 8.5-8.9 8.5l-9.2 0q-8.9 0-8.9-8.5l0-29.8q0-8.5 8.9-8.5zm-0.5 19.8l10.4 0 0-10.2q0-1.6-0.5-2.2 -0.5-0.6-2.2-0.6l-4.7 0q-1.7 0-2.3 0.6 -0.6 0.6-0.6 2.2l0 10.2zm34.9 27.1l-8.6 0 0-64.2 8.6 0 0 64.2zm34.9-32.1l-8.5 0 0-5q0-1.7-0.6-2.2 -0.6-0.5-2.3-0.5l-4.1 0q-1.7 0-2.3 0.5 -0.6 0.5-0.6 2.3l0 27.3q0 1.7 0.6 2.3 0.6 0.5 2.3 0.5l4.1 0q1.7 0 2.3-0.5 0.6-0.5 0.6-2.3l0-5 8.5 0 0 6.3q0 8.5-9 8.5l-9.1 0q-8.9 0-8.9-8.5l0-29.8q0-8.5 8.9-8.5l9.1 0q9 0 9 8.5l0 6.2zm15.6-14.8l10.3 0q8.9 0 8.9 8.5l0 29.8q0 8.5-8.9 8.5l-10.3 0q-8.8 0-8.8-8.5l0-29.8q0-8.5 8.8-8.5zm10.7 37.1l0-27.5q0-1.7-0.6-2.3 -0.6-0.6-2.3-0.6l-5.3 0q-1.7 0-2.3 0.6 -0.5 0.6-0.5 2.3l0 27.5q0 1.7 0.5 2.3 0.5 0.6 2.3 0.6l5.3 0q1.7 0 2.3-0.6 0.6-0.6 0.6-2.3zm49.1-37.1l3.4 0q8.6 0 8.6 8.5l0 38.3 -8.6 0 0-37.1q0-1.7-0.5-2.2 -0.5-0.5-2.2-0.5l-3.5 0q-3.1 0-3.1 3.4l0 36.5 -8.6 0 0-37.1q0-1.7-0.6-2.2 -0.6-0.5-2.3-0.5l-3.4 0q-1.7 0-2.5 0.8 -0.7 0.8-0.7 2.6l0 36.5 -8.6 0 0-46.8 8.6 0 0 3.7q1.3-3.7 6-3.7l3.4 0q6.1 0 8 4.3 1.2-4.3 6.7-4.3zm28.7 0l9.4 0q9 0 9 8.5l0 17.6 -18.9 0 0 11.1q0 1.6 0.6 2.2 0.6 0.6 2.3 0.6l4.4 0q1.7 0 2.3-0.6 0.6-0.6 0.6-2.3l0-3.8 8.5 0 0 5.1q0 8.5-8.9 8.5l-9.2 0q-8.9 0-8.9-8.5l0-29.8q0-8.5 8.9-8.5zm-0.5 19.8l10.4 0 0-10.2q0-1.6-0.5-2.2 -0.5-0.6-2.2-0.6l-4.7 0q-1.7 0-2.3 0.6 -0.6 0.6-0.6 2.2l0 10.2zm56.1-12.8l-6.4 0 0 29.7q0 1.7 0.5 2.3 0.5 0.5 2.3 0.5l3.6 0 0 7.4 -6.1 0q-9 0-9-8.5l0-31.4 -4.4 0 0-7 4.4 0 0-8 8.7 0 0 8 6.4 0 0 7zm13.5-7l10.3 0q8.9 0 8.9 8.5l0 29.8q0 8.5-8.9 8.5l-10.3 0q-8.8 0-8.8-8.5l0-29.8q0-8.5 8.8-8.5zm10.7 37.1l0-27.5q0-1.7-0.6-2.3 -0.6-0.6-2.3-0.6l-5.3 0q-1.7 0-2.3 0.6 -0.5 0.6-0.5 2.3l0 27.5q0 1.7 0.5 2.3 0.5 0.6 2.3 0.6l5.3 0q1.7 0 2.3-0.6 0.6-0.6 0.6-2.3zm46.3-30.1l-6.4 0 0 29.7q0 1.7 0.5 2.3 0.5 0.5 2.3 0.5l3.6 0 0 7.4 -6.1 0q-9 0-9-8.5l0-31.4 -4.4 0 0-7 4.4 0 0-8 8.7 0 0 8 6.4 0 0 7zm19.8-7l3.4 0q8.7 0 8.7 8.5l0 38.3 -8.6 0 0-37.1q0-1.7-0.6-2.2 -0.6-0.5-2.3-0.5l-3.4 0q-1.7 0-2.5 0.8 -0.7 0.8-0.7 2.6l0 36.5 -8.6 0 0-64.2 8.6 0 0 21.1q1.3-3.7 6-3.7zm29.2 0l9.4 0q9 0 9 8.5l0 17.6 -18.9 0 0 11.1q0 1.6 0.6 2.2 0.6 0.6 2.3 0.6l4.4 0q1.7 0 2.3-0.6 0.6-0.6 0.6-2.3l0-3.8 8.5 0 0 5.1q0 8.5-8.9 8.5l-9.2 0q-8.9 0-8.9-8.5l0-29.8q0-8.5 8.9-8.5zm-0.5 19.8l10.4 0 0-10.2q0-1.6-0.5-2.2 -0.5-0.6-2.2-0.6l-4.7 0q-1.7 0-2.3 0.6 -0.6 0.6-0.6 2.2l0 10.2z" class="d"/><path d="m353.6 325.8l0-14.7q0-1.7-0.5-2.2 -0.5-0.5-2.2-0.5l-7.1 0q-8.7 0-8.7-8.5l0-15.8q0-8.5 8.9-8.5l9.4 0q8.9 0 8.9 8.5l0 8.8 -8.7 0 0-7.5q0-1.7-0.6-2.3 -0.6-0.5-2.3-0.5l-4 0q-1.7 0-2.3 0.5 -0.6 0.5-0.6 2.3l0 13.3q0 1.7 0.6 2.3 0.6 0.5 2.3 0.5l7 0q8.8 0 8.8 8.4l0 17.3q0 8.5-9 8.5l-9.3 0q-8.9 0-8.9-8.5l0-8.8 8.7 0 0 7.5q0 1.7 0.6 2.3 0.6 0.5 2.3 0.5l4 0q1.7 0 2.3-0.5 0.5-0.5 0.5-2.3zm41.7-50.3l0 7 -10.1 0 0 53.1 -8.6 0 0-53.1 -10.1 0 0-7 28.8 0zm27.6 60.1l-2.4-13.9 -12.7 0 -2.2 13.9 -8.6 0 10.7-60.1 12.6 0 11.4 60.1 -8.7 0zm-14-20.9l10.5 0 -5.5-31.7 -5 31.7zm37.5-3.4l0 24.3 -8.6 0 0-60.1 19.7 0q8.9 0 8.9 8.5l0 18.8q0 7.3-6.4 8.3l9.5 24.5 -9.3 0 -9-24.3 -4.7 0zm0-28.8l0 21.9 8.5 0q1.7 0 2.3-0.5 0.6-0.5 0.6-2.3l0-16.3q0-1.7-0.6-2.3 -0.6-0.5-2.3-0.5l-8.5 0zm53.7-7l0 7 -10.1 0 0 53.1 -8.6 0 0-53.1 -10.1 0 0-7 28.8 0zm40.8 0l8.6 0 0 60.1 -8.6 0 0-26.4 -12.8 0 0 26.4 -8.6 0 0-60.1 8.6 0 0 26.7 12.8 0 0-26.7zm35.8 13.3l8.6 0 0 46.8 -8.6 0 0-3.7q-1.2 3.8-6 3.8l-3.5 0q-8.6 0-8.6-8.5l0-38.4 8.6 0 0 37q0 1.7 0.6 2.3 0.6 0.5 2.3 0.5l3.4 0q1.7 0 2.4-0.8 0.7-0.8 0.7-2.6l0-36.5zm31.7-0.1l3.4 0q8.7 0 8.7 8.5l0 30q0 8.5-8.7 8.5l-3.4 0q-4.7 0-6-3.7l0 3.8 -8.6 0 0-64.2 8.6 0 0 21q1.3-3.7 6-3.7zm3.5 37.1l0-27.4q0-1.6-0.6-2.2 -0.6-0.6-2.3-0.6l-3.4 0q-1.7 0-2.5 0.8 -0.7 0.8-0.7 2.6l0 26.2q0 1.8 0.7 2.6 0.7 0.8 2.5 0.8l3.4 0q1.7 0 2.3-0.5 0.6-0.5 0.6-2.3z" class="d"/><path d="m59.9 384.6l830.9 0 0 101 -830.9 0z" class="a"/><path d="m275.8 415.4l0 8.9 -2.9 0 0-22.7 7.3 0q3.2 0 5 1.9 1.8 1.9 1.8 5 0 3.3-1.7 5.1 -1.7 1.8-4.9 1.8l-4.6 0zm0-2.5l4.4 0q1.9 0 2.9-1.1 1-1.1 1-3.3 0-2-1-3.3 -1-1.2-2.9-1.2l-4.4 0 0 8.9zm17.5 11.4l-2.8 0 0-24 2.8 0 0 24zm10.4 0.3q-3.2 0-4.8-1.9 -1.7-1.9-1.7-5.5l0-2q0-3.8 1.6-5.9 1.7-2.2 4.6-2.2 3 0 4.4 1.9 1.5 1.9 1.5 5.9l0 1.8 -9.4 0 0 0.4q0 2.7 1 4 1 1.2 3 1.2 1.2 0 2.1-0.5 0.9-0.5 1.8-1.5l1.4 1.8q-1.8 2.5-5.5 2.5zm-0.3-15.2q-1.7 0-2.5 1.2 -0.8 1.2-0.9 3.7l6.7 0 0-0.4q-0.1-2.4-0.9-3.4 -0.7-1-2.3-1zm18 14.8q-0.2-0.5-0.4-1.8 -1.5 2.2-3.7 2.2 -2.3 0-3.6-1.3 -1.3-1.3-1.3-3.6 0-2.6 1.8-4.1 1.8-1.5 4.8-1.5l2 0 0-1.8q0-1.5-0.7-2.2 -0.7-0.6-2-0.6 -1.2 0-2 0.8 -0.8 0.7-0.8 1.9l-2.8 0q0-1.3 0.8-2.5 0.8-1.2 2.1-1.9 1.3-0.7 2.9-0.7 2.6 0 3.9 1.3 1.4 1.3 1.4 3.8l0 8.5q0 2 0.5 3.4l0 0.3 -2.9 0zm-3.7-2.2q1 0 1.9-0.6 0.9-0.6 1.3-1.4l0-4 -1.6 0q-2 0-3.1 0.9 -1.1 0.8-1.1 2.4 0 1.4 0.6 2.1 0.6 0.6 2 0.6zm18.5-2.1q0-0.9-0.7-1.5 -0.7-0.6-2.6-1.5 -2.2-0.9-3.2-1.6 -0.9-0.7-1.4-1.5 -0.5-0.8-0.5-2 0-2.1 1.5-3.4 1.5-1.4 3.9-1.4 2.5 0 4 1.4 1.5 1.4 1.5 3.7l-2.7 0q0-1.1-0.8-1.9 -0.8-0.8-2-0.8 -1.2 0-1.9 0.6 -0.7 0.6-0.7 1.7 0 0.8 0.5 1.4 0.5 0.5 2.5 1.4 3.1 1.2 4.2 2.4 1.1 1.1 1.1 2.9 0 2.2-1.5 3.5 -1.5 1.3-4.1 1.3 -2.6 0-4.3-1.5 -1.6-1.5-1.6-3.8l2.8 0q0 1.4 0.9 2.2 0.8 0.8 2.3 0.8 1.4 0 2.1-0.6 0.7-0.6 0.7-1.7zm12.4 4.6q-3.2 0-4.8-1.9 -1.7-1.9-1.7-5.5l0-2q0-3.8 1.6-5.9 1.7-2.2 4.6-2.2 3 0 4.4 1.9 1.5 1.9 1.5 5.9l0 1.8 -9.4 0 0 0.4q0 2.7 1 4 1 1.2 3 1.2 1.2 0 2.1-0.5 0.9-0.5 1.8-1.5l1.4 1.8q-1.8 2.5-5.5 2.5zm-0.3-15.2q-1.7 0-2.5 1.2 -0.8 1.2-0.9 3.7l6.7 0 0-0.4q-0.1-2.4-0.9-3.4 -0.7-1-2.3-1zm23.6 0.5q-0.6-0.1-1.2-0.1 -2.1 0-3 2.3l0 12.1 -2.8 0 0-16.9 2.7 0 0 1.7q1.1-2 3.1-2 0.7 0 1.1 0.2l0 2.7zm8.5 14.6q-3.2 0-4.8-1.9 -1.7-1.9-1.7-5.5l0-2q0-3.8 1.6-5.9 1.7-2.2 4.6-2.2 3 0 4.4 1.9 1.5 1.9 1.5 5.9l0 1.8 -9.4 0 0 0.4q0 2.7 1 4 1 1.2 3 1.2 1.2 0 2.1-0.5 0.9-0.5 1.8-1.5l1.4 1.8q-1.8 2.5-5.5 2.5zm-0.3-15.2q-1.7 0-2.5 1.2 -0.8 1.2-0.9 3.7l6.7 0 0-0.4q-0.1-2.4-0.9-3.4 -0.7-1-2.3-1zm12.2 14.8l-2.8 0 0-24 2.8 0 0 24zm13 0q-0.2-0.5-0.4-1.8 -1.5 2.2-3.7 2.2 -2.3 0-3.6-1.3 -1.3-1.3-1.3-3.6 0-2.6 1.8-4.1 1.8-1.5 4.8-1.5l2 0 0-1.8q0-1.5-0.7-2.2 -0.7-0.6-2-0.6 -1.2 0-2 0.8 -0.8 0.7-0.8 1.9l-2.8 0q0-1.3 0.8-2.5 0.8-1.2 2.1-1.9 1.3-0.7 2.9-0.7 2.6 0 3.9 1.3 1.4 1.3 1.4 3.8l0 8.5q0 2 0.5 3.4l0 0.3 -2.9 0zm-3.7-2.2q1 0 1.9-0.6 0.9-0.6 1.3-1.4l0-4 -1.6 0q-2 0-3.1 0.9 -1.1 0.8-1.1 2.4 0 1.4 0.6 2.1 0.6 0.6 2 0.6zm15.2-8.5l2.9-6.2 3.2 0 -4.6 8.4 4.7 8.5 -3.2 0 -3-6.3 -3 6.3 -3.2 0 4.7-8.5 -4.6-8.4 3.2 0 2.8 6.2zm25.2 10.7q-0.2-0.5-0.4-1.8 -1.5 2.2-3.7 2.2 -2.3 0-3.6-1.3 -1.3-1.3-1.3-3.6 0-2.6 1.8-4.1 1.8-1.5 4.8-1.5l2 0 0-1.8q0-1.5-0.7-2.2 -0.7-0.6-2-0.6 -1.2 0-2 0.8 -0.8 0.7-0.8 1.9l-2.8 0q0-1.3 0.8-2.5 0.8-1.2 2.1-1.9 1.3-0.7 2.9-0.7 2.6 0 3.9 1.3 1.4 1.3 1.4 3.8l0 8.5q0 2 0.5 3.4l0 0.3 -2.9 0zm-3.7-2.2q1 0 1.9-0.6 0.9-0.6 1.3-1.4l0-4 -1.6 0q-2 0-3.1 0.9 -1.1 0.8-1.1 2.4 0 1.4 0.6 2.1 0.6 0.6 2 0.6zm12.9-14.7l0.1 1.8q1.6-2.1 4.1-2.1 4.5 0 4.5 6l0 11.2 -2.7 0 0-11.1q0-2-0.7-2.8 -0.7-0.8-2-0.8 -1 0-1.9 0.7 -0.8 0.7-1.3 1.8l0 12.3 -2.8 0 0-16.9 2.6 0zm12.3 7.7q0-3.9 1.5-6 1.5-2 4.2-2 2.4 0 3.8 2l0-8.7 2.8 0 0 24 -2.5 0 -0.1-1.8q-1.4 2.1-3.9 2.1 -2.6 0-4.1-2 -1.5-2-1.5-5.8l0-1.7zm2.8 1.6q0 2.8 0.8 4.2 0.8 1.3 2.8 1.3 2.1 0 3.1-2.1l0-8.5q-1.1-2-3.1-2 -1.9 0-2.7 1.3 -0.8 1.3-0.9 4.1l0 1.7zm27.1 8q-3.2 0-4.8-1.9 -1.7-1.9-1.7-5.5l0-2q0-3.8 1.6-5.9 1.7-2.2 4.6-2.2 3 0 4.4 1.9 1.5 1.9 1.5 5.9l0 1.8 -9.4 0 0 0.4q0 2.7 1 4 1 1.2 3 1.2 1.2 0 2.1-0.5 0.9-0.5 1.8-1.5l1.4 1.8q-1.8 2.5-5.5 2.5zm-0.3-15.2q-1.7 0-2.5 1.2 -0.8 1.2-0.9 3.7l6.7 0 0-0.4q-0.1-2.4-0.9-3.4 -0.7-1-2.3-1zm11.9-2.1l0.1 1.8q1.6-2.1 4.1-2.1 4.5 0 4.5 6l0 11.2 -2.7 0 0-11.1q0-2-0.7-2.8 -0.7-0.8-2-0.8 -1 0-1.9 0.7 -0.8 0.7-1.3 1.8l0 12.3 -2.8 0 0-16.9 2.6 0zm15.7 0l0 19q0 4.7-3.7 4.7 -0.8 0-1.5-0.3l0-2.3q0.4 0.1 1.1 0.1 0.7 0 1-0.5 0.4-0.5 0.4-1.8l0-18.9 2.8 0zm0.1-4.5q0 0.7-0.4 1.2 -0.4 0.5-1.2 0.5 -0.8 0-1.2-0.5 -0.4-0.5-0.4-1.2 0-0.7 0.4-1.2 0.4-0.5 1.2-0.5 0.8 0 1.2 0.5 0.4 0.5 0.4 1.2zm3.6 12.2q0-3.7 1.8-5.8 1.8-2.2 4.7-2.2 2.9 0 4.7 2.1 1.8 2.1 1.8 5.7l0 1.8q0 3.7-1.8 5.8 -1.8 2.1-4.7 2.1 -2.9 0-4.7-2.1 -1.8-2.1-1.8-5.6l0-1.8zm2.8 1.6q0 2.6 1 4.1 1 1.5 2.8 1.5 3.7 0 3.8-5.3l0-1.9q0-2.6-1-4.1 -1-1.5-2.8-1.5 -1.7 0-2.7 1.5 -1 1.5-1 4.1l0 1.6zm18.3 3l3.1-12.3 2.9 0 -5.5 19.3q-0.6 2.2-1.8 3.3 -1.1 1.1-2.6 1.1 -0.6 0-1.4-0.2l0-2.3 0.6 0.1q1.2 0 1.9-0.6 0.7-0.6 1.1-2l0.5-1.9 -5-16.8 3 0 3.1 12.3zm20.7 0l3.1-12.3 2.9 0 -5.5 19.3q-0.6 2.2-1.8 3.3 -1.1 1.1-2.6 1.1 -0.6 0-1.4-0.2l0-2.3 0.6 0.1q1.2 0 1.9-0.6 0.7-0.6 1.1-2l0.5-1.9 -5-16.8 3 0 3.1 12.3zm7.9-4.6q0-3.7 1.8-5.8 1.8-2.2 4.7-2.2 2.9 0 4.7 2.1 1.8 2.1 1.8 5.7l0 1.8q0 3.7-1.8 5.8 -1.8 2.1-4.7 2.1 -2.9 0-4.7-2.1 -1.8-2.1-1.8-5.6l0-1.8zm2.8 1.6q0 2.6 1 4.1 1 1.5 2.8 1.5 3.7 0 3.8-5.3l0-1.9q0-2.6-1-4.1 -1-1.5-2.8-1.5 -1.7 0-2.7 1.5 -1 1.5-1 4.1l0 1.6zm22.5 6.2q-1.4 1.8-4 1.8 -2.3 0-3.5-1.6 -1.2-1.6-1.2-4.6l0-11 2.8 0 0 10.8q0 4 2.4 4 2.5 0 3.5-2.2l0-12.5 2.8 0 0 16.9 -2.6 0 -0.1-1.5zm13.8-12.8q-0.6-0.1-1.2-0.1 -2.1 0-3 2.3l0 12.1 -2.8 0 0-16.9 2.7 0 0 1.7q1.1-2 3.1-2 0.7 0 1.1 0.2l0 2.7zm18.3 10q0-0.9-0.7-1.5 -0.7-0.6-2.6-1.5 -2.2-0.9-3.2-1.6 -0.9-0.7-1.4-1.5 -0.5-0.8-0.5-2 0-2.1 1.5-3.4 1.5-1.4 3.9-1.4 2.5 0 4 1.4 1.5 1.4 1.5 3.7l-2.7 0q0-1.1-0.8-1.9 -0.8-0.8-2-0.8 -1.2 0-1.9 0.6 -0.7 0.6-0.7 1.7 0 0.8 0.5 1.4 0.5 0.5 2.5 1.4 3.1 1.2 4.2 2.4 1.1 1.1 1.1 2.9 0 2.2-1.5 3.5 -1.5 1.3-4.1 1.3 -2.6 0-4.3-1.5 -1.6-1.5-1.6-3.8l2.8 0q0 1.4 0.9 2.2 0.8 0.8 2.3 0.8 1.4 0 2.1-0.6 0.7-0.6 0.7-1.7zm10-16.7l0 4.1 2.5 0 0 2.2 -2.5 0 0 10.5q0 1 0.3 1.5 0.3 0.5 1.1 0.5 0.5 0 1.1-0.2l0 2.3q-0.9 0.3-1.9 0.3 -1.6 0-2.5-1.2 -0.9-1.2-0.9-3.3l0-10.5 -2.6 0 0-2.2 2.6 0 0-4.1 2.8 0zm14.5 21q-0.2-0.5-0.4-1.8 -1.5 2.2-3.7 2.2 -2.3 0-3.6-1.3 -1.3-1.3-1.3-3.6 0-2.6 1.8-4.1 1.8-1.5 4.8-1.5l2 0 0-1.8q0-1.5-0.7-2.2 -0.7-0.6-2-0.6 -1.2 0-2 0.8 -0.8 0.7-0.8 1.9l-2.8 0q0-1.3 0.8-2.5 0.8-1.2 2.1-1.9 1.3-0.7 2.9-0.7 2.6 0 3.9 1.3 1.4 1.3 1.4 3.8l0 8.5q0 2 0.5 3.4l0 0.3 -2.9 0zm-3.7-2.2q1 0 1.9-0.6 0.9-0.6 1.3-1.4l0-4 -1.6 0q-2 0-3.1 0.9 -1.1 0.8-1.1 2.4 0 1.4 0.6 2.1 0.6 0.6 2 0.6zm14.7-2.4l3.1-12.3 2.9 0 -5.5 19.3q-0.6 2.2-1.8 3.3 -1.1 1.1-2.6 1.1 -0.6 0-1.4-0.2l0-2.3 0.6 0.1q1.2 0 1.9-0.6 0.7-0.6 1.1-2l0.5-1.9 -5-16.8 3 0 3.1 12.3zm7.2 3.1q0-0.7 0.4-1.2 0.5-0.5 1.3-0.5 0.9 0 1.3 0.5 0.5 0.5 0.5 1.3 0 0.7-0.5 1.2 -0.5 0.5-1.3 0.5 -0.9 0-1.3-0.5 -0.4-0.5-0.4-1.2z" fill="#fed47d"/></g></svg>
