<?xml version="1.0" encoding="utf-8"?>
<!-- Generator: Adobe Illustrator 16.0.0, SVG Export Plug-In . SVG Version: 6.00 Build 0)  -->
<!DOCTYPE svg PUBLIC "-//W3C//DTD SVG 1.1//EN" "http://www.w3.org/Graphics/SVG/1.1/DTD/svg11.dtd">
<svg version="1.1" id="Layer_1" xmlns="http://www.w3.org/2000/svg" xmlns:xlink="http://www.w3.org/1999/xlink" x="0px" y="0px"
	 width="24px" height="24px" viewBox="-293.5 408.5 24 24" enable-background="new -293.5 408.5 24 24" xml:space="preserve">
<circle fill="#29ABE0" cx="-281.5" cy="420.5" r="10"/>
<path fill="#FFFFFF" d="M-276.313,421.493c-0.587,0.073-1.063,0.018-1.063,0.018v-3.593h0.722c0.479,0,0.938,0.199,1.25,0.561
	c0.221,0.254,0.396,0.611,0.396,1.107C-275.009,420.796-275.633,421.273-276.313,421.493 M-273.218,418.971
	c-0.21-1.111-0.811-1.805-1.424-2.234c-0.636-0.442-1.396-0.67-2.169-0.67h-10.986c-0.383,0-0.528,0.371-0.53,0.56
	c0,0.024,0,0.121,0,0.121s-0.019,4.86,0.017,7.456c0.103,1.532,1.64,1.532,1.64,1.532s5.014-0.014,7.417-0.029
	c0.111,0,0.226-0.014,0.336-0.041c1.368-0.343,1.51-1.615,1.496-2.323C-274.671,423.496-272.729,421.555-273.218,418.971"/>
<path fill="#FF5E5B" d="M-282.947,423.721c0.119,0.06,0.196-0.015,0.196-0.015s1.748-1.597,2.536-2.515
	c0.701-0.822,0.747-2.209-0.457-2.727c-1.204-0.52-2.193,0.61-2.193,0.61c-0.859-0.943-2.158-0.896-2.759-0.259
	c-0.601,0.641-0.392,1.736,0.058,2.347c0.42,0.573,2.271,2.223,2.551,2.501C-283.016,423.665-282.995,423.686-282.947,423.721"/>
</svg>
